<?xml version="1.0" encoding="UTF-8"?> <svg xmlns="http://www.w3.org/2000/svg" width="349" height="157" viewBox="0 0 349 157" fill="none"> <g clip-path="url(#clip0_66_2)"> <path d="M67.6073 93.025L55.9988 108.073H-0.249023V49.5637H67.4336L55.7383 64.7853H17.902V71.7727H64.1914L53.7987 85.0518H17.902V93.025H67.6073Z" fill="#E4CFBD"></path> <path d="M127.937 72.9034C135.087 72.9034 140.53 74.2371 144.264 76.8755C147.998 79.5429 149.851 83.544 149.851 88.9078C149.851 91.8941 149.388 94.5615 148.462 96.968C147.535 99.3454 146.059 101.375 144.003 102.999C141.977 104.622 139.372 105.898 136.187 106.768C133.003 107.638 129.21 108.072 124.781 108.072H70.3862L81.9947 93.0249H126.2C128.342 93.0249 129.934 92.6769 130.918 92.0101C131.903 91.3432 132.395 90.2415 132.395 88.7338C132.395 87.2262 131.903 86.1534 130.918 85.4865C129.934 84.8197 128.342 84.5298 126.2 84.5298H94.4139C90.6215 84.5298 87.3793 84.1239 84.6291 83.312C81.879 82.5002 79.6209 81.3695 77.8261 79.8908C76.0313 78.4411 74.6707 76.6725 73.8022 74.585C72.9337 72.5265 72.4995 70.236 72.4995 67.7135C72.4995 64.9591 72.9916 62.4657 73.9469 60.2332C74.9023 58.0007 76.3787 56.0871 78.4051 54.4925C80.4315 52.8979 83.008 51.6801 86.1924 50.8103C89.3767 49.9405 93.169 49.5056 97.5982 49.5056H148.346L136.737 64.7272H96.2087C94.1244 64.7272 92.5611 65.0171 91.5479 65.597C90.5347 66.1769 90.0136 67.2206 90.0136 68.7573C90.0136 70.265 90.5347 71.3377 91.5479 71.9466C92.5611 72.5555 94.1244 72.8744 96.2087 72.8744H127.937V72.9034Z" fill="#E4CFBD"></path> <path d="M-0.277832 47.5632C33.3898 -14.9758 114.678 -16.4835 148.288 49.5347H129.298C103.244 -0.913967 35.9663 -7.20556 -0.277832 47.5632Z" fill="#E4CFBD"></path> <path d="M148.288 110.044C114.621 172.583 33.3319 174.091 -0.277832 108.073H18.7127C44.7957 158.55 112.044 164.842 148.288 110.044Z" fill="#E4CFBD"></path> <path d="M196.43 73.4833C197.646 75.7158 198.688 77.6874 199.586 79.369C200.483 81.0506 201.294 82.5583 201.96 83.892C202.654 85.2257 203.262 86.4144 203.754 87.5162C204.247 88.6179 204.797 89.6617 205.289 90.7055C205.723 89.6617 206.215 88.6179 206.736 87.5742C207.257 86.5014 207.865 85.3127 208.531 83.95C209.226 82.6163 210.007 81.1086 210.905 79.427C211.802 77.7744 212.873 75.8028 214.06 73.5703L222.861 57.218C223.845 55.3914 225.09 53.9127 226.595 52.782C228.101 51.6512 229.982 51.1003 232.24 51.1003C234.382 51.1003 236.322 51.7382 238.03 53.0429C239.767 54.3476 241.012 56.3192 241.764 59.0156L255.66 109.609H238.725L233.543 89.5457C232.674 86.2695 231.922 83.3991 231.314 80.9347C230.706 78.4702 230.185 76.0637 229.751 73.7153C228.824 75.7158 227.782 77.9483 226.624 80.3838C225.466 82.8192 223.961 85.9215 222.108 89.6327L214.697 104.1C213.973 105.521 213.25 106.681 212.526 107.493C211.773 108.334 211.021 108.971 210.268 109.435C209.515 109.899 208.676 110.189 207.807 110.334C206.939 110.479 205.984 110.537 204.941 110.537C203.899 110.537 202.944 110.479 202.075 110.334C201.207 110.189 200.367 109.899 199.615 109.435C198.833 108.971 198.08 108.334 197.357 107.493C196.604 106.652 195.88 105.521 195.186 104.1L187.775 89.5457C186.79 87.6032 185.922 85.8346 185.14 84.2979C184.359 82.7612 183.664 81.3696 183.056 80.1228C182.419 78.8761 181.869 77.7454 181.406 76.7306C180.943 75.6868 180.479 74.701 180.045 73.7153C179.611 76.0058 179.09 78.4122 178.482 80.9057C177.874 83.3991 177.15 86.2695 176.34 89.5457L171.158 109.609H154.454L168.668 59.0156C169.421 56.3192 170.695 54.3186 172.461 53.0429C174.226 51.7382 176.166 51.1003 178.308 51.1003C180.508 51.1003 182.361 51.6512 183.867 52.724C185.372 53.8257 186.617 55.3044 187.601 57.189L196.43 73.4833Z" fill="#E4CFBD"></path> <path d="M319.116 95.0256C318.334 93.9818 317.466 92.6771 316.453 91.1115C315.439 89.5458 314.455 88.0672 313.529 86.6755L303.657 71.4539L277.835 109.667H257.686L292.975 57.595C294.133 55.9424 295.581 54.4347 297.346 53.13C299.112 51.7963 301.312 51.1584 304.005 51.1584C306.581 51.1584 308.723 51.7673 310.46 53.014C312.197 54.2607 313.645 55.7974 314.86 57.624L349.223 109.696H327.945L319.116 95.0256Z" fill="#E4CFBD"></path> <path d="M317.205 87.3711H297.636L287.475 102.535H331.13L317.205 87.3711Z" fill="#E4CFBD"></path> </g> <defs> <clipPath id="clip0_66_2"> <rect width="349" height="157" fill="white"></rect> </clipPath> </defs> </svg> 