<svg xmlns="http://www.w3.org/2000/svg" xml:space="preserve" width="4.5718" height="4.2332" version="1.1" style="shape-rendering:geometricPrecision; text-rendering:geometricPrecision; image-rendering:optimizeQuality; fill-rule:evenodd; clip-rule:evenodd" viewBox="0 0 457.18 423.32" xmlns:xlink="http://www.w3.org/1999/xlink" xmlns:xodm="http://www.corel.com/coreldraw/odm/2003">
 <defs>
  <style type="text/css">
   <![CDATA[
    .str0 {stroke:#FEFEFE;stroke-width:5.38;stroke-miterlimit:22.9256}
    .fil1 {fill:none}
    .fil2 {fill:none;fill-rule:nonzero}
    .fil0 {fill:#E74923}
    .fil3 {fill:#2B2A29;fill-rule:nonzero}
   ]]>
  </style>
 </defs>
 <g id="Слой_x0020_1">
  <metadata id="CorelCorpID_0Corel-Layer"/>
  <g id="_2226935142112">
   <path class="fil0" d="M158.13 416.66c-136.67,-165.95 112.26,-296.11 -21.15,-410 245.67,122.03 6.5,304.25 21.15,410z"/>
   <path class="fil0" d="M266.77 362.97c-73.76,-89.56 60.58,-159.8 -11.42,-221.27 132.59,65.86 3.51,164.2 11.42,221.27z"/>
   <path class="fil1 str0" d="M82.35 214.53c-28.41,0 -47.65,0 -75.72,0 0,31.74 0,63.75 0,95.77 28.07,0 48.87,0 77.28,0 0,-7.25 0,-14.64 0,-21.76 -18.19,0 -28.59,0 -46.43,0 0,-5.74 0,-11.21 0,-16.82l41.23 0c0,-7.25 0,-14.5 0,-21.76l-41.23 0 0 -13.54c17.84,0 26.85,0 44.87,0 0,-7.39 0,-14.78 0,-21.89zm46.09 21.89l0 73.88c10.22,0 20.45,0 30.67,0l0 -73.88 29.63 0c0,-7.39 0,-14.64 0,-21.89l-90.1 0c0,7.25 0,14.5 0,21.89l29.8 0zm172.75 73.88l11.09 0 0 -95.77c-10.57,0 -21.14,0 -31.71,0l0 46.79 -61.34 -47.2 -11.26 0 0 96.18c10.57,0 21.31,0 32.05,0l0 -47.07 61.17 47.07zm119.03 0l30.32 0 0 -3.56 -54.75 -93.44 -13.34 0 -54.58 93.44 0 3.56 30.32 0 7.11 -12.04 47.82 0 7.1 12.04zm-17.33 -33.11l-27.37 0 13.51 -25.17 13.86 25.17z"/>
   <path class="fil2" d="M82.35 214.53c-28.41,0 -47.64,0 -75.71,0 0,31.74 0,63.75 0,95.77 28.07,0 48.86,0 77.27,0 0,-7.25 0,-14.64 0,-21.76 -18.19,0 -28.59,0 -46.43,0 0,-5.74 0,-11.21 0,-16.82l41.24 0c0,-7.25 0,-14.5 0,-21.76l-41.24 0 0 -13.54c17.84,0 26.85,0 44.87,0 0,-7.39 0,-14.78 0,-21.89zm46.1 21.89l0 73.88c10.22,0 20.44,0 30.66,0l0 -73.88 29.63 0c0,-7.39 0,-14.64 0,-21.89l-90.1 0c0,7.25 0,14.5 0,21.89l29.81 0zm172.75 73.88l11.09 0 0 -95.77c-10.57,0 -21.14,0 -31.71,0l0 46.79 -61.34 -47.2 -11.26 0 0 96.18c10.57,0 21.31,0 32.05,0l0 -47.07 61.17 47.07zm119.03 0l30.33 0 0 -3.56 -54.76 -93.44 -13.34 0 -54.58 93.44 0 3.56 30.32 0 7.11 -12.04 47.82 0 7.1 12.04zm-17.32 -33.11l-27.38 0 13.52 -25.17 13.86 25.17z"/>
   <path class="fil3" d="M82.35 214.53c-28.41,0 -47.64,0 -75.71,0 0,31.74 0,63.75 0,95.77 28.07,0 48.86,0 77.27,0 0,-7.25 0,-14.64 0,-21.76 -18.19,0 -28.59,0 -46.43,0 0,-5.74 0,-11.21 0,-16.82l41.24 0c0,-7.25 0,-14.5 0,-21.76l-41.24 0 0 -13.54c17.84,0 26.85,0 44.87,0 0,-7.39 0,-14.78 0,-21.89zm46.1 21.89l0 73.88c10.22,0 20.44,0 30.66,0l0 -73.88 29.63 0c0,-7.39 0,-14.64 0,-21.89l-90.1 0c0,7.25 0,14.5 0,21.89l29.81 0zm172.75 73.88l11.09 0 0 -95.77c-10.57,0 -21.14,0 -31.71,0l0 46.79 -61.34 -47.2 -11.26 0 0 96.18c10.57,0 21.31,0 32.05,0l0 -47.07 61.17 47.07zm119.03 0l30.33 0 0 -3.56 -54.76 -93.44 -13.34 0 -54.58 93.44 0 3.56 30.32 0 7.11 -12.04 47.82 0 7.1 12.04zm-17.32 -33.11l-27.38 0 13.52 -25.17 13.86 25.17z"/>
   <path class="fil3" d="M22.96 336.05c3.57,0 3.6,4.99 0,4.99 -1.53,0 -3.17,0 -4.66,0l0 -4.99 4.66 0zm-4.66 -5.75l0 -3.1 11.8 0 0 -5.83 -18.32 0 0 25.5 11.21 0c12.21,-0.03 12.21,-16.57 0,-16.57l-4.69 0z"/>
   <path class="fil3" d="M71.35 346.87l6.37 0 0 -0.95 -11.51 -24.87 -2.8 0 -11.48 24.87 0 0.95 6.38 0 1.49 -3.2 10.05 0 1.5 3.2zm-3.61 -8.78l-5.83 0 2.88 -6.7 2.95 6.7z"/>
   <path class="fil3" d="M120.39 321.37c-2.22,0 -4.44,0 -6.66,0l0 9.26 -7.87 0 0 -9.26c-2.22,0 -4.48,0 -6.67,0l0 25.5c2.19,0 4.45,0 6.67,0l0 -10.23 7.87 0 0 10.23c2.22,0 4.44,0 6.66,0l0 -25.5z"/>
   <path class="fil3" d="M166.23 321.37c-2.22,0 -4.44,0 -6.67,0l0 9.26 -7.86 0 0 -9.26c-2.23,0 -4.48,0 -6.67,0l0 25.5c2.19,0 4.44,0 6.67,0l0 -10.23 7.86 0 0 10.23c2.23,0 4.45,0 6.67,0l0 -25.5z"/>
   <path class="fil3" d="M190.83 321.37l0 25.5 11.22 0c12.2,-0.03 12.2,-17.88 0,-17.88l-4.7 0 0 -7.62 -6.52 0zm11.19 13.48c3.57,0 3.78,6.16 0,6.19 -1.53,0.04 -3.17,0 -4.67,0l0 -6.19 4.67 0zm13.98 12.02l6.52 0 0 -25.5 -6.52 0 0 25.5z"/>
   <path class="fil3" d="M263.01 321.37c-5.98,0 -10.02,0 -15.92,0 0,8.46 0,16.98 0,25.5 5.9,0 10.27,0 16.25,0 0,-1.93 0,-3.9 0,-5.79 -3.83,0 -6.01,0 -9.77,0 0,-1.53 0,-2.99 0,-4.48l8.67 0c0,-1.93 0,-3.86 0,-5.79l-8.67 0 0 -3.61c3.76,0 5.65,0 9.44,0 0,-1.96 0,-3.93 0,-5.83z"/>
   <path class="fil3" d="M318.28 321.37c-16.75,0 -19.01,0 -21.2,0l0 25.5c2.19,0 4.45,0 6.67,0l0 -19.49 7.87 0 0 19.49c2.22,0 4.44,0 6.66,0l0 -25.5z"/>
   <path class="fil3" d="M358.8 321.37c-5.97,0 -10.02,0 -15.92,0 0,8.46 0,16.98 0,25.5 5.9,0 10.28,0 16.25,0 0,-1.93 0,-3.9 0,-5.79 -3.83,0 -6.01,0 -9.76,0 0,-1.53 0,-2.99 0,-4.48l8.67 0c0,-1.93 0,-3.86 0,-5.79l-8.67 0 0 -3.61c3.75,0 5.64,0 9.43,0 0,-1.96 0,-3.93 0,-5.83z"/>
   <path class="fil3" d="M401.73 346.87l0 -25.5 -6.63 0 0 10.42 -1.28 0c-5.06,0 -5.39,-2.95 -5.39,-7.28l0 -3.14 -6.7 0 0 3.14c0,8.96 3.2,13.47 12.06,13.47l1.31 0 0 8.89 6.63 0z"/>
   <path class="fil3" d="M441.52 334.34l0 12.53c2.26,0 4.52,0 6.74,0l0 -25.6 -2.37 0 -12.89 12.56 0 -12.46c-2.23,0 -4.45,0 -6.67,0l0 25.5 2.33 0 12.86 -12.53z"/>
  </g>
 </g>
</svg>