<svg version="1.1" id="Layer_1" xmlns="http://www.w3.org/2000/svg" xmlns:xlink="http://www.w3.org/1999/xlink" x="0px" y="0px" viewBox="0 0 219.3 65" style="enable-background:new 0 0 219.3 65;" xml:space="preserve" width="219.3"  height="65" >
<style type="text/css">
	.st0{fill-rule:evenodd;clip-rule:evenodd;fill:#B2B2B2;}
	.st1{fill:#B2B2B2;}
	.st2{clip-path:url(#SVGID_2_);}
	.st3{fill:#F59E17;}
	.st4{fill-rule:evenodd;clip-rule:evenodd;fill:#F59E17;}
	.st5{clip-path:url(#SVGID_4_);}
</style>
<path class="st0" d="M13.5,50.8h-1.5V37.1h6.7l3.2,4.1V30.6L18.6,35h-6.7V23.6c1.7-0.1,3.2-0.1,4.4-0.1c2.7,0,4.5,0.3,5.5,0.9  c1.3,0.9,2.3,2.3,2.9,3.8c0.1,0.2,0.2,0.5,0.4,0.8c0.9-2.6,2.3-4.9,4-7.1l0.4-0.5H3.3l3.7,3V35c-2.4-0.2-4.6,1.5-5.2,3.9  C3.2,37.7,4.8,37,6.5,37c0.2,0,0.4,0,0.6,0v12.8l-3.7,2.8h27.5c-1.2-1.1-2.3-2.4-3.1-3.8c-0.7-1.4-1.3-2.8-1.6-4.3  c-0.1,0.3-0.3,0.5-0.3,0.5l-1.3,2.2c-0.7,1.3-1.9,2.3-3.3,2.8c-2.3,0.6-4.7,0.8-7.2,0.7L13.5,50.8z"/>
<path class="st1" d="M33.3,53.7H0.4l5.7-4.3V38c-1.3,0.1-2.5,0.7-3.5,1.6L0,41.9l1-3.3c0.5-2.5,2.6-4.3,5.1-4.5v-9.1l-5.6-4.4h31.2  l-1.8,2.1c-1.6,2-2.9,4.3-3.8,6.8l-0.9,2.4l-1-2.3l-0.4-0.8c-1-2.2-1.9-3-2.5-3.4s-2-0.7-5-0.7c-1,0-2.1,0-3.4,0.1V34h5.1l4.7-6.4  V44l-4.7-6h-5.2v11.8h1.1c2.3,0.1,4.6-0.1,6.8-0.7c1.2-0.4,2.2-1.3,2.8-2.4l1.3-2.2c0-0.1,0.1-0.3,0.3-0.5l1.3-2.2l0.6,2.5  c0.3,1.4,0.8,2.7,1.5,4c0.8,1.3,1.9,2.5,3,3.6L33.3,53.7z M18.5,51.7h10c-0.6-0.7-1.2-1.5-1.7-2.3c-0.4-0.7-0.7-1.5-1-2.3l-0.4,0.8  c-0.8,1.5-2.2,2.7-3.9,3.3C20.6,51.4,19.6,51.6,18.5,51.7z M6.3,51.7h4.6V36.1h8.2l1.7,2.2v-4.6L19.1,36h-8.2V22.7h0.9  c1.7-0.1,3.2-0.1,4.5-0.1c2.9,0,4.8,0.3,6,1c1.2,0.8,2.1,1.8,2.7,3.1c0.7-1.4,1.5-2.8,2.4-4.1H6.2L8.1,24v12h-1c-0.3,0-0.7,0-1,0.1  c0.4,0,0.7,0,1.1,0L8,36.2v14L6.3,51.7z"/>
<path class="st1" d="M72.2,51.6h3.9c1.2,0,2.5-0.2,3.7-0.7c1.4-0.5,2.6-1.5,3.4-2.9l1.4-2.5c0.3,1.4,0.9,2.8,1.6,4.2  c0.8,1.3,1.8,2.4,2.8,3.5H62.1l3.5-2.7v-13h-0.7c-1.5-0.1-3.1,0.2-4.5,0.8c0.7-2.2,2.6-2.5,5.2-2.5V25l-3.5-2.7h25.6l-0.2,0.3  c-1.7,2-3,4.2-3.9,6.7l-0.3-0.5c-0.2-0.4-0.6-1.1-1-1.9l-0.4-0.5v-0.1c-0.4-0.5-0.9-0.9-1.5-1.3c-1.1-0.6-3-0.9-5.7-0.9  c-0.6,0-1.1,0-1.5,0c-1.8,0.1-2.8,0.1-3.1,0.1v11.7h7l3-4.3v9.9l-1.5-2v-0.1c-0.1-0.1-0.2-0.2-0.2-0.3l-0.1-0.1  c0-0.1-0.1-0.2-0.2-0.2v0l-0.9-1.2h-7v14h2H72.2z"/>
<path class="st1" d="M91.3,54.3H59.2l5.4-4.2V38.6c-1.3,0-2.6,0.2-3.8,0.7l-2,0.9l0.7-2.1c0.9-2.7,3.2-3.1,5.2-3.2v-9.3l-5.4-4.2  h30.7l-1.7,1.9c-1.6,1.9-2.8,4-3.6,6.4l-0.8,2l-1.3-2.4c-0.2-0.4-0.6-1-1-1.9l-0.4-0.5c-0.3-0.4-0.7-0.8-1.2-1.1  c-0.6-0.3-2-0.8-5.2-0.8c-0.6,0-1.1,0-1.4,0l-2.1,0.1v9.7h5.4l4.5-6.4v16.1l-3.4-4.5l-0.2-0.2l-0.9-1.2h-5.4v12.1h4.9  c1.1,0,2.3-0.2,3.3-0.6c1.2-0.4,2.2-1.3,2.8-2.4l2.7-4.6l0.6,2.3c0.3,1.4,0.8,2.7,1.5,3.9c0.8,1.2,1.7,2.3,2.7,3.3L91.3,54.3z   M78.7,52.3h8c-0.5-0.6-1-1.3-1.4-2c-0.4-0.7-0.7-1.4-1-2.2l-0.3,0.5c-0.8,1.5-2.2,2.7-3.9,3.3C79.6,52.1,79.1,52.2,78.7,52.3z   M64.9,52.3h4.2v-29H65l1.6,1.3V51L64.9,52.3z M79.1,38.5L79.1,38.5l0.1-3.7l-1.4,2L79.1,38.5C79,38.5,79.1,38.5,79.1,38.5  L79.1,38.5z M78.9,23.3c0.7,0.1,1.4,0.4,2,0.7c0.7,0.4,1.3,0.9,1.8,1.6l0.1,0.1l0.5,0.7c0.1,0.2,0.3,0.4,0.3,0.6  c0.6-1.3,1.3-2.5,2.1-3.6L78.9,23.3z"/>
<path class="st1" d="M110,40.6c2,5.2,3.5,10.6,4.4,16.1l0.1,0.6l0.2-0.1c2.3-1.4,4.7-2.5,7.2-3.5h0.1l-0.1-0.1  c-0.1-0.1-0.8-0.7-0.8-0.7c-1.8-1.8-3.4-3.8-4.8-5.9c-1.9-2.9-3.5-6.1-4.6-9.4c2.1-0.4,4-1.3,5.7-2.7c1.7-1.3,2.7-3.3,2.7-5.4  c0-2.6-1.4-4.6-4.2-6.1c-2.4-1.2-5-1.8-7.6-1.7c-4.3,0-8.5,1-12.2,3.1c0.8,0.3,1.6,0.7,2.4,1.2v0.5l0,0c0,0.1,0,0.1,0,0.2  c0,0.1,0,0.2,0,0.2v11.2c-0.3-0.1-0.6-0.1-0.9-0.1H97l-1.6,0v0.1l-0.2,0.8L95,39.5c-0.2,0.7-0.4,1.1-0.5,1.4h0.1  c1.2-0.4,2.5-0.6,3.7-0.6v10.4l-3,2.8h10.1l-2.6-2.8V39.5l0.4-0.1c1.3-0.3,2.3-0.4,3.2-0.5c0.9-0.1,1.7-0.2,2.6-0.5l0.1,0.3  L110,40.6z M104.2,37.6h-1.3V24.3c1.5-0.5,3-0.7,4.5-0.7c2-0.1,3.9,0.5,5.4,1.7c0.4,0.3,0.7,0.6,1,1l0,0l0.1,0.1  c0.1,0.1,0.2,0.2,0.3,0.4l0,0c0.5,0.9,0.8,1.9,0.8,3c0.1,2-0.8,3.8-2.4,5c-2.2,1.5-4.7,2.5-7.3,2.8L104.2,37.6z"/>
<path class="st1" d="M113.7,59l-0.3-2.1c-0.8-5.4-2.3-10.7-4.3-15.9l-0.6-1.4c-0.5,0.1-1.1,0.2-1.9,0.3s-1.6,0.3-2.7,0.4v10l3.9,4.2  h-15l4.5-4.2v-8.9c-0.8,0.1-1.6,0.3-2.4,0.5l-1.8,0.6l0.5-1.9c0.1-0.3,0.2-0.7,0.5-1.4l0.3-1.1l0.2-0.8l2.8-0.1V26.7  c-0.6-0.3-1.1-0.6-1.7-0.9l-2-0.8l1.9-1c3.9-2.1,8.3-3.2,12.7-3.2c2.8-0.1,5.6,0.6,8.1,1.8c3.1,1.6,4.7,3.9,4.7,7  c0,2.4-1.1,4.7-3.1,6.1c-1.5,1.2-3.2,2.1-5,2.6c1.1,2.8,2.5,5.6,4.2,8.1c1.3,2.1,2.9,4,4.6,5.7l0,0c0,0,0.6,0.5,0.7,0.6l1.5,1.2  l-1.7,0.7c-2.4,0.9-4.8,2.1-7,3.4L113.7,59z M109.7,37.3l0.4,1l0.8,1.9c2,5,3.4,10.2,4.3,15.4c1.6-0.9,3.2-1.6,4.9-2.3  c-1.8-1.8-3.3-3.7-4.7-5.8c-2-3-3.6-6.2-4.7-9.5l-0.3-0.9L109.7,37.3z M97.9,52.4h5.3l-1.3-1.4V38.7l0.4-0.1h-0.4v-15  c-1.3,0.3-2.5,0.7-3.7,1.3l0.6,0.4l0.5,0.3v25.6L97.9,52.4z M96.1,39.3l-0.1,0.2c0.6-0.1,1.2-0.2,1.9-0.2h-0.4H96.1z M115.3,26.5  c0.5,1,0.8,2.1,0.8,3.2c0,2.2-1,4.4-2.8,5.7c-0.7,0.5-1.4,0.9-2.1,1.3l0.2,0c1.9-0.4,3.7-1.2,5.2-2.4c1.5-1.1,2.3-2.8,2.3-4.6  c0-2.2-1.2-3.9-3.6-5.2c-1.5-0.7-3-1.2-4.7-1.4c1,0.3,2,0.8,2.8,1.5c0.4,0.3,0.9,0.7,1.2,1.2L115.3,26.5L115.3,26.5z M103.9,36.6  h0.2l1.1-0.2c2.5-0.3,4.8-1.2,6.9-2.6c1.3-1,2.1-2.5,2-4.1c0-0.8-0.2-1.6-0.6-2.2h-0.1l-0.2-0.3l-0.2-0.2l-0.2-0.2  c-0.2-0.2-0.4-0.4-0.7-0.6c-1.4-1.1-3.1-1.6-4.8-1.5c-1.2,0-2.4,0.1-3.5,0.4L103.9,36.6z"/>
<path class="st1" d="M144,39.5l1.5,2v-9.9l-3,4.3h-7V24.2c0.3,0,1.3,0,3.1-0.1c0.4,0,0.9,0,1.5,0c2.7,0,4.5,0.3,5.6,0.9  c0.6,0.3,1.1,0.8,1.5,1.3l0.4,0.6c0.5,0.9,0.8,1.5,1,1.9l0.3,0.6c0.9-2.4,2.2-4.7,3.9-6.7l0.2-0.3h-25.5l3.5,2.7v25.5l-3.5,2.7h26.9  c-1.1-1.1-2-2.2-2.9-3.5c-0.7-1.3-1.2-2.7-1.6-4.2l-1.4,2.5c-0.7,1.3-1.9,2.4-3.4,2.9c-1.2,0.4-2.4,0.6-3.6,0.7h-5.9v-14h7l0.9,1.2  L144,39.5z"/>
<path class="st1" d="M156.7,54.3h-32.1L130,50V25.5l-5.4-4.2h30.7l-1.7,1.9c-1.6,1.9-2.8,4-3.7,6.4l-0.8,2l-1.3-2.4  c-0.2-0.4-0.6-1.1-1-1.9l-0.4-0.5c-0.3-0.4-0.7-0.7-1.2-1c-0.6-0.3-2-0.8-5.1-0.8c-0.6,0-1.1,0-1.4,0l-2.1,0.1v9.7h5.5l4.5-6.4v16.1  l-4.5-6h-5.5v12.1h4.9c1.1,0,2.3-0.2,3.3-0.6c1.2-0.4,2.2-1.3,2.8-2.4l2.7-4.6l0.6,2.3c0.3,1.4,0.8,2.7,1.5,3.9  c0.8,1.2,1.7,2.3,2.7,3.3L156.7,54.3z M144.1,52.3h8.1c-0.6-0.6-1.1-1.3-1.5-2c-0.4-0.7-0.7-1.4-1-2.2l-0.3,0.5  c-0.8,1.5-2.2,2.7-3.9,3.3C145,52.1,144.5,52.2,144.1,52.3z M130.3,52.3h4.2v-29h-4.1l1.5,1.2V51L130.3,52.3z M143.1,36.7l1.4,1.8  v-3.8L143.1,36.7z M144.2,23.3c0.7,0.1,1.4,0.4,2,0.7c0.7,0.4,1.3,0.9,1.8,1.5c0.1,0.1,0.5,0.7,0.5,0.7l0.1,0.1  c0.1,0.2,0.3,0.4,0.4,0.6c0.6-1.3,1.3-2.5,2.1-3.6H144.2z"/>
<path class="st1" d="M166.6,49.9c-1.7-1.5-2.8-3.5-3-5.8l-0.2-0.1c-1,3.1-2.5,6.1-4.3,8.9l0.1-0.1c0.9-0.6,1.9-1,3-1  c1,0,2,0.2,2.9,0.4l2.9,0.7c2,0.5,4.1,0.8,6.3,0.8c2.6,0.1,5.2-0.8,7.3-2.4c2.1-1.7,3.2-4.2,3.2-6.8c0-4.7-3-7.8-8.9-9.2l-4.3-1  c-1.4-0.3-2.7-0.8-3.9-1.5l-0.6-0.4c-1.2-0.9-1.9-2.3-1.9-3.8c0-1.6,0.7-3,2-3.9c1.3-0.9,2.8-1.4,4.4-1.4c1.9,0,3.8,0.7,5.3,2  l0.8,0.9c0.2,0.3,0.4,0.5,0.5,0.8c0.4,1,0.8,2.1,1.2,3.1l0.1,0.3c0.8-1.7,1.4-3.2,1.9-4.5c0.4-1.2,1-2.3,1.8-3.3l0,0  c-0.8,0.3-1.7,0.6-2.5,0.7c-0.9-0.1-1.8-0.2-2.7-0.5c-2.2-0.7-4.4-1-6.7-1.1c-2.5-0.1-4.9,0.7-6.9,2.1c-2,1.5-3.1,3.9-3,6.4  c-0.2,2.3,0.7,4.6,2.4,6.2c1.8,1.4,4,2.3,6.3,2.6c5.1,1,8.3,2.3,9.6,4l0.4,0.5c0.6,0.9,0.9,2,0.9,3.1c0,1.7-0.8,3.4-2.3,4.3  c-1.5,0.9-3.2,1.4-5,1.3c-2.3,0.1-4.5-0.5-6.4-1.8L166.6,49.9z"/>
<path class="st1" d="M156.2,55.7l2.1-3.3c1.7-2.7,3.1-5.6,4.1-8.6l0.3-1l1.8,0.6l0.1,0.6c0.2,2,1.1,3.8,2.7,5.2l0.5,0.4  c1.7,1.1,3.7,1.7,5.8,1.6c1.6,0.1,3.1-0.3,4.4-1.2c1.2-0.8,1.9-2.1,1.8-3.5c0-0.9-0.2-1.8-0.7-2.5l-0.3-0.4c-0.8-1-3-2.4-9-3.6  c-2.5-0.3-4.8-1.3-6.8-2.8c-1.9-1.8-3-4.3-2.8-6.9c-0.1-2.8,1.2-5.5,3.4-7.2c3.4-2.6,8.1-3.1,14.5-1.2c0.8,0.3,1.6,0.4,2.4,0.5  c0.7-0.1,1.4-0.3,2.1-0.6h0.1l3.6-1.2l-2.5,2.8c-0.7,1-1.2,2-1.6,3.1c-0.5,1.3-1.2,2.8-2,4.5l-1.3,2.8l-0.6-3.2  c-0.2-0.8-0.6-1.8-1.1-2.9c-0.1-0.2-0.3-0.5-0.4-0.6l-0.8-0.8c-1.2-1.1-2.8-1.7-4.5-1.7c-1.3,0-2.7,0.4-3.8,1.1  c-1,0.7-1.6,1.9-1.6,3.1c0,1.2,0.6,2.3,1.5,3l0.6,0.4c1.1,0.7,2.3,1.1,3.6,1.4l4.2,1c6.4,1.5,9.7,5,9.7,10.2  c0.1,2.9-1.3,5.8-3.6,7.6c-2.2,1.8-5,2.8-7.9,2.8c-2.2,0-4.4-0.3-6.5-0.9l-2.9-0.6c-0.9-0.2-1.8-0.4-2.7-0.4c-0.9,0-1.8,0.3-2.5,0.8  L156.2,55.7z M168,22.9c-1.1,0.3-2.2,0.8-3.1,1.5c-1.8,1.3-2.7,3.4-2.6,5.6c-0.2,2,0.6,4,2.1,5.4c1.7,1.3,3.7,2.1,5.9,2.3  c5.4,1.1,8.7,2.5,10.2,4.3l0.4,0.5c0.7,1.1,1.1,2.4,1.1,3.7c0.1,2.1-1,4.1-2.7,5.2c-0.3,0.2-0.5,0.3-0.8,0.5c1-0.4,1.9-0.9,2.6-1.6  c1.8-1.5,2.9-3.7,2.8-6.1c0-4.2-2.7-6.9-8.2-8.2l-4.3-1c-1.5-0.3-2.9-0.9-4.2-1.7l-0.6-0.4c-1.5-1.1-2.4-2.8-2.4-4.6  c0-1.9,0.9-3.7,2.4-4.7C167.1,23.4,167.5,23.2,168,22.9L168,22.9z M162.3,50.8c1.1,0,2.1,0.2,3.1,0.4l2.4,0.6  c-0.4-0.2-0.8-0.5-1.2-0.8l-0.6-0.5l0,0c-1.2-1-2.1-2.2-2.6-3.6c-0.6,1.3-1.2,2.6-1.9,3.9C161.8,50.9,162,50.9,162.3,50.8z   M175.1,23c0.9,0.4,1.7,0.9,2.4,1.5l0.9,1c0.2,0.3,0.5,0.6,0.7,1l0.1,0.1l0.4,1c0.3-0.8,0.6-1.5,0.9-2.1c0.2-0.4,0.4-0.9,0.6-1.3  h-0.4c-1-0.1-2-0.2-3-0.6C176.8,23.3,175.9,23.1,175.1,23z"/>
<path class="st1" d="M203.4,22.4L203.4,22.4h-14.2c0.8,1.3,1.6,2.7,2.2,4.1c0.2,0.5,0.6,1.3,0.7,1.6c0.5-1,1.2-1.9,2-2.7  c0.9-0.9,2.5-1.4,4.6-1.4h1.1l1.4,0.1V51l-3.2,2.7h10.8l-3.2-2.7V24.2l1.4-0.1h1.1c2.1,0,3.7,0.5,4.6,1.4c0.8,0.8,1.5,1.7,2,2.7  c0.2-0.6,0.4-1.1,0.7-1.6c0.6-1.4,1.4-2.8,2.2-4.1L203.4,22.4z"/>
<path class="st1" d="M211.5,54.7h-16.3l4.9-4.2V25.1h-0.5h-1c-1.9,0-3.2,0.4-3.9,1.1c-0.7,0.7-1.3,1.6-1.8,2.5l-1.1,2l-0.7-2.2  c-0.1-0.3-0.4-1.1-0.6-1.5c-0.5-1-1-2-1.6-3c-0.2-0.3-0.4-0.6-0.6-1.1l-0.9-1.5h16h16l-0.9,1.5c-0.3,0.5-0.5,0.8-0.6,1.1  c-0.6,1-1.1,2-1.6,3c-0.2,0.4-0.5,1.2-0.6,1.5l-0.7,2.2l-1.1-2c-0.5-0.9-1.1-1.7-1.8-2.5c-1.1-0.8-2.5-1.2-3.9-1.1h-1h-0.5v25.4  L211.5,54.7z M203.3,52.7h2.7l-1.5-1.3v-28h-2.4v28l-1.5,1.3H203.3z M210.9,23.4c0.9,0.2,1.8,0.7,2.4,1.3c0.4,0.4,0.8,0.8,1.1,1.3  c0.7-1.4,1-2,1.3-2.6L210.9,23.4z M190.9,23.4c0.5,0.8,0.9,1.7,1.3,2.6c0.3-0.5,0.7-0.9,1.1-1.3c0.7-0.6,1.5-1.1,2.5-1.3L190.9,23.4  z"/>
<g>
	<defs>
		<path id="SVGID_1_" d="M46.4,40.1l0.4,5.2c0,0-3,6.5-4.3,5s-1.5-0.9-4-4.7S33.3,35.5,33,32.4s4.2-10.3,4.2-10.3l4-3.5    C39.1,21.1,34.5,30.8,46.4,40.1z"/>
	</defs>
	<use xlink:href="#SVGID_1_" style="overflow:visible;fill:#F59E17;"/>
	<clipPath id="SVGID_2_">
		<use xlink:href="#SVGID_1_" style="overflow:visible;"/>
	</clipPath>
	<g class="st2">
		
			<rect x="38.7" y="40.9" transform="matrix(0.8898 -0.4563 0.4563 0.8898 -15.6208 26.1352)" class="st3" width="15.2" height="9.1"/>
		<polygon class="st4" points="37.5,44.9 37.4,44.8 51,37.8 51,37.9   "/>
		<polygon class="st4" points="37.4,44.8 37.4,44.7 51,37.8 51,37.8   "/>
		<polygon class="st4" points="37.4,44.7 37.4,44.6 50.9,37.7 51,37.8   "/>
		<polygon class="st4" points="37.4,44.7 37.3,44.6 50.9,37.6 50.9,37.7   "/>
		<rect x="36.5" y="41" transform="matrix(0.8898 -0.4563 0.4563 0.8898 -13.892 24.6527)" class="st3" width="15.2" height="0.1"/>
		<polygon class="st4" points="37.3,44.5 37.3,44.5 50.8,37.5 50.9,37.6   "/>
		<polygon class="st4" points="37.3,44.5 37.2,44.4 50.8,37.4 50.8,37.5   "/>
		
			<rect x="36.4" y="40.8" transform="matrix(0.8898 -0.4563 0.4563 0.8898 -13.8154 24.5831)" class="st3" width="15.2" height="0.1"/>
		
			<rect x="36.4" y="40.8" transform="matrix(0.8898 -0.4563 0.4563 0.8898 -13.7872 24.5625)" class="st3" width="15.2" height="0.1"/>
		
			<rect x="36.3" y="40.7" transform="matrix(0.8901 -0.4559 0.4559 0.8901 -13.7589 24.507)" class="st3" width="15.2" height="0.1"/>
		
			<rect x="36.3" y="40.6" transform="matrix(0.8896 -0.4568 0.4568 0.8896 -13.7419 24.5448)" class="st3" width="15.2" height="0.1"/>
		<polygon class="st4" points="37.1,44.2 37.1,44.1 50.6,37.1 50.7,37.2   "/>
		<polygon class="st4" points="37.1,44.1 37,44 50.6,37 50.6,37.2   "/>
		
			<rect x="36.2" y="40.5" transform="matrix(0.8896 -0.4568 0.4568 0.8896 -13.6688 24.4808)" class="st3" width="15.2" height="0.1"/>
		
			<rect x="36.1" y="40.4" transform="matrix(0.8889 -0.4582 0.4582 0.8889 -13.6687 24.5474)" class="st3" width="15.2" height="0.1"/>
		
			<rect x="36.1" y="40.3" transform="matrix(0.8896 -0.4568 0.4568 0.8896 -13.6207 24.4411)" class="st3" width="15.2" height="0.1"/>
		<polygon class="st4" points="37,43.8 36.9,43.8 50.5,36.8 50.5,36.9   "/>
		<polygon class="st4" points="36.9,43.8 36.9,43.7 50.4,36.7 50.5,36.8   "/>
		<polygon class="st4" points="36.9,43.7 36.8,43.6 50.4,36.7 50.4,36.8   "/>
		
			<rect x="36" y="40.1" transform="matrix(0.8896 -0.4568 0.4568 0.8896 -13.5159 24.3508)" class="st3" width="15.2" height="0.1"/>
		<polygon class="st4" points="36.8,43.6 36.8,43.5 50.3,36.5 50.4,36.6   "/>
		
			<rect x="35.9" y="39.9" transform="matrix(0.8903 -0.4554 0.4554 0.8903 -13.4393 24.2153)" class="st3" width="15.2" height="0.1"/>
		
			<rect x="35.9" y="39.9" transform="matrix(0.8896 -0.4568 0.4568 0.8896 -13.4381 24.2857)" class="st3" width="15.2" height="0.1"/>
		
			<rect x="35.9" y="39.8" transform="matrix(0.8912 -0.4535 0.4535 0.8912 -13.3593 24.052)" class="st3" width="15.2" height="0.1"/>
		<polygon class="st4" points="36.7,43.3 36.6,43.2 50.2,36.3 50.2,36.4   "/>
		
			<rect x="35.8" y="39.7" transform="matrix(0.8901 -0.4559 0.4559 0.8901 -13.3459 24.1577)" class="st3" width="15.2" height="0.1"/>
		
			<rect x="35.8" y="39.6" transform="matrix(0.8896 -0.4568 0.4568 0.8896 -13.3334 24.1954)" class="st3" width="15.2" height="0.1"/>
		
			<rect x="35.7" y="39.6" transform="matrix(0.8898 -0.4563 0.4563 0.8898 -13.3052 24.1405)" class="st3" width="15.2" height="0.1"/>
		
			<rect x="35.7" y="39.5" transform="matrix(0.8891 -0.4577 0.4577 0.8891 -13.3002 24.2071)" class="st3" width="15.2" height="0.1"/>
		<polygon class="st4" points="36.5,43 36.5,42.9 50,36 50.1,36.1   "/>
		<polygon class="st4" points="36.5,43 36.4,42.8 50,35.9 50,36   "/>
		<polygon class="st4" points="36.5,42.9 36.4,42.8 50,35.8 50,35.9   "/>
		
			<rect x="35.6" y="39.2" transform="matrix(0.8891 -0.4577 0.4577 0.8891 -13.1979 24.1241)" class="st3" width="15.2" height="0.1"/>
		<polygon class="st4" points="36.4,42.8 36.3,42.7 49.9,35.7 50,35.8   "/>
		<polygon class="st4" points="36.4,42.7 36.3,42.6 49.9,35.7 49.9,35.7   "/>
		<polygon class="st4" points="36.3,42.6 36.3,42.5 49.8,35.6 49.9,35.7   "/>
		<polygon class="st4" points="36.3,42.6 36.3,42.5 49.8,35.5 49.8,35.6   "/>
		<polygon class="st4" points="36.3,42.5 36.2,42.4 49.8,35.5 49.8,35.5   "/>
		
			<rect x="35.4" y="38.9" transform="matrix(0.8896 -0.4568 0.4568 0.8896 -13.0326 23.9327)" class="st3" width="15.2" height="0.1"/>
		
			<rect x="35.3" y="38.8" transform="matrix(0.8898 -0.4563 0.4563 0.8898 -12.9979 23.8788)" class="st3" width="15.2" height="0.1"/>
		
			<rect x="35.3" y="38.7" transform="matrix(0.8903 -0.4554 0.4554 0.8903 -12.9544 23.7983)" class="st3" width="15.2" height="0.1"/>
		<polygon class="st4" points="36.1,42.3 36.1,42.2 49.6,35.2 49.7,35.3   "/>
		
			<rect x="35.2" y="38.6" transform="matrix(0.8901 -0.4559 0.4559 0.8901 -12.9124 23.7852)" class="st3" width="15.2" height="0.1"/>
		
			<rect x="35.2" y="38.5" transform="matrix(0.8898 -0.4563 0.4563 0.8898 -12.8967 23.7917)" class="st3" width="15.2" height="0.1"/>
		
			<rect x="35.2" y="38.5" transform="matrix(0.8903 -0.4554 0.4554 0.8903 -12.8531 23.7141)" class="st3" width="15.2" height="0.1"/>
		
			<rect x="35.1" y="38.4" transform="matrix(0.8891 -0.4577 0.4577 0.8891 -12.8654 23.8341)" class="st3" width="15.2" height="0.1"/>
		
			<rect x="35.1" y="38.3" transform="matrix(0.8893 -0.4573 0.4573 0.8893 -12.8307 23.7804)" class="st3" width="15.2" height="0.1"/>
		<polygon class="st4" points="35.9,41.9 35.9,41.8 49.4,34.8 49.5,34.9   "/>
		
			<rect x="35" y="38.2" transform="matrix(0.8896 -0.4568 0.4568 0.8896 -12.7749 23.7123)" class="st3" width="15.2" height="0.1"/>
		
			<rect x="35" y="38.2" transform="matrix(0.8891 -0.4577 0.4577 0.8891 -12.7651 23.7446)" class="st3" width="15.2" height="0.1"/>
		<rect x="35" y="38.1" transform="matrix(0.8893 -0.4573 0.4573 0.8893 -12.734 23.6941)" class="st3" width="15.2" height="0.1"/>
		<polygon class="st4" points="35.8,41.6 35.8,41.5 49.3,34.6 49.4,34.7   "/>
		
			<rect x="34.9" y="38" transform="matrix(0.8909 -0.4541 0.4541 0.8909 -12.6305 23.4556)" class="st3" width="15.2" height="0.1"/>
		<polygon class="st4" points="35.7,41.5 35.7,41.4 49.2,34.4 49.3,34.5   "/>
		
			<rect x="34.8" y="37.8" transform="matrix(0.8893 -0.4573 0.4573 0.8893 -12.6281 23.6082)" class="st3" width="15.2" height="0.1"/>
		
			<rect x="34.8" y="37.8" transform="matrix(0.8898 -0.4563 0.4563 0.8898 -12.5848 23.5288)" class="st3" width="15.2" height="0.1"/>
		
			<rect x="34.8" y="37.7" transform="matrix(0.8903 -0.4554 0.4554 0.8903 -12.5491 23.447)" class="st3" width="15.2" height="0.1"/>
		
			<rect x="34.7" y="37.6" transform="matrix(0.8896 -0.4568 0.4568 0.8896 -12.5438 23.5105)" class="st3" width="15.2" height="0.1"/>
		<rect x="34.7" y="37.6" transform="matrix(0.891 -0.454 0.454 0.891 -12.4746 23.3205)" class="st3" width="15.2" height="0.1"/>
		<polygon class="st4" points="35.5,41.1 35.5,41 49,34 49.1,34.2   "/>
		
			<rect x="34.6" y="37.5" transform="matrix(0.8903 -0.4554 0.4554 0.8903 -12.449 23.3583)" class="st3" width="15.2" height="0.1"/>
		
			<rect x="34.6" y="37.4" transform="matrix(0.8896 -0.4568 0.4568 0.8896 -12.4426 23.4232)" class="st3" width="15.2" height="0.1"/>
		<polygon class="st4" points="35.4,40.9 35.4,40.8 49,33.9 49,34   "/>
		
			<rect x="34.5" y="37.3" transform="matrix(0.8891 -0.4577 0.4577 0.8891 -12.408 23.437)" class="st3" width="15.2" height="0.1"/>
		
			<rect x="34.5" y="37.2" transform="matrix(0.8905 -0.4549 0.4549 0.8905 -12.3366 23.2407)" class="st3" width="15.2" height="0.1"/>
		<polygon class="st4" points="35.3,40.7 35.3,40.6 48.8,33.7 48.9,33.8   "/>
		<polygon class="st4" points="35.3,40.7 35.3,40.5 48.8,33.6 48.9,33.7   "/>
		
			<rect x="34.4" y="37" transform="matrix(0.8891 -0.4577 0.4577 0.8891 -12.3032 23.3463)" class="st3" width="15.2" height="0.1"/>
		<polygon class="st4" points="35.3,40.5 35.2,40.4 48.8,33.5 48.8,33.6   "/>
		
			<rect x="34.4" y="36.9" transform="matrix(0.8896 -0.4568 0.4568 0.8896 -12.24 23.2513)" class="st3" width="15.2" height="0.1"/>
		<polygon class="st4" points="35.2,40.4 35.1,40.3 48.7,33.3 48.7,33.4   "/>
		<polygon class="st4" points="35.2,40.3 35.1,40.2 48.7,33.3 48.7,33.4   "/>
		
			<rect x="34.2" y="36.7" transform="matrix(0.8898 -0.4563 0.4563 0.8898 -12.1523 23.1512)" class="st3" width="15.2" height="0.1"/>
		
			<rect x="34.2" y="36.6" transform="matrix(0.8901 -0.4559 0.4559 0.8901 -12.1202 23.1062)" class="st3" width="15.2" height="0.1"/>
		
			<rect x="34.2" y="36.6" transform="matrix(0.8896 -0.4568 0.4568 0.8896 -12.1137 23.1399)" class="st3" width="15.2" height="0.1"/>
		
			<rect x="34.2" y="36.5" transform="matrix(0.8903 -0.4554 0.4554 0.8903 -12.0641 23.0326)" class="st3" width="15.2" height="0.1"/>
		<polygon class="st4" points="35,40 34.9,39.9 48.5,33 48.5,33.1   "/>
		
			<rect x="34.1" y="36.4" transform="matrix(0.8901 -0.4559 0.4559 0.8901 -12.0155 23.0162)" class="st3" width="15.2" height="0.1"/>
		
			<rect x="34.1" y="36.3" transform="matrix(0.8896 -0.4568 0.4568 0.8896 -12.0089 23.0496)" class="st3" width="15.2" height="0.1"/>
		
			<rect x="34" y="36.2" transform="matrix(0.8896 -0.4568 0.4568 0.8896 -11.9854 23.0274)" class="st3" width="15.2" height="0.1"/>
		
			<rect x="34" y="36.2" transform="matrix(0.8891 -0.4577 0.4577 0.8891 -11.9676 23.0599)" class="st3" width="15.2" height="0.1"/>
		
			<rect x="34" y="36.1" transform="matrix(0.8896 -0.4568 0.4568 0.8896 -11.9312 22.9845)" class="st3" width="15.2" height="0.1"/>
		<polygon class="st4" points="34.8,39.6 34.7,39.5 48.3,32.6 48.3,32.7   "/>
		
			<rect x="33.9" y="36" transform="matrix(0.8896 -0.4568 0.4568 0.8896 -11.8795 22.9416)" class="st3" width="15.2" height="0.1"/>
		
			<rect x="33.9" y="35.9" transform="matrix(0.8891 -0.4577 0.4577 0.8891 -11.8652 22.9769)" class="st3" width="15.2" height="0.1"/>
		
			<rect x="33.8" y="35.9" transform="matrix(0.8896 -0.4568 0.4568 0.8896 -11.8264 22.8941)" class="st3" width="15.2" height="0.1"/>
		<polygon class="st4" points="34.7,39.4 34.6,39.3 48.2,32.3 48.2,32.4   "/>
		
			<rect x="33.8" y="35.7" transform="matrix(0.8896 -0.4568 0.4568 0.8896 -11.7783 22.8544)" class="st3" width="15.2" height="0.1"/>
		<polygon class="st4" points="34.6,39.2 34.5,39.2 48.1,32.2 48.2,32.3   "/>
		<polygon class="st4" points="34.6,39.2 34.5,39.1 48.1,32.1 48.1,32.2   "/>
		
			<rect x="33.7" y="35.5" transform="matrix(0.8896 -0.4568 0.4568 0.8896 -11.697 22.7862)" class="st3" width="15.2" height="0.1"/>
		
			<rect x="33.6" y="35.5" transform="matrix(0.8903 -0.4554 0.4554 0.8903 -11.6569 22.6804)" class="st3" width="15.2" height="0.1"/>
		
			<rect x="33.6" y="35.4" transform="matrix(0.8898 -0.4563 0.4563 0.8898 -11.6457 22.7117)" class="st3" width="15.2" height="0.1"/>
		
			<rect x="33.6" y="35.3" transform="matrix(0.8896 -0.4568 0.4568 0.8896 -11.6249 22.7177)" class="st3" width="15.2" height="0.1"/>
		<polygon class="st4" points="34.4,38.9 34.3,38.8 47.9,31.8 48,31.9   "/>
		<polygon class="st4" points="34.4,38.8 34.3,38.7 47.9,31.8 47.9,31.8   "/>
		
			<rect x="33.5" y="35.2" transform="matrix(0.8891 -0.4577 0.4577 0.8891 -11.5619 22.7057)" class="st3" width="15.2" height="0.1"/>
		
			<rect x="33.4" y="35.1" transform="matrix(0.8891 -0.4577 0.4577 0.8891 -11.5373 22.688)" class="st3" width="15.2" height="0.1"/>
		
			<rect x="33.4" y="35" transform="matrix(0.8889 -0.4582 0.4582 0.8889 -11.5119 22.6926)" class="st3" width="15.2" height="0.1"/>
		
			<rect x="33.4" y="35" transform="matrix(0.8905 -0.4549 0.4549 0.8905 -11.4466 22.4737)" class="st3" width="15.2" height="0.1"/>
		<polygon class="st4" points="34.2,38.5 34.2,38.4 47.7,31.4 47.8,31.5   "/>
		
			<rect x="33.3" y="34.8" transform="matrix(0.8891 -0.4577 0.4577 0.8891 -11.4324 22.5974)" class="st3" width="15.2" height="0.1"/>
		<polygon class="st4" points="34.1,38.3 34.1,38.3 47.6,31.3 47.7,31.4   "/>
		<polygon class="st4" points="34.1,38.3 34,38.2 47.6,31.2 47.7,31.3   "/>
		
			<rect x="33.2" y="34.6" transform="matrix(0.8896 -0.4568 0.4568 0.8896 -11.3457 22.4761)" class="st3" width="15.2" height="0.1"/>
		<polygon class="st4" points="34,38.2 34,38.1 47.5,31.1 47.6,31.2   "/>
		<polygon class="st4" points="34,38.1 34,38 47.5,31 47.5,31.1   "/>
		
			<rect x="33.1" y="34.5" transform="matrix(0.8898 -0.4563 0.4563 0.8898 -11.2606 22.3849)" class="st3" width="15.2" height="0.1"/>
		<polygon class="st4" points="33.9,38 33.9,37.9 47.4,30.9 47.5,31   "/>
		
			<rect x="33" y="34.3" transform="matrix(0.8896 -0.4568 0.4568 0.8896 -11.2118 22.3671)" class="st3" width="15.2" height="0.1"/>
		
			<rect x="33" y="34.3" transform="matrix(0.8901 -0.4559 0.4559 0.8901 -11.1813 22.2904)" class="st3" width="15.2" height="0.1"/>
		<polygon class="st4" points="33.8,37.8 33.8,37.7 47.3,30.7 47.4,30.8   "/>
		<polygon class="st4" points="33.8,37.7 33.8,37.6 47.3,30.7 47.4,30.8   "/>
		
			<rect x="32.9" y="34.1" transform="matrix(0.8896 -0.4568 0.4568 0.8896 -11.1115 22.2779)" class="st3" width="15.2" height="0.1"/>
		
			<rect x="32.9" y="34" transform="matrix(0.8893 -0.4573 0.4573 0.8893 -11.0927 22.2815)" class="st3" width="15.2" height="0.1"/>
		
			<rect x="32.8" y="33.9" transform="matrix(0.8891 -0.4577 0.4577 0.8891 -11.0753 22.2897)" class="st3" width="15.2" height="0.1"/>
		
			<rect x="32.8" y="33.9" transform="matrix(0.8896 -0.4568 0.4568 0.8896 -11.0338 22.2128)" class="st3" width="15.2" height="0.1"/>
		<polygon class="st4" points="33.6,37.4 33.6,37.3 47.2,30.3 47.2,30.4   "/>
		<polygon class="st4" points="33.6,37.3 33.6,37.2 47.1,30.3 47.2,30.4   "/>
		<polygon class="st4" points="33.6,37.3 33.5,37.2 47.1,30.2 47.1,30.3   "/>
		
			<rect x="32.7" y="33.6" transform="matrix(0.8896 -0.4568 0.4568 0.8896 -10.9326 22.1256)" class="st3" width="15.2" height="0.1"/>
		<polygon class="st4" points="33.5,37.1 33.5,37 47,30.1 47.1,30.2   "/>
		
			<rect x="32.6" y="33.5" transform="matrix(0.8889 -0.4582 0.4582 0.8889 -10.8999 22.1594)" class="st3" width="15.2" height="0.1"/>
		<polygon class="st4" points="33.5,37 33.4,36.9 47,30 47,30.1   "/>
		<polygon class="st4" points="33.4,36.9 33.4,36.8 46.9,29.9 47,30   "/>
		
			<rect x="32.5" y="33.3" transform="matrix(0.8896 -0.4568 0.4568 0.8896 -10.8062 22.0141)" class="st3" width="15.2" height="0.1"/>
		
			<rect x="32.5" y="33.2" transform="matrix(0.8896 -0.4568 0.4568 0.8896 -10.7781 21.9934)" class="st3" width="15.2" height="0.1"/>
		
			<rect x="32.5" y="33.2" transform="matrix(0.8898 -0.4563 0.4563 0.8898 -10.7474 21.9459)" class="st3" width="15.2" height="0.1"/>
		
			<rect x="32.4" y="33.1" transform="matrix(0.8898 -0.4563 0.4563 0.8898 -10.727 21.9202)" class="st3" width="15.2" height="0.1"/>
		<polygon class="st4" points="33.3,36.6 33.2,36.5 46.8,29.6 46.8,29.7   "/>
		
			<rect x="32.4" y="33" transform="matrix(0.8896 -0.4568 0.4568 0.8896 -10.6768 21.9062)" class="st3" width="15.2" height="0.1"/>
		
			<rect x="32.3" y="32.9" transform="matrix(0.8891 -0.4577 0.4577 0.8891 -10.663 21.936)" class="st3" width="15.2" height="0.1"/>
		
			<rect x="32.3" y="32.9" transform="matrix(0.8891 -0.4577 0.4577 0.8891 -10.6369 21.9137)" class="st3" width="15.2" height="0.1"/>
		
			<rect x="32.3" y="32.8" transform="matrix(0.8891 -0.4577 0.4577 0.8891 -10.6134 21.8914)" class="st3" width="15.2" height="0.1"/>
		
			<rect x="32.2" y="32.7" transform="matrix(0.8889 -0.4582 0.4582 0.8889 -10.5924 21.8958)" class="st3" width="15.2" height="0.1"/>
		<polygon class="st4" points="33,36.2 33,36.2 46.6,29.2 46.6,29.3   "/>
		<polygon class="st4" points="33,36.2 33,36.1 46.5,29.1 46.6,29.2   "/>
		<polygon class="st4" points="33,36.1 32.9,36 46.5,29.1 46.5,29.2   "/>
		<polygon class="st4" points="33,36 32.9,36 46.5,29 46.5,29.1   "/>
		
			<rect x="32.1" y="32.4" transform="matrix(0.8896 -0.4568 0.4568 0.8896 -10.4503 21.7055)" class="st3" width="15.2" height="0.1"/>
		<polygon class="st4" points="32.9,35.9 32.8,35.8 46.4,28.9 46.4,29   "/>
		<polygon class="st4" points="32.8,35.9 32.8,35.8 46.4,28.8 46.4,28.9   "/>
		<rect x="32" y="32.2" transform="matrix(0.8896 -0.4568 0.4568 0.8896 -10.3695 21.644)" class="st3" width="15.2" height="0.1"/>
		<polygon class="st4" points="32.8,35.7 32.7,35.6 46.3,28.7 46.3,28.8   "/>
		
			<rect x="31.9" y="32.1" transform="matrix(0.8898 -0.4563 0.4563 0.8898 -10.3149 21.5683)" class="st3" width="15.2" height="0.1"/>
		
			<rect x="31.9" y="32" transform="matrix(0.8901 -0.4559 0.4559 0.8901 -10.2843 21.5214)" class="st3" width="15.2" height="0.1"/>
		<rect x="31.8" y="32" transform="matrix(0.891 -0.454 0.454 0.891 -10.2398 21.398)" class="st3" width="15.2" height="0.1"/>
		<polygon class="st4" points="32.7,35.5 32.6,35.4 46.2,28.4 46.2,28.5   "/>
		
			<rect x="31.8" y="31.8" transform="matrix(0.8891 -0.4577 0.4577 0.8891 -10.2281 21.563)" class="st3" width="15.2" height="0.1"/>
		
			<rect x="31.7" y="31.8" transform="matrix(0.8896 -0.4568 0.4568 0.8896 -10.1926 21.4851)" class="st3" width="15.2" height="0.1"/>
		
			<rect x="31.7" y="31.7" transform="matrix(0.8889 -0.4582 0.4582 0.8889 -10.182 21.5399)" class="st3" width="15.2" height="0.1"/>
		
			<rect x="31.7" y="31.6" transform="matrix(0.8896 -0.4568 0.4568 0.8896 -10.143 21.4407)" class="st3" width="15.2" height="0.1"/>
		
			<rect x="31.6" y="31.6" transform="matrix(0.8905 -0.4549 0.4549 0.8905 -10.0922 21.3187)" class="st3" width="15.2" height="0.1"/>
		<polygon class="st4" points="32.5,35.1 32.4,35 46,28 46,28.1   "/>
		<polygon class="st4" points="32.4,35 32.4,34.9 45.9,28 46,28.1   "/>
		
			<rect x="31.5" y="31.4" transform="matrix(0.8896 -0.4568 0.4568 0.8896 -10.0371 21.3549)" class="st3" width="15.2" height="0.1"/>
		<polygon class="st4" points="32.4,34.9 32.3,34.8 45.9,27.9 45.9,28   "/>
		<polygon class="st4" points="32.3,34.8 32.3,34.7 45.8,27.8 45.9,27.9   "/>
		<polygon class="st4" points="32.3,34.8 32.3,34.7 45.8,27.7 45.8,27.8   "/>
		<polygon class="st4" points="32.3,34.7 32.2,34.6 45.8,27.7 45.8,27.8   "/>
		
			<rect x="31.4" y="31.1" transform="matrix(0.8898 -0.4563 0.4563 0.8898 -9.9018 21.2183)" class="st3" width="15.2" height="0.1"/>
		<rect x="31.3" y="31" transform="matrix(0.8896 -0.4568 0.4568 0.8896 -9.8873 21.2213)" class="st3" width="15.2" height="0.1"/>
		
			<rect x="31.3" y="30.9" transform="matrix(0.8896 -0.4568 0.4568 0.8896 -9.8592 21.2006)" class="st3" width="15.2" height="0.1"/>
		
			<rect x="31.3" y="30.9" transform="matrix(0.8898 -0.4563 0.4563 0.8898 -9.8287 21.1544)" class="st3" width="15.2" height="0.1"/>
		<polygon class="st4" points="32.1,34.4 32,34.3 45.6,27.3 45.7,27.4   "/>
		<polygon class="st4" points="32.1,34.3 32,34.2 45.6,27.3 45.6,27.4   "/>
		
			<rect x="31.2" y="30.7" transform="matrix(0.8889 -0.4582 0.4582 0.8889 -9.7732 21.1887)" class="st3" width="15.2" height="0.1"/>
		
			<rect x="31.1" y="30.6" transform="matrix(0.8891 -0.4577 0.4577 0.8891 -9.7391 21.1394)" class="st3" width="15.2" height="0.1"/>
		
			<rect x="31.1" y="30.6" transform="matrix(0.8891 -0.4577 0.4577 0.8891 -9.7176 21.1182)" class="st3" width="15.2" height="0.1"/>
		
			<rect x="31.1" y="30.5" transform="matrix(0.8891 -0.4577 0.4577 0.8891 -9.6941 21.096)" class="st3" width="15.2" height="0.1"/>
		<polygon class="st4" points="31.9,34 31.9,33.9 45.4,27 45.5,27   "/>
		<polygon class="st4" points="31.9,33.9 31.8,33.8 45.4,26.9 45.4,27   "/>
		<polygon class="st4" points="31.8,33.9 31.8,33.8 45.3,26.8 45.4,26.9   "/>
		<polygon class="st4" points="31.8,33.8 31.8,33.7 45.3,26.8 45.4,26.9   "/>
		
			<rect x="30.9" y="30.2" transform="matrix(0.8893 -0.4573 0.4573 0.8893 -9.5577 20.964)" class="st3" width="15.2" height="0.1"/>
		
			<rect x="30.9" y="30.1" transform="matrix(0.8898 -0.4563 0.4563 0.8898 -9.521 20.8834)" class="st3" width="15.2" height="0.1"/>
		<polygon class="st4" points="31.7,33.6 31.7,33.5 45.2,26.6 45.3,26.7   "/>
		<rect x="30.8" y="30" transform="matrix(0.8896 -0.4568 0.4568 0.8896 -9.4787 20.8718)" class="st3" width="15.2" height="0.1"/>
		
			<rect x="30.8" y="29.9" transform="matrix(0.8901 -0.4559 0.4559 0.8901 -9.4378 20.7996)" class="st3" width="15.2" height="0.1"/>
		
			<rect x="30.7" y="29.9" transform="matrix(0.8898 -0.4563 0.4563 0.8898 -9.4232 20.802)" class="st3" width="15.2" height="0.1"/>
		
			<rect x="30.7" y="29.8" transform="matrix(0.8903 -0.4554 0.4554 0.8903 -9.3834 20.7254)" class="st3" width="15.2" height="0.1"/>
		
			<rect x="30.7" y="29.7" transform="matrix(0.8896 -0.4568 0.4568 0.8896 -9.3739 20.7815)" class="st3" width="15.2" height="0.1"/>
		<polygon class="st4" points="31.5,33.2 31.5,33.1 45,26.2 45.1,26.3   "/>
		<polygon class="st4" points="31.5,33.2 31.4,33.1 45,26.1 45,26.2   "/>
		
			<rect x="30.6" y="29.5" transform="matrix(0.8896 -0.4568 0.4568 0.8896 -9.2962 20.7164)" class="st3" width="15.2" height="0.1"/>
		
			<rect x="30.5" y="29.5" transform="matrix(0.8891 -0.4577 0.4577 0.8891 -9.2772 20.7411)" class="st3" width="15.2" height="0.1"/>
		
			<rect x="30.5" y="29.4" transform="matrix(0.8893 -0.4573 0.4573 0.8893 -9.2545 20.6932)" class="st3" width="15.2" height="0.1"/>
		
			<rect x="30.5" y="29.4" transform="matrix(0.8905 -0.4549 0.4549 0.8905 -9.2068 20.5528)" class="st3" width="15.2" height="0.1"/>
		<polygon class="st4" points="31.3,32.8 31.3,32.8 44.8,25.8 44.9,25.9   "/>
		<polygon class="st4" points="31.3,32.8 31.2,32.7 44.8,25.7 44.8,25.8   "/>
		
			<rect x="30.4" y="29.1" transform="matrix(0.8893 -0.4573 0.4573 0.8893 -9.1486 20.6074)" class="st3" width="15.2" height="0.1"/>
		<polygon class="st4" points="31.2,32.7 31.2,32.6 44.7,25.6 44.8,25.7   "/>
		<rect x="30.3" y="29" transform="matrix(0.8898 -0.4563 0.4563 0.8898 -9.0879 20.517)" class="st3" width="15.2" height="0.1"/>
		<polygon class="st4" points="31.1,32.5 31.1,32.4 44.7,25.5 44.7,25.6   "/>
		<polygon class="st4" points="31.1,32.5 31.1,32.4 44.6,25.4 44.7,25.5   "/>
		
			<rect x="30.2" y="28.8" transform="matrix(0.8898 -0.4563 0.4563 0.8898 -9.0147 20.4531)" class="st3" width="15.2" height="0.1"/>
		
			<rect x="30.2" y="28.8" transform="matrix(0.8898 -0.4563 0.4563 0.8898 -8.9831 20.4268)" class="st3" width="15.2" height="0.1"/>
		
			<rect x="30.2" y="28.7" transform="matrix(0.8896 -0.4568 0.4568 0.8896 -8.9684 20.4285)" class="st3" width="15.2" height="0.1"/>
		
			<rect x="30.1" y="28.6" transform="matrix(0.8896 -0.4568 0.4568 0.8896 -8.9357 20.4067)" class="st3" width="15.2" height="0.1"/>
		
			<rect x="30.1" y="28.6" transform="matrix(0.8905 -0.4549 0.4549 0.8905 -8.8962 20.2868)" class="st3" width="15.2" height="0.1"/>
		<polygon class="st4" points="30.9,32.1 30.9,32 44.4,25 44.5,25.1   "/>
		<rect x="30" y="28.4" transform="matrix(0.8891 -0.4577 0.4577 0.8891 -8.8715 20.3869)" class="st3" width="15.2" height="0.1"/>
		<rect x="30" y="28.4" transform="matrix(0.8889 -0.4582 0.4582 0.8889 -8.8491 20.3907)" class="st3" width="15.2" height="0.1"/>
		<rect x="30" y="28.3" transform="matrix(0.8896 -0.4568 0.4568 0.8896 -8.812 20.2954)" class="st3" width="15.2" height="0.1"/>
		
			<rect x="29.9" y="28.3" transform="matrix(0.8891 -0.4577 0.4577 0.8891 -8.7937 20.3216)" class="st3" width="15.2" height="0.1"/>
		<polygon class="st4" points="30.8,31.8 30.7,31.7 44.3,24.7 44.3,24.8   "/>
		<polygon class="st4" points="30.7,31.7 30.7,31.6 44.2,24.7 44.3,24.8   "/>
		
			<rect x="29.8" y="28.1" transform="matrix(0.8896 -0.4568 0.4568 0.8896 -8.7096 20.2127)" class="st3" width="15.2" height="0.1"/>
		<polygon class="st4" points="30.7,31.6 30.6,31.5 44.2,24.5 44.2,24.6   "/>
		
			<rect x="29.8" y="27.9" transform="matrix(0.8901 -0.4559 0.4559 0.8901 -8.6486 20.117)" class="st3" width="15.2" height="0.1"/>
		<rect x="29.7" y="27.9" transform="matrix(0.8896 -0.4568 0.4568 0.8896 -8.633 20.143)" class="st3" width="15.2" height="0.1"/>
		<polygon class="st4" points="30.6,31.4 30.5,31.3 44.1,24.3 44.1,24.4   "/>
		
			<rect x="29.7" y="27.7" transform="matrix(0.8898 -0.4563 0.4563 0.8898 -8.5777 20.0744)" class="st3" width="15.2" height="0.1"/>
		
			<rect x="29.6" y="27.7" transform="matrix(0.8901 -0.4559 0.4559 0.8901 -8.552 20.0312)" class="st3" width="15.2" height="0.1"/>
		
			<rect x="29.6" y="27.6" transform="matrix(0.8896 -0.4568 0.4568 0.8896 -8.5271 20.0573)" class="st3" width="15.2" height="0.1"/>
		<polygon class="st4" points="30.4,31.1 30.4,31 43.9,24.1 44,24.2   "/>
		
			<rect x="29.5" y="27.5" transform="matrix(0.8891 -0.4577 0.4577 0.8891 -8.4862 20.0585)" class="st3" width="15.2" height="0.1"/>
		<polygon class="st4" points="30.4,31 30.3,30.9 43.9,24 43.9,24   "/>
		<polygon class="st4" points="30.3,30.9 30.3,30.8 43.8,23.9 43.9,24   "/>
		
			<rect x="29.4" y="27.3" transform="matrix(0.8896 -0.4568 0.4568 0.8896 -8.4019 19.9412)" class="st3" width="15.2" height="0.1"/>
		
			<rect x="29.4" y="27.2" transform="matrix(0.8891 -0.4577 0.4577 0.8891 -8.3849 19.971)" class="st3" width="15.2" height="0.1"/>
		
			<rect x="29.4" y="27.2" transform="matrix(0.8896 -0.4568 0.4568 0.8896 -8.3502 19.8984)" class="st3" width="15.2" height="0.1"/>
		<polygon class="st4" points="30.2,30.7 30.1,30.6 43.7,23.6 43.8,23.7   "/>
		<polygon class="st4" points="30.2,30.6 30.1,30.5 43.7,23.6 43.7,23.7   "/>
		<polygon class="st4" points="30.1,30.5 30.1,30.5 43.6,23.5 43.7,23.6   "/>
		<polygon class="st4" points="30.1,30.5 30,30.4 43.6,23.4 43.7,23.5   "/>
		<polygon class="st4" points="30.1,30.4 30,30.3 43.6,23.4 43.6,23.5   "/>
		
			<rect x="29.2" y="26.8" transform="matrix(0.8898 -0.4563 0.4563 0.8898 -8.1938 19.7431)" class="st3" width="15.2" height="0.1"/>
		
			<rect x="29.1" y="26.7" transform="matrix(0.8898 -0.4563 0.4563 0.8898 -8.1692 19.7255)" class="st3" width="15.2" height="0.1"/>
		<polygon class="st4" points="30,30.2 29.9,30.1 43.5,23.2 43.5,23.3   "/>
		
			<rect x="29.1" y="26.6" transform="matrix(0.8896 -0.4568 0.4568 0.8896 -8.1227 19.6997)" class="st3" width="15.2" height="0.1"/>
		
			<rect x="29.1" y="26.5" transform="matrix(0.8898 -0.4563 0.4563 0.8898 -8.0914 19.6606)" class="st3" width="15.2" height="0.1"/>
		<rect x="29" y="26.5" transform="matrix(0.8898 -0.4563 0.4563 0.8898 -8.0644 19.6354)" class="st3" width="15.2" height="0.1"/>
		<rect x="29" y="26.4" transform="matrix(0.8896 -0.4568 0.4568 0.8896 -8.0449 19.6346)" class="st3" width="15.2" height="0.1"/>
		
			<rect x="28.9" y="26.3" transform="matrix(0.8903 -0.4554 0.4554 0.8903 -8.0082 19.5428)" class="st3" width="15.2" height="0.1"/>
		<polygon class="st4" points="29.8,29.9 29.7,29.8 43.3,22.8 43.3,22.9   "/>
		
			<rect x="28.9" y="26.2" transform="matrix(0.8891 -0.4577 0.4577 0.8891 -7.9762 19.6203)" class="st3" width="15.2" height="0.1"/>
		
			<rect x="28.8" y="26.1" transform="matrix(0.8891 -0.4577 0.4577 0.8891 -7.9465 19.5949)" class="st3" width="15.2" height="0.1"/>
		
			<rect x="28.8" y="26.1" transform="matrix(0.8893 -0.4573 0.4573 0.8893 -7.9221 19.548)" class="st3" width="15.2" height="0.1"/>
		<polygon class="st4" points="29.6,29.6 29.6,29.5 43.2,22.5 43.2,22.6   "/>
		<rect x="28.7" y="26" transform="matrix(0.8905 -0.4549 0.4549 0.8905 -7.8564 19.3897)" class="st3" width="15.2" height="0.1"/>
		<polygon class="st4" points="29.6,29.5 29.5,29.4 43.1,22.4 43.1,22.5   "/>
		<polygon class="st4" points="29.5,29.4 29.5,29.3 43,22.4 43.1,22.5   "/>
		<polygon class="st4" points="29.5,29.3 29.5,29.3 43,22.3 43.1,22.4   "/>
		
			<rect x="28.6" y="25.7" transform="matrix(0.8903 -0.4554 0.4554 0.8903 -7.7527 19.3245)" class="st3" width="15.2" height="0.1"/>
		
			<rect x="28.6" y="25.6" transform="matrix(0.8896 -0.4568 0.4568 0.8896 -7.7376 19.3724)" class="st3" width="15.2" height="0.1"/>
		
			<rect x="28.6" y="25.6" transform="matrix(0.8914 -0.4532 0.4532 0.8914 -7.6859 19.177)" class="st3" width="15.2" height="0.1"/>
		<polygon class="st4" points="29.4,29.1 29.3,29 42.9,22 42.9,22.1   "/>
		
			<rect x="28.5" y="25.4" transform="matrix(0.8903 -0.4554 0.4554 0.8903 -7.6515 19.2377)" class="st3" width="15.2" height="0.1"/>
		
			<rect x="28.5" y="25.4" transform="matrix(0.8896 -0.4568 0.4568 0.8896 -7.6363 19.2851)" class="st3" width="15.2" height="0.1"/>
		
			<rect x="28.4" y="25.3" transform="matrix(0.8901 -0.4559 0.4559 0.8901 -7.6019 19.2148)" class="st3" width="15.2" height="0.1"/>
		
			<rect x="28.4" y="25.3" transform="matrix(0.8891 -0.4577 0.4577 0.8891 -7.5951 19.2838)" class="st3" width="15.2" height="0.1"/>
		<polygon class="st4" points="29.2,28.8 29.2,28.7 42.7,21.7 42.8,21.8   "/>
		<polygon class="st4" points="29.2,28.7 29.1,28.6 42.7,21.6 42.7,21.8   "/>
		
			<rect x="27.5" y="21.9" transform="matrix(0.8898 -0.4563 0.4563 0.8898 -6.9044 18.6296)" class="st3" width="15.2" height="3.5"/>
	</g>
</g>
<g>
	<defs>
		<path id="SVGID_3_" d="M45.4,65c3.1-11.6,14.9-20.4,11.2-35.4C54.5,21.3,44.9,9.3,42.7,0c-4.3,12.1,10.6,29,1.8,44    c-0.4,0.6-0.8,1.2-1.1,1.8c-8-8.8-12.6-15.8-2.7-26.9c0.1-0.1,0.2-0.3,0.3-0.4C18.2,33.6,38.9,49.7,45.4,65z"/>
	</defs>
	<use xlink:href="#SVGID_3_" style="overflow:visible;fill:#F59E17;"/>
	<clipPath id="SVGID_4_">
		<use xlink:href="#SVGID_3_" style="overflow:visible;"/>
	</clipPath>
	<g class="st5">
		<rect x="18.3" y="64.7" class="st3" width="42.1" height="0.3"/>
		<rect x="18.3" y="64.6" class="st3" width="42.1" height="0.2"/>
		<rect x="18.3" y="64.4" class="st3" width="42.1" height="0.2"/>
		<rect x="18.3" y="64.2" class="st3" width="42.1" height="0.2"/>
		<rect x="18.3" y="64.1" class="st3" width="42.1" height="0.2"/>
		<rect x="18.3" y="63.9" class="st3" width="42.1" height="0.2"/>
		<rect x="18.3" y="63.7" class="st3" width="42.1" height="0.2"/>
		<rect x="18.3" y="63.6" class="st3" width="42.1" height="0.2"/>
		<rect x="18.3" y="63.4" class="st3" width="42.1" height="0.2"/>
		<rect x="18.3" y="63.3" class="st3" width="42.1" height="0.2"/>
		<rect x="18.3" y="63.1" class="st3" width="42.1" height="0.2"/>
		<rect x="18.3" y="62.9" class="st3" width="42.1" height="0.2"/>
		<rect x="18.3" y="62.8" class="st3" width="42.1" height="0.2"/>
		<rect x="18.3" y="62.6" class="st3" width="42.1" height="0.2"/>
		<rect x="18.3" y="62.5" class="st3" width="42.1" height="0.2"/>
		<rect x="18.3" y="62.3" class="st3" width="42.1" height="0.2"/>
		<rect x="18.3" y="62.1" class="st3" width="42.1" height="0.2"/>
		<rect x="18.3" y="62" class="st3" width="42.1" height="0.2"/>
		<rect x="18.3" y="61.8" class="st3" width="42.1" height="0.2"/>
		<rect x="18.3" y="61.6" class="st3" width="42.1" height="0.2"/>
		<rect x="18.3" y="61.5" class="st3" width="42.1" height="0.2"/>
		<rect x="18.3" y="61.3" class="st3" width="42.1" height="0.2"/>
		<rect x="18.3" y="61.2" class="st3" width="42.1" height="0.2"/>
		<rect x="18.3" y="61" class="st3" width="42.1" height="0.2"/>
		<rect x="18.3" y="60.8" class="st3" width="42.1" height="0.2"/>
		<rect x="18.3" y="60.7" class="st3" width="42.1" height="0.2"/>
		<rect x="18.3" y="60.5" class="st3" width="42.1" height="0.2"/>
		<rect x="18.3" y="60.3" class="st3" width="42.1" height="0.2"/>
		<rect x="18.3" y="60.2" class="st3" width="42.1" height="0.2"/>
		<rect x="18.3" y="60" class="st3" width="42.1" height="0.2"/>
		<rect x="18.3" y="59.9" class="st3" width="42.1" height="0.2"/>
		<rect x="18.3" y="59.7" class="st3" width="42.1" height="0.2"/>
		<rect x="18.3" y="59.5" class="st3" width="42.1" height="0.2"/>
		<rect x="18.3" y="59.4" class="st3" width="42.1" height="0.2"/>
		<rect x="18.3" y="59.2" class="st3" width="42.1" height="0.2"/>
		<rect x="18.3" y="59.1" class="st3" width="42.1" height="0.2"/>
		<rect x="18.3" y="58.9" class="st3" width="42.1" height="0.2"/>
		<rect x="18.3" y="58.7" class="st3" width="42.1" height="0.2"/>
		<rect x="18.3" y="58.6" class="st3" width="42.1" height="0.2"/>
		<rect x="18.3" y="58.4" class="st3" width="42.1" height="0.2"/>
		<rect x="18.3" y="58.3" class="st3" width="42.1" height="0.2"/>
		<rect x="18.3" y="58.1" class="st3" width="42.1" height="0.2"/>
		<rect x="18.3" y="57.9" class="st3" width="42.1" height="0.2"/>
		<rect x="18.3" y="57.8" class="st3" width="42.1" height="0.2"/>
		<rect x="18.3" y="57.6" class="st3" width="42.1" height="0.2"/>
		<rect x="18.3" y="57.5" class="st3" width="42.1" height="0.2"/>
		<rect x="18.3" y="57.3" class="st3" width="42.1" height="0.2"/>
		<rect x="18.3" y="57.1" class="st3" width="42.1" height="0.2"/>
		<rect x="18.3" y="57" class="st3" width="42.1" height="0.2"/>
		<rect x="18.3" y="56.8" class="st3" width="42.1" height="0.2"/>
		<rect x="18.3" y="56.6" class="st3" width="42.1" height="0.2"/>
		<rect x="18.3" y="56.5" class="st3" width="42.1" height="0.2"/>
		<rect x="18.3" y="56.3" class="st3" width="42.1" height="0.2"/>
		<rect x="18.3" y="56.2" class="st3" width="42.1" height="0.2"/>
		<rect x="18.3" y="56" class="st3" width="42.1" height="0.2"/>
		<rect x="18.3" y="55.8" class="st3" width="42.1" height="0.2"/>
		<rect x="18.3" y="55.7" class="st3" width="42.1" height="0.2"/>
		<rect x="18.3" y="55.5" class="st3" width="42.1" height="0.2"/>
		<rect x="18.3" y="55.3" class="st3" width="42.1" height="0.2"/>
		<rect x="18.3" y="55.2" class="st3" width="42.1" height="0.2"/>
		<rect x="18.3" y="55" class="st3" width="42.1" height="0.2"/>
		<rect x="18.3" y="54.9" class="st3" width="42.1" height="0.2"/>
		<rect x="18.3" y="54.7" class="st3" width="42.1" height="0.2"/>
		<rect x="18.3" y="54.5" class="st3" width="42.1" height="0.2"/>
		<rect x="18.3" y="54.4" class="st3" width="42.1" height="0.2"/>
		<rect x="18.3" y="54.2" class="st3" width="42.1" height="0.2"/>
		<rect x="18.3" y="54.1" class="st3" width="42.1" height="0.2"/>
		<rect x="18.3" y="53.9" class="st3" width="42.1" height="0.2"/>
		<rect x="18.3" y="53.7" class="st3" width="42.1" height="0.2"/>
		<rect x="18.3" y="53.6" class="st3" width="42.1" height="0.2"/>
		<rect x="18.3" y="53.4" class="st3" width="42.1" height="0.2"/>
		<rect x="18.3" y="53.3" class="st3" width="42.1" height="0.2"/>
		<rect x="18.3" y="53.1" class="st3" width="42.1" height="0.2"/>
		<rect x="18.3" y="52.9" class="st3" width="42.1" height="0.2"/>
		<rect x="18.3" y="52.8" class="st3" width="42.1" height="0.2"/>
		<rect x="18.3" y="52.6" class="st3" width="42.1" height="0.2"/>
		<rect x="18.3" y="52.5" class="st3" width="42.1" height="0.2"/>
		<rect x="18.3" y="52.3" class="st3" width="42.1" height="0.2"/>
		<rect x="18.3" y="52.1" class="st3" width="42.1" height="0.2"/>
		<rect x="18.3" y="52" class="st3" width="42.1" height="0.2"/>
		<rect x="18.3" y="51.8" class="st3" width="42.1" height="0.2"/>
		<rect x="18.3" y="51.6" class="st3" width="42.1" height="0.2"/>
		<rect x="18.3" y="51.5" class="st3" width="42.1" height="0.2"/>
		<rect x="18.3" y="51.3" class="st3" width="42.1" height="0.2"/>
		<rect x="18.3" y="51.2" class="st3" width="42.1" height="0.2"/>
		<rect x="18.3" y="51" class="st3" width="42.1" height="0.2"/>
		<rect x="18.3" y="50.8" class="st3" width="42.1" height="0.2"/>
		<rect x="18.3" y="50.7" class="st3" width="42.1" height="0.2"/>
		<rect x="18.3" y="50.5" class="st3" width="42.1" height="0.2"/>
		<rect x="18.3" y="50.3" class="st3" width="42.1" height="0.2"/>
		<rect x="18.3" y="50.2" class="st3" width="42.1" height="0.2"/>
		<rect x="18.3" y="50" class="st3" width="42.1" height="0.2"/>
		<rect x="18.3" y="49.9" class="st3" width="42.1" height="0.2"/>
		<rect x="18.3" y="49.7" class="st3" width="42.1" height="0.2"/>
		<rect x="18.3" y="49.5" class="st3" width="42.1" height="0.2"/>
		<rect x="18.3" y="49.4" class="st3" width="42.1" height="0.2"/>
		<rect x="18.3" y="49.2" class="st3" width="42.1" height="0.2"/>
		<rect x="18.3" y="49.1" class="st3" width="42.1" height="0.2"/>
		<rect x="18.3" y="48.9" class="st3" width="42.1" height="0.2"/>
		<rect x="18.3" y="48.7" class="st3" width="42.1" height="0.2"/>
		<rect x="18.3" y="48.6" class="st3" width="42.1" height="0.2"/>
		<rect x="18.3" y="48.4" class="st3" width="42.1" height="0.2"/>
		<rect x="18.3" y="48.3" class="st3" width="42.1" height="0.2"/>
		<rect x="18.3" y="48.1" class="st3" width="42.1" height="0.2"/>
		<rect x="18.3" y="47.9" class="st3" width="42.1" height="0.2"/>
		<rect x="18.3" y="47.8" class="st3" width="42.1" height="0.2"/>
		<rect x="18.3" y="47.6" class="st3" width="42.1" height="0.2"/>
		<rect x="18.3" y="47.5" class="st3" width="42.1" height="0.2"/>
		<rect x="18.3" y="47.3" class="st3" width="42.1" height="0.2"/>
		<rect x="18.3" y="47.1" class="st3" width="42.1" height="0.2"/>
		<rect x="18.3" y="47" class="st3" width="42.1" height="0.2"/>
		<rect x="18.3" y="46.8" class="st3" width="42.1" height="0.2"/>
		<rect x="18.3" y="46.6" class="st3" width="42.1" height="0.2"/>
		<rect x="18.3" y="46.5" class="st3" width="42.1" height="0.2"/>
		<rect x="18.3" y="46.3" class="st3" width="42.1" height="0.2"/>
		<rect x="18.3" y="46.2" class="st3" width="42.1" height="0.2"/>
		<rect x="18.3" y="46" class="st3" width="42.1" height="0.2"/>
		<rect x="18.3" y="45.8" class="st3" width="42.1" height="0.2"/>
		<rect x="18.3" y="45.7" class="st3" width="42.1" height="0.2"/>
		<rect x="18.3" y="45.5" class="st3" width="42.1" height="0.2"/>
		<rect x="18.3" y="45.3" class="st3" width="42.1" height="0.2"/>
		<rect x="18.3" y="45.2" class="st3" width="42.1" height="0.2"/>
		<rect x="18.3" y="45" class="st3" width="42.1" height="0.2"/>
		<rect x="18.3" y="44.9" class="st3" width="42.1" height="0.2"/>
		<rect x="18.3" y="44.7" class="st3" width="42.1" height="0.2"/>
		<rect x="18.3" y="44.5" class="st3" width="42.1" height="0.2"/>
		<rect x="18.3" y="44.4" class="st3" width="42.1" height="0.2"/>
		<rect x="18.3" y="44.2" class="st3" width="42.1" height="0.2"/>
		<rect x="18.3" y="44.1" class="st3" width="42.1" height="0.2"/>
		<rect x="18.3" y="43.9" class="st3" width="42.1" height="0.2"/>
		<rect x="18.3" y="43.7" class="st3" width="42.1" height="0.2"/>
		<rect x="18.3" y="43.6" class="st3" width="42.1" height="0.2"/>
		<rect x="18.3" y="43.4" class="st3" width="42.1" height="0.2"/>
		<rect x="18.3" y="43.3" class="st3" width="42.1" height="0.2"/>
		<rect x="18.3" y="43.1" class="st3" width="42.1" height="0.2"/>
		<rect x="18.3" y="42.9" class="st3" width="42.1" height="0.2"/>
		<rect x="18.3" y="42.8" class="st3" width="42.1" height="0.2"/>
		<rect x="18.3" y="42.6" class="st3" width="42.1" height="0.2"/>
		<rect x="18.3" y="42.5" class="st3" width="42.1" height="0.2"/>
		<rect x="18.3" y="42.3" class="st3" width="42.1" height="0.2"/>
		<rect x="18.3" y="42.1" class="st3" width="42.1" height="0.2"/>
		<rect x="18.3" y="42" class="st3" width="42.1" height="0.2"/>
		<rect x="18.3" y="41.8" class="st3" width="42.1" height="0.2"/>
		<rect x="18.3" y="41.6" class="st3" width="42.1" height="0.2"/>
		<rect x="18.3" y="41.5" class="st3" width="42.1" height="0.2"/>
		<rect x="18.3" y="41.3" class="st3" width="42.1" height="0.2"/>
		<rect x="18.3" y="41.2" class="st3" width="42.1" height="0.2"/>
		<rect x="18.3" y="41" class="st3" width="42.1" height="0.2"/>
		<rect x="18.3" y="40.8" class="st3" width="42.1" height="0.2"/>
		<rect x="18.3" y="40.7" class="st3" width="42.1" height="0.2"/>
		<rect x="18.3" y="40.5" class="st3" width="42.1" height="0.2"/>
		<rect x="18.3" y="40.3" class="st3" width="42.1" height="0.2"/>
		<rect x="18.3" y="40.2" class="st3" width="42.1" height="0.2"/>
		<rect x="18.3" y="40" class="st3" width="42.1" height="0.2"/>
		<rect x="18.3" y="39.9" class="st3" width="42.1" height="0.2"/>
		<rect x="18.3" y="39.7" class="st3" width="42.1" height="0.2"/>
		<rect x="18.3" y="39.5" class="st3" width="42.1" height="0.2"/>
		<rect x="18.3" y="39.4" class="st3" width="42.1" height="0.2"/>
		<rect x="18.3" y="39.2" class="st3" width="42.1" height="0.2"/>
		<rect x="18.3" y="39.1" class="st3" width="42.1" height="0.2"/>
		<rect x="18.3" y="38.9" class="st3" width="42.1" height="0.2"/>
		<rect x="18.3" y="38.7" class="st3" width="42.1" height="0.2"/>
		<rect x="18.3" y="38.6" class="st3" width="42.1" height="0.2"/>
		<rect x="18.3" y="38.4" class="st3" width="42.1" height="0.2"/>
		<rect x="18.3" y="38.3" class="st3" width="42.1" height="0.2"/>
		<rect x="18.3" y="38.1" class="st3" width="42.1" height="0.2"/>
		<rect x="18.3" y="37.9" class="st3" width="42.1" height="0.2"/>
		<rect x="18.3" y="37.8" class="st3" width="42.1" height="0.2"/>
		<rect x="18.3" y="37.6" class="st3" width="42.1" height="0.2"/>
		<rect x="18.3" y="37.5" class="st3" width="42.1" height="0.2"/>
		<rect x="18.3" y="37.3" class="st3" width="42.1" height="0.2"/>
		<rect x="18.3" y="37.1" class="st3" width="42.1" height="0.2"/>
		<rect x="18.3" y="37" class="st3" width="42.1" height="0.2"/>
		<rect x="18.3" y="36.8" class="st3" width="42.1" height="0.2"/>
		<rect x="18.3" y="36.6" class="st3" width="42.1" height="0.2"/>
		<rect x="18.3" y="36.5" class="st3" width="42.1" height="0.2"/>
		<rect x="18.3" y="36.3" class="st3" width="42.1" height="0.2"/>
		<rect x="18.3" y="36.2" class="st3" width="42.1" height="0.2"/>
		<rect x="18.3" y="36" class="st3" width="42.1" height="0.2"/>
		<rect x="18.3" y="35.8" class="st3" width="42.1" height="0.2"/>
		<rect x="18.3" y="35.7" class="st3" width="42.1" height="0.2"/>
		<rect x="18.3" y="35.5" class="st3" width="42.1" height="0.2"/>
		<rect x="18.3" y="35.3" class="st3" width="42.1" height="0.2"/>
		<rect x="18.3" y="35.2" class="st3" width="42.1" height="0.2"/>
		<rect x="18.3" y="35" class="st3" width="42.1" height="0.2"/>
		<rect x="18.3" y="34.9" class="st3" width="42.1" height="0.2"/>
		<rect x="18.3" y="34.7" class="st3" width="42.1" height="0.2"/>
		<rect x="18.3" y="34.5" class="st3" width="42.1" height="0.2"/>
		<rect x="18.3" y="34.4" class="st3" width="42.1" height="0.2"/>
		<rect x="18.3" y="34.2" class="st3" width="42.1" height="0.2"/>
		<rect x="18.3" y="34.1" class="st3" width="42.1" height="0.2"/>
		<rect x="18.3" y="33.9" class="st3" width="42.1" height="0.2"/>
		<rect x="18.3" y="33.7" class="st3" width="42.1" height="0.2"/>
		<rect x="18.3" y="33.6" class="st3" width="42.1" height="0.2"/>
		<rect x="18.3" y="33.4" class="st3" width="42.1" height="0.2"/>
		<rect x="18.3" y="33.3" class="st3" width="42.1" height="0.2"/>
		<rect x="18.3" y="33.1" class="st3" width="42.1" height="0.2"/>
		<rect x="18.3" y="32.9" class="st3" width="42.1" height="0.2"/>
		<rect x="18.3" y="32.8" class="st3" width="42.1" height="0.2"/>
		<rect x="18.3" y="32.6" class="st3" width="42.1" height="0.2"/>
		<rect x="18.3" y="32.5" class="st3" width="42.1" height="0.2"/>
		<rect x="18.3" y="32.3" class="st3" width="42.1" height="0.2"/>
		<rect x="18.3" y="32.1" class="st3" width="42.1" height="0.2"/>
		<rect x="18.3" y="32" class="st3" width="42.1" height="0.2"/>
		<rect x="18.3" y="31.8" class="st3" width="42.1" height="0.2"/>
		<rect x="18.3" y="31.6" class="st3" width="42.1" height="0.2"/>
		<rect x="18.3" y="31.5" class="st3" width="42.1" height="0.2"/>
		<rect x="18.3" y="31.3" class="st3" width="42.1" height="0.2"/>
		<rect x="18.3" y="31.2" class="st3" width="42.1" height="0.2"/>
		<rect x="18.3" y="31" class="st3" width="42.1" height="0.2"/>
		<rect x="18.3" y="30.8" class="st3" width="42.1" height="0.2"/>
		<rect x="18.3" y="30.7" class="st3" width="42.1" height="0.2"/>
		<rect x="18.3" y="30.5" class="st3" width="42.1" height="0.2"/>
		<rect x="18.3" y="30.4" class="st3" width="42.1" height="0.2"/>
		<rect x="18.3" y="30.2" class="st3" width="42.1" height="0.2"/>
		<rect x="18.3" y="30" class="st3" width="42.1" height="0.2"/>
		<rect x="18.3" y="29.9" class="st3" width="42.1" height="0.2"/>
		<rect x="18.3" y="29.7" class="st3" width="42.1" height="0.2"/>
		<rect x="18.3" y="29.5" class="st3" width="42.1" height="0.2"/>
		<rect x="18.3" y="29.4" class="st3" width="42.1" height="0.2"/>
		<rect x="18.3" y="29.2" class="st3" width="42.1" height="0.2"/>
		<rect x="18.3" y="29.1" class="st3" width="42.1" height="0.2"/>
		<rect x="18.3" y="28.9" class="st3" width="42.1" height="0.2"/>
		<rect x="18.3" y="28.7" class="st3" width="42.1" height="0.2"/>
		<rect x="18.3" y="28.6" class="st3" width="42.1" height="0.2"/>
		<rect x="18.3" y="28.4" class="st3" width="42.1" height="0.2"/>
		<rect x="18.3" y="28.3" class="st3" width="42.1" height="0.2"/>
		<rect x="18.3" y="28.1" class="st3" width="42.1" height="0.2"/>
		<rect x="18.3" y="27.9" class="st3" width="42.1" height="0.2"/>
		<rect x="18.3" y="27.8" class="st3" width="42.1" height="0.2"/>
		<rect x="18.3" y="27.6" class="st3" width="42.1" height="0.2"/>
		<rect x="18.3" y="27.5" class="st3" width="42.1" height="0.2"/>
		<rect x="18.3" y="27.3" class="st3" width="42.1" height="0.2"/>
		<rect x="18.3" y="27.1" class="st3" width="42.1" height="0.2"/>
		<rect x="18.3" y="27" class="st3" width="42.1" height="0.2"/>
		<rect x="18.3" y="26.8" class="st3" width="42.1" height="0.2"/>
		<rect x="18.3" y="26.6" class="st3" width="42.1" height="0.2"/>
		<rect x="18.3" y="26.5" class="st3" width="42.1" height="0.2"/>
		<rect x="18.3" y="26.3" class="st3" width="42.1" height="0.2"/>
		<rect x="18.3" y="26.2" class="st3" width="42.1" height="0.2"/>
		<rect x="18.3" y="26" class="st3" width="42.1" height="0.2"/>
		<rect x="18.3" y="25.8" class="st3" width="42.1" height="0.2"/>
		<rect x="18.3" y="25.7" class="st3" width="42.1" height="0.2"/>
		<rect x="18.3" y="25.5" class="st3" width="42.1" height="0.2"/>
		<rect x="18.3" y="25.4" class="st3" width="42.1" height="0.2"/>
		<rect x="18.3" y="25.2" class="st3" width="42.1" height="0.2"/>
		<rect x="18.3" y="25" class="st3" width="42.1" height="0.2"/>
		<rect x="18.3" y="24.9" class="st3" width="42.1" height="0.2"/>
		<rect x="18.3" y="24.7" class="st3" width="42.1" height="0.2"/>
		<rect x="18.3" y="24.5" class="st3" width="42.1" height="0.2"/>
		<rect x="18.3" y="24.4" class="st3" width="42.1" height="0.2"/>
		<rect x="18.3" y="24.2" class="st3" width="42.1" height="0.2"/>
		<rect x="18.3" y="24.1" class="st3" width="42.1" height="0.2"/>
		<rect x="18.3" y="23.9" class="st3" width="42.1" height="0.2"/>
		<rect x="18.3" y="23.7" class="st3" width="42.1" height="0.2"/>
		<rect x="18.3" class="st3" width="42.1" height="23.8"/>
	</g>
</g>
</svg>