<?xml version="1.0" encoding="UTF-8"?>
<!DOCTYPE svg PUBLIC "-//W3C//DTD SVG 1.1//EN" "http://www.w3.org/Graphics/SVG/1.1/DTD/svg11.dtd">
<!-- Creator: CorelDRAW 2019 (64-Bit) -->
<svg xmlns="http://www.w3.org/2000/svg" xml:space="preserve" width="793px" height="205px" version="1.1" style="shape-rendering:geometricPrecision; text-rendering:geometricPrecision; image-rendering:optimizeQuality; fill-rule:evenodd; clip-rule:evenodd"
viewBox="0 0 793 205"
 xmlns:xlink="http://www.w3.org/1999/xlink"
 xmlns:xodm="http://www.corel.com/coreldraw/odm/2003">
 <defs>
  <style type="text/css">
   <![CDATA[
    .fil0 {fill:#FF0233}
    .fil2 {fill:red;fill-rule:nonzero}
    .fil1 {fill:#FF0233;fill-rule:nonzero}
   ]]>
  </style>
 </defs>
 <g id="Слой_x0020_1">
  <metadata id="CorelCorpID_0Corel-Layer"/>
  <g id="_2877371140960">
   <circle class="fil0" cx="37.53" cy="65.95" r="26.33"/>
   <path class="fil0" d="M12.55 2.97l23.87 0c34.65,0 62.99,28.34 62.99,62.98l0 0c0,34.65 -28.34,62.99 -62.99,62.99l-23.87 0 0 -25 23.87 0c20.9,0 37.99,-17.09 37.99,-37.99l0 0c0,-20.89 -17.09,-37.99 -37.99,-37.99l-23.87 0 0 -24.99z"/>
   <path class="fil0" d="M164.67 2.97l-23.88 0c-34.64,0 -62.98,28.34 -62.98,62.98l0 0c0,34.65 28.34,62.99 62.98,62.99l23.88 0 0 -25 -23.88 0c-20.89,0 -37.98,-17.09 -37.98,-37.99l0 0c0,-20.89 17.09,-37.99 37.98,-37.99l23.88 0 0 -24.99z"/>
  </g>
  <path class="fil1" d="M179.28 130.47l0 -128.57 50.16 0c17.03,0 30.69,6.14 41,18.43 10.31,12.29 15.47,28.02 15.47,47.2 0,22.18 -6.84,39.02 -20.5,50.53 -9.95,8.27 -22.66,12.41 -38.12,12.41l-48.01 0zm26.07 -22.48l20.14 0c11.87,0 20.5,-3.45 25.89,-10.34 5.4,-6.89 8.09,-16.93 8.09,-30.12 0,-13.19 -2.84,-23.71 -8.54,-31.56 -5.69,-7.85 -13.93,-11.78 -24.72,-11.78l-20.86 0 0 83.8zm86.71 22.48l0 -92.25 24.45 0 0 92.25 -24.45 0zm0 -106.64l0 -21.93 24.45 0 0 21.93 -24.45 0zm34.2 106.64l0 -92.25 23.56 0 0 12.41 0.54 0c5.87,-9.95 14.8,-14.93 26.79,-14.93 5.75,0 10.88,1.47 15.37,4.41 4.5,2.94 7.89,6.86 10.16,11.78l0.36 0c6.72,-10.79 15.95,-16.19 27.7,-16.19 9.59,0 17.05,2.91 22.38,8.72 5.34,5.82 8,13.82 8,24.01l0 62.04 -24.45 0 0 -57.9c0,-10.55 -4.74,-15.83 -14.21,-15.83 -5.15,0 -9.2,1.83 -12.13,5.49 -2.94,3.65 -4.41,8.54 -4.41,14.65l0 53.59 -24.46 0 0 -57.9c0,-10.55 -4.73,-15.83 -14.2,-15.83 -4.92,0 -8.9,1.83 -11.96,5.49 -3.06,3.65 -4.58,8.54 -4.58,14.65l0 53.59 -24.46 0zm143.89 30.21l0 -122.46 23.56 0 0 11.51 0.54 0c6.83,-9.35 15.88,-14.03 27.15,-14.03 12.11,0 21.82,4.5 29.13,13.49 7.31,8.99 10.97,20.74 10.97,35.24 0,14.87 -3.66,26.71 -10.97,35.52 -7.31,8.81 -16.96,13.21 -28.95,13.21 -11.99,0 -20.86,-4.37 -26.61,-13.12l-0.36 0 0 40.64 -24.46 0zm46.22 -47.84c6.23,0 11.17,-2.45 14.83,-7.37 3.66,-4.91 5.49,-11.69 5.49,-20.32 0,-9.23 -1.74,-16.48 -5.22,-21.76 -3.48,-5.27 -8.81,-7.91 -16,-7.91 -7.32,0 -12.71,2.73 -16.19,8.19 -3.47,5.45 -5.21,12.61 -5.21,21.48 0,8.51 1.92,15.26 5.75,20.23 3.84,4.98 9.35,7.46 16.55,7.46zm50.74 17.63l0 -128.57 24.46 0 0 128.57 -24.46 0zm77.9 2.69c-14.87,0 -26.55,-4.58 -35.07,-13.75 -8.51,-9.17 -12.76,-20.89 -12.76,-35.16 0,-13.78 4.25,-25.32 12.76,-34.61 8.52,-9.29 19.43,-13.94 32.73,-13.94 14.51,0 25.72,5.04 33.63,15.11 7.91,10.07 11.87,23.55 11.87,40.46l-66.9 0c0.96,7.31 3.42,12.97 7.38,16.99 3.95,4.02 9.35,6.02 16.18,6.02 8.99,0 14.92,-3.77 17.8,-11.33l24.1 0c-1.8,8.64 -6.36,15.83 -13.67,21.58 -7.31,5.76 -16.66,8.63 -28.05,8.63zm-1.98 -78.58c-11.87,0 -19,6.6 -21.4,19.78l41 0c-0.36,-5.87 -2.34,-10.64 -5.93,-14.29 -3.6,-3.66 -8.15,-5.49 -13.67,-5.49zm38.52 75.89l33.62 -48.91 -30.02 -43.34 27.87 0 16.36 26.43 0.36 0 15.46 -26.43 25.36 0 -28.59 43.16 32.9 49.09 -29.13 0 -17.08 -30.57 -0.36 0 -19.96 30.57 -26.79 0z"/>
  <path class="fil1" d="M773.9 5.69c2.34,0 4.62,0.6 6.85,1.8 2.22,1.2 3.96,2.92 5.2,5.15 1.25,2.24 1.87,4.57 1.87,6.99 0,2.4 -0.61,4.71 -1.84,6.92 -1.22,2.22 -2.94,3.94 -5.15,5.16 -2.21,1.23 -4.52,1.84 -6.93,1.84 -2.41,0 -4.72,-0.61 -6.94,-1.84 -2.21,-1.22 -3.93,-2.94 -5.16,-5.16 -1.22,-2.21 -1.84,-4.52 -1.84,-6.92 0,-2.42 0.62,-4.75 1.87,-6.99 1.25,-2.23 2.99,-3.95 5.22,-5.15 2.23,-1.2 4.51,-1.8 6.85,-1.8zm0 2.31c-1.96,0 -3.87,0.5 -5.72,1.5 -1.85,1.01 -3.3,2.44 -4.35,4.31 -1.04,1.86 -1.57,3.8 -1.57,5.82 0,2.01 0.52,3.93 1.55,5.77 1.02,1.84 2.46,3.28 4.31,4.3 1.84,1.03 3.77,1.55 5.78,1.55 2,0 3.93,-0.52 5.78,-1.55 1.85,-1.02 3.28,-2.46 4.3,-4.3 1.02,-1.84 1.53,-3.76 1.53,-5.77 0,-2.02 -0.52,-3.96 -1.56,-5.82 -1.04,-1.87 -2.49,-3.3 -4.35,-4.31 -1.86,-1 -3.76,-1.5 -5.7,-1.5zm-6.12 19.32l0 -14.97 5.16 0c1.76,0 3.03,0.13 3.82,0.41 0.8,0.28 1.42,0.76 1.89,1.45 0.47,0.69 0.7,1.42 0.7,2.19 0,1.09 -0.39,2.05 -1.18,2.86 -0.78,0.81 -1.82,1.26 -3.12,1.36 0.53,0.23 0.96,0.49 1.28,0.8 0.6,0.59 1.34,1.57 2.21,2.97l1.83 2.93 -2.93 0 -1.34 -2.36c-1.05,-1.86 -1.9,-3.02 -2.54,-3.49 -0.44,-0.34 -1.08,-0.51 -1.93,-0.51l-1.43 0 0 6.36 -2.42 0zm2.42 -8.43l2.94 0c1.4,0 2.36,-0.21 2.87,-0.63 0.51,-0.41 0.77,-0.97 0.77,-1.65 0,-0.44 -0.13,-0.84 -0.37,-1.18 -0.25,-0.36 -0.59,-0.61 -1.02,-0.78 -0.44,-0.17 -1.25,-0.26 -2.43,-0.26l-2.76 0 0 4.5z"/>
  <g id="_2877371134656">
   <path class="fil2" d="M53.55 183.35c0,1.83 -0.23,3.51 -0.72,5.05 -0.47,1.52 -1.19,2.85 -2.15,3.96 -0.95,1.12 -2.14,1.98 -3.57,2.6 -1.44,0.62 -3.1,0.94 -4.99,0.94 -1.84,0 -3.45,-0.28 -4.81,-0.83 -1.37,-0.54 -2.51,-1.34 -3.42,-2.38 -0.91,-1.05 -1.59,-2.32 -2.04,-3.81 -0.45,-1.5 -0.67,-3.19 -0.67,-5.08 0,-1.83 0.24,-3.51 0.71,-5.04 0.47,-1.53 1.19,-2.86 2.14,-3.97 0.95,-1.11 2.14,-1.97 3.56,-2.59 1.43,-0.61 3.1,-0.92 5,-0.92 1.84,0 3.45,0.27 4.81,0.82 1.37,0.55 2.51,1.35 3.42,2.39 0.91,1.05 1.6,2.31 2.06,3.81 0.45,1.49 0.67,3.17 0.67,5.05zm-4.28 0.26c0,-1.21 -0.11,-2.36 -0.34,-3.44 -0.22,-1.07 -0.59,-2.02 -1.11,-2.83 -0.51,-0.82 -1.21,-1.46 -2.1,-1.93 -0.87,-0.48 -1.98,-0.72 -3.29,-0.72 -1.22,0 -2.26,0.22 -3.14,0.65 -0.87,0.43 -1.58,1.04 -2.15,1.83 -0.57,0.8 -0.99,1.73 -1.26,2.81 -0.28,1.08 -0.42,2.26 -0.42,3.53 0,1.23 0.11,2.39 0.34,3.47 0.22,1.08 0.6,2.02 1.12,2.83 0.53,0.79 1.24,1.44 2.11,1.91 0.88,0.47 1.99,0.71 3.3,0.71 1.2,0 2.24,-0.21 3.12,-0.64 0.88,-0.44 1.61,-1.04 2.18,-1.82 0.56,-0.78 0.98,-1.72 1.24,-2.8 0.27,-1.08 0.4,-2.26 0.4,-3.56zm36.03 -0.21c0,1.76 -0.26,3.38 -0.78,4.85 -0.51,1.48 -1.26,2.77 -2.27,3.87 -1,1.09 -2.24,1.97 -3.71,2.63 -1.48,0.66 -3.17,1.04 -5.07,1.15l0 7.81c0,0.14 -0.03,0.25 -0.1,0.35 -0.07,0.1 -0.17,0.19 -0.32,0.25 -0.16,0.06 -0.36,0.11 -0.63,0.15 -0.26,0.03 -0.6,0.05 -1,0.05 -0.4,0 -0.73,-0.02 -1,-0.05 -0.27,-0.04 -0.48,-0.09 -0.63,-0.15 -0.17,-0.06 -0.28,-0.15 -0.34,-0.25 -0.07,-0.1 -0.11,-0.21 -0.11,-0.35l0 -7.81c-1.94,-0.09 -3.65,-0.42 -5.13,-1.01 -1.47,-0.59 -2.71,-1.41 -3.7,-2.44 -1,-1.04 -1.74,-2.29 -2.24,-3.75 -0.5,-1.46 -0.75,-3.1 -0.75,-4.93 0,-1.75 0.26,-3.38 0.77,-4.84 0.51,-1.48 1.28,-2.77 2.28,-3.87 1,-1.1 2.24,-1.97 3.72,-2.62 1.48,-0.66 3.16,-1.04 5.05,-1.16l0 -9.43c0,-0.11 0.04,-0.22 0.11,-0.31 0.06,-0.1 0.17,-0.19 0.34,-0.26 0.15,-0.06 0.36,-0.11 0.63,-0.14 0.27,-0.04 0.6,-0.05 1,-0.05 0.4,0 0.74,0.01 1,0.05 0.27,0.03 0.47,0.08 0.63,0.14 0.15,0.07 0.25,0.16 0.32,0.26 0.07,0.09 0.1,0.2 0.1,0.31l0 9.43c1.97,0.1 3.7,0.45 5.17,1.05 1.47,0.59 2.71,1.41 3.69,2.45 0.99,1.04 1.73,2.29 2.22,3.75 0.5,1.46 0.75,3.08 0.75,4.87zm-4.28 0.29c0,-2.71 -0.59,-4.82 -1.77,-6.33 -1.18,-1.51 -3.11,-2.38 -5.78,-2.61l0 17.73c2.46,-0.15 4.33,-0.96 5.62,-2.44 1.28,-1.47 1.93,-3.6 1.93,-6.35zm-11.68 -8.94c-2.44,0.13 -4.31,0.93 -5.6,2.4 -1.29,1.47 -1.94,3.6 -1.94,6.39 0,1.31 0.14,2.49 0.41,3.55 0.27,1.05 0.71,1.96 1.32,2.72 0.6,0.75 1.38,1.36 2.34,1.81 0.96,0.46 2.12,0.74 3.47,0.86l0 -17.73zm41.46 20.09c0,0.12 -0.03,0.23 -0.1,0.33 -0.07,0.1 -0.17,0.17 -0.32,0.23 -0.15,0.06 -0.36,0.11 -0.62,0.14 -0.27,0.03 -0.6,0.05 -1,0.05 -0.4,0 -0.73,-0.02 -0.99,-0.05 -0.26,-0.03 -0.48,-0.08 -0.65,-0.14 -0.17,-0.06 -0.28,-0.13 -0.34,-0.23 -0.07,-0.11 -0.11,-0.21 -0.11,-0.33l0 -12.89c0,-0.66 0.02,-1.31 0.06,-1.99 0.03,-0.67 0.07,-1.32 0.12,-1.98 -0.38,0.67 -0.8,1.32 -1.25,1.96 -0.46,0.64 -0.92,1.28 -1.38,1.91l-9.49 12.99c-0.12,0.14 -0.22,0.25 -0.31,0.35 -0.1,0.1 -0.22,0.18 -0.35,0.24 -0.15,0.06 -0.32,0.1 -0.54,0.13 -0.22,0.02 -0.49,0.03 -0.8,0.03 -0.37,0 -0.67,-0.02 -0.9,-0.05 -0.24,-0.03 -0.43,-0.08 -0.56,-0.14 -0.15,-0.06 -0.25,-0.13 -0.31,-0.23 -0.06,-0.11 -0.08,-0.21 -0.08,-0.33l0 -22.46c0,-0.11 0.02,-0.22 0.08,-0.32 0.06,-0.1 0.17,-0.18 0.33,-0.24 0.15,-0.07 0.37,-0.12 0.64,-0.15 0.26,-0.02 0.58,-0.03 0.98,-0.03 0.79,0 1.35,0.06 1.64,0.18 0.3,0.13 0.45,0.32 0.45,0.56l0 12.98c0,0.64 -0.01,1.29 -0.05,1.92 -0.03,0.65 -0.07,1.28 -0.13,1.91 0.39,-0.63 0.78,-1.24 1.17,-1.86 0.38,-0.6 0.81,-1.19 1.25,-1.77l9.61 -13.18c0.1,-0.13 0.2,-0.24 0.31,-0.33 0.11,-0.1 0.24,-0.17 0.4,-0.23 0.15,-0.06 0.34,-0.09 0.56,-0.11 0.21,-0.03 0.49,-0.05 0.84,-0.05 0.35,0 0.64,0.02 0.88,0.05 0.25,0.02 0.44,0.06 0.58,0.13 0.14,0.07 0.24,0.15 0.3,0.25 0.06,0.1 0.08,0.21 0.08,0.35l0 22.4zm30.43 8.21c-0.02,0.18 -0.16,0.31 -0.44,0.41 -0.29,0.09 -0.71,0.13 -1.27,0.13 -0.61,0 -1.05,-0.05 -1.33,-0.15 -0.28,-0.1 -0.43,-0.23 -0.43,-0.39l0 -7.61 -18.35 0c-0.39,0 -0.71,-0.12 -0.93,-0.37 -0.23,-0.24 -0.34,-0.59 -0.34,-1.08l0 -21.58c0,-0.14 0.03,-0.25 0.08,-0.34 0.06,-0.08 0.17,-0.17 0.34,-0.25 0.15,-0.07 0.36,-0.12 0.63,-0.15 0.27,-0.02 0.6,-0.03 1.01,-0.03 0.41,0 0.75,0.01 1.01,0.03 0.28,0.03 0.48,0.08 0.63,0.15 0.16,0.08 0.26,0.17 0.33,0.25 0.06,0.09 0.1,0.2 0.1,0.34l0 19.51 10.7 0 0 -19.51c0,-0.14 0.03,-0.25 0.1,-0.34 0.07,-0.08 0.18,-0.17 0.33,-0.25 0.17,-0.07 0.38,-0.12 0.64,-0.15 0.26,-0.02 0.6,-0.03 0.99,-0.03 0.42,0 0.76,0.01 1.02,0.03 0.27,0.03 0.48,0.08 0.62,0.15 0.16,0.08 0.26,0.17 0.33,0.25 0.06,0.09 0.1,0.2 0.1,0.34l0 19.51 3.12 0c0.4,0 0.68,0.08 0.8,0.22 0.14,0.15 0.21,0.42 0.21,0.8l0 10.11zm24.15 -8.21c0,0.12 -0.03,0.23 -0.1,0.33 -0.07,0.1 -0.17,0.17 -0.32,0.23 -0.15,0.06 -0.36,0.11 -0.62,0.14 -0.27,0.03 -0.6,0.05 -1,0.05 -0.4,0 -0.73,-0.02 -0.99,-0.05 -0.26,-0.03 -0.48,-0.08 -0.65,-0.14 -0.17,-0.06 -0.28,-0.13 -0.34,-0.23 -0.07,-0.11 -0.11,-0.21 -0.11,-0.33l0 -12.89c0,-0.66 0.02,-1.31 0.06,-1.99 0.03,-0.67 0.07,-1.32 0.12,-1.98 -0.38,0.67 -0.8,1.32 -1.25,1.96 -0.46,0.64 -0.92,1.28 -1.38,1.91l-9.49 12.99c-0.12,0.14 -0.22,0.25 -0.31,0.35 -0.1,0.1 -0.22,0.18 -0.35,0.24 -0.15,0.06 -0.32,0.1 -0.54,0.13 -0.22,0.02 -0.49,0.03 -0.8,0.03 -0.37,0 -0.67,-0.02 -0.9,-0.05 -0.24,-0.03 -0.43,-0.08 -0.56,-0.14 -0.15,-0.06 -0.25,-0.13 -0.31,-0.23 -0.06,-0.11 -0.08,-0.21 -0.08,-0.33l0 -22.46c0,-0.11 0.02,-0.22 0.08,-0.32 0.06,-0.1 0.17,-0.18 0.33,-0.24 0.15,-0.07 0.37,-0.12 0.64,-0.15 0.26,-0.02 0.58,-0.03 0.98,-0.03 0.79,0 1.35,0.06 1.64,0.18 0.3,0.13 0.45,0.32 0.45,0.56l0 12.98c0,0.64 -0.01,1.29 -0.05,1.92 -0.03,0.65 -0.07,1.28 -0.13,1.91 0.39,-0.63 0.78,-1.24 1.17,-1.86 0.38,-0.6 0.81,-1.19 1.25,-1.77l9.61 -13.18c0.1,-0.13 0.2,-0.24 0.31,-0.33 0.11,-0.1 0.24,-0.17 0.4,-0.23 0.15,-0.06 0.34,-0.09 0.56,-0.11 0.21,-0.03 0.49,-0.05 0.84,-0.05 0.35,0 0.64,0.02 0.88,0.05 0.25,0.02 0.44,0.06 0.58,0.13 0.14,0.07 0.24,0.15 0.3,0.25 0.06,0.1 0.08,0.21 0.08,0.35l0 22.4zm24.21 0c0,0.2 -0.07,0.35 -0.2,0.45 -0.13,0.1 -0.31,0.17 -0.55,0.22 -0.23,0.05 -0.57,0.08 -1.02,0.08 -0.42,0 -0.77,-0.03 -1.03,-0.08 -0.25,-0.05 -0.44,-0.12 -0.56,-0.22 -0.12,-0.1 -0.17,-0.24 -0.17,-0.45l0 -2.24c-0.98,1.05 -2.07,1.86 -3.27,2.44 -1.21,0.57 -2.49,0.86 -3.83,0.86 -1.18,0 -2.25,-0.16 -3.2,-0.46 -0.95,-0.31 -1.77,-0.76 -2.44,-1.34 -0.67,-0.57 -1.19,-1.3 -1.57,-2.14 -0.37,-0.85 -0.56,-1.81 -0.56,-2.88 0,-1.27 0.26,-2.37 0.77,-3.29 0.51,-0.94 1.25,-1.71 2.22,-2.32 0.96,-0.61 2.14,-1.08 3.53,-1.39 1.4,-0.3 2.97,-0.45 4.71,-0.45l3.09 0 0 -1.75c0,-0.86 -0.09,-1.63 -0.27,-2.3 -0.19,-0.66 -0.48,-1.21 -0.88,-1.65 -0.41,-0.45 -0.94,-0.78 -1.58,-1 -0.65,-0.23 -1.45,-0.34 -2.39,-0.34 -1.01,0 -1.92,0.12 -2.72,0.37 -0.8,0.24 -1.51,0.51 -2.11,0.8 -0.61,0.3 -1.12,0.57 -1.52,0.81 -0.4,0.25 -0.71,0.37 -0.9,0.37 -0.14,0 -0.26,-0.04 -0.35,-0.1 -0.1,-0.06 -0.19,-0.17 -0.27,-0.3 -0.07,-0.13 -0.12,-0.3 -0.16,-0.5 -0.03,-0.22 -0.05,-0.44 -0.05,-0.69 0,-0.41 0.03,-0.74 0.09,-0.98 0.06,-0.24 0.2,-0.46 0.42,-0.68 0.22,-0.21 0.61,-0.46 1.16,-0.76 0.54,-0.29 1.18,-0.56 1.89,-0.81 0.71,-0.24 1.49,-0.44 2.34,-0.6 0.84,-0.16 1.7,-0.24 2.55,-0.24 1.61,0 2.98,0.18 4.11,0.54 1.13,0.37 2.03,0.91 2.73,1.62 0.7,0.7 1.2,1.58 1.51,2.62 0.32,1.05 0.48,2.27 0.48,3.66l0 15.12zm-4.08 -10.26l-3.51 0c-1.12,0 -2.09,0.09 -2.93,0.29 -0.82,0.19 -1.51,0.48 -2.06,0.85 -0.54,0.37 -0.94,0.82 -1.21,1.34 -0.25,0.53 -0.38,1.13 -0.38,1.81 0,1.16 0.37,2.09 1.11,2.78 0.73,0.69 1.76,1.04 3.1,1.04 1.07,0 2.07,-0.28 2.99,-0.83 0.91,-0.54 1.88,-1.38 2.89,-2.51l0 -4.77zm29.74 10.24c0,0.13 -0.04,0.24 -0.1,0.34 -0.07,0.08 -0.17,0.17 -0.33,0.23 -0.14,0.06 -0.35,0.12 -0.62,0.15 -0.26,0.03 -0.59,0.05 -0.99,0.05 -0.42,0 -0.76,-0.02 -1.02,-0.05 -0.26,-0.03 -0.48,-0.09 -0.64,-0.15 -0.15,-0.06 -0.26,-0.15 -0.33,-0.23 -0.07,-0.1 -0.1,-0.21 -0.1,-0.34l0 -19.56 -6.17 0c-0.26,2.63 -0.58,4.97 -0.96,7.03 -0.37,2.05 -0.79,3.85 -1.25,5.38 -0.47,1.52 -1,2.81 -1.58,3.85 -0.57,1.05 -1.21,1.89 -1.9,2.52 -0.69,0.64 -1.44,1.1 -2.25,1.38 -0.8,0.28 -1.66,0.42 -2.57,0.42 -0.16,0 -0.28,-0.02 -0.39,-0.07 -0.1,-0.05 -0.2,-0.14 -0.27,-0.27 -0.06,-0.13 -0.11,-0.32 -0.14,-0.56 -0.03,-0.24 -0.05,-0.55 -0.05,-0.93 0,-0.4 0.01,-0.72 0.03,-0.97 0.03,-0.24 0.07,-0.45 0.13,-0.59 0.06,-0.16 0.14,-0.25 0.22,-0.3 0.09,-0.05 0.2,-0.08 0.34,-0.08 0.55,0 1.07,-0.12 1.57,-0.38 0.49,-0.26 0.96,-0.69 1.39,-1.27 0.44,-0.59 0.85,-1.36 1.23,-2.31 0.37,-0.96 0.72,-2.13 1.04,-3.53 0.32,-1.39 0.61,-3.02 0.89,-4.89 0.28,-1.86 0.56,-4.01 0.8,-6.43 0.04,-0.5 0.16,-0.87 0.37,-1.11 0.2,-0.24 0.5,-0.36 0.88,-0.36l11.5 0c0.39,0 0.71,0.12 0.93,0.37 0.23,0.23 0.34,0.6 0.34,1.1l0 21.56zm25.93 -7.14c0,1.15 -0.21,2.22 -0.64,3.21 -0.42,1 -1.08,1.86 -1.98,2.59 -0.89,0.73 -2.04,1.31 -3.43,1.73 -1.4,0.42 -3.07,0.63 -5.01,0.63 -0.44,0 -0.91,0 -1.39,0 -0.49,-0.01 -0.96,-0.03 -1.42,-0.05 -0.47,-0.03 -0.92,-0.06 -1.37,-0.1 -0.45,-0.02 -0.89,-0.07 -1.32,-0.12 -0.7,-0.08 -1.21,-0.3 -1.54,-0.67 -0.33,-0.36 -0.5,-0.92 -0.5,-1.67l0 -20.82c0,-0.14 0.02,-0.25 0.08,-0.34 0.06,-0.08 0.17,-0.17 0.33,-0.25 0.16,-0.07 0.37,-0.12 0.64,-0.15 0.26,-0.02 0.59,-0.03 1,-0.03 0.4,0 0.73,0.01 1,0.03 0.27,0.03 0.48,0.08 0.63,0.15 0.16,0.08 0.27,0.17 0.34,0.25 0.07,0.09 0.1,0.2 0.1,0.34l0 7.89c0.62,-0.05 1.28,-0.09 1.99,-0.12 0.72,-0.02 1.45,-0.03 2.19,-0.03 1.81,0 3.37,0.18 4.67,0.53 1.3,0.36 2.36,0.87 3.19,1.53 0.83,0.66 1.44,1.46 1.84,2.38 0.4,0.92 0.6,1.95 0.6,3.09zm-4.33 0.28c0,-0.69 -0.11,-1.31 -0.33,-1.87 -0.21,-0.55 -0.57,-1.02 -1.07,-1.42 -0.49,-0.38 -1.14,-0.69 -1.93,-0.9 -0.8,-0.21 -1.78,-0.31 -2.93,-0.31 -0.7,0 -1.39,0.02 -2.06,0.05 -0.67,0.04 -1.28,0.08 -1.83,0.13l0 8.65c0.58,0.06 1.2,0.12 1.87,0.17 0.67,0.05 1.4,0.07 2.21,0.07 2.06,0 3.58,-0.41 4.57,-1.21 1,-0.81 1.5,-1.93 1.5,-3.36zm29 6.86c0,0.13 -0.03,0.24 -0.1,0.34 -0.07,0.08 -0.17,0.17 -0.32,0.23 -0.15,0.06 -0.36,0.12 -0.63,0.15 -0.26,0.03 -0.6,0.05 -0.99,0.05 -0.43,0 -0.77,-0.02 -1.03,-0.05 -0.27,-0.03 -0.48,-0.09 -0.63,-0.15 -0.15,-0.06 -0.26,-0.15 -0.32,-0.23 -0.07,-0.1 -0.11,-0.21 -0.11,-0.34l0 -9.83 -11.36 0 0 9.83c0,0.13 -0.03,0.24 -0.1,0.34 -0.07,0.08 -0.17,0.17 -0.32,0.23 -0.16,0.06 -0.36,0.12 -0.63,0.15 -0.27,0.03 -0.61,0.05 -1.02,0.05 -0.41,0 -0.74,-0.02 -1,-0.05 -0.28,-0.03 -0.49,-0.09 -0.64,-0.15 -0.16,-0.06 -0.27,-0.15 -0.33,-0.23 -0.06,-0.1 -0.09,-0.21 -0.09,-0.34l0 -22.41c0,-0.14 0.03,-0.25 0.09,-0.34 0.06,-0.08 0.17,-0.17 0.33,-0.25 0.15,-0.07 0.36,-0.12 0.64,-0.15 0.26,-0.02 0.59,-0.03 1,-0.03 0.41,0 0.75,0.01 1.02,0.03 0.27,0.03 0.47,0.08 0.63,0.15 0.15,0.08 0.25,0.17 0.32,0.25 0.07,0.09 0.1,0.2 0.1,0.34l0 9.11 11.36 0 0 -9.11c0,-0.14 0.04,-0.25 0.11,-0.34 0.06,-0.08 0.17,-0.17 0.32,-0.25 0.15,-0.07 0.36,-0.12 0.63,-0.15 0.26,-0.02 0.6,-0.03 1.03,-0.03 0.39,0 0.73,0.01 0.99,0.03 0.27,0.03 0.48,0.08 0.63,0.15 0.15,0.08 0.25,0.17 0.32,0.25 0.07,0.09 0.1,0.2 0.1,0.34l0 22.41zm33.7 0c0,0.13 -0.04,0.24 -0.1,0.34 -0.07,0.08 -0.17,0.17 -0.33,0.23 -0.15,0.06 -0.35,0.12 -0.63,0.15 -0.26,0.03 -0.6,0.05 -1.02,0.05 -0.4,0 -0.73,-0.02 -1,-0.05 -0.27,-0.03 -0.48,-0.09 -0.63,-0.15 -0.17,-0.06 -0.28,-0.15 -0.34,-0.23 -0.06,-0.1 -0.08,-0.21 -0.08,-0.34l0 -22.41c0,-0.14 0.02,-0.25 0.08,-0.34 0.06,-0.08 0.17,-0.17 0.34,-0.25 0.15,-0.07 0.36,-0.12 0.63,-0.15 0.27,-0.02 0.6,-0.03 1,-0.03 0.42,0 0.76,0.01 1.02,0.03 0.28,0.03 0.48,0.08 0.63,0.15 0.16,0.08 0.26,0.17 0.33,0.25 0.06,0.09 0.1,0.2 0.1,0.34l0 22.41zm-22.22 -14.52c0.61,-0.05 1.23,-0.09 1.85,-0.12 0.62,-0.02 1.29,-0.03 2.02,-0.03 1.78,0 3.29,0.18 4.55,0.53 1.26,0.36 2.3,0.87 3.12,1.53 0.82,0.66 1.42,1.46 1.8,2.38 0.38,0.92 0.57,1.95 0.57,3.09 0,1.15 -0.2,2.22 -0.61,3.21 -0.41,1 -1.05,1.86 -1.91,2.59 -0.88,0.73 -1.99,1.31 -3.35,1.73 -1.37,0.42 -3,0.63 -4.91,0.63 -0.44,0 -0.89,0 -1.34,0 -0.44,-0.01 -0.88,-0.03 -1.32,-0.05 -0.43,-0.03 -0.85,-0.06 -1.28,-0.1 -0.43,-0.02 -0.85,-0.07 -1.28,-0.12 -0.7,-0.08 -1.21,-0.3 -1.54,-0.67 -0.33,-0.36 -0.5,-0.92 -0.5,-1.67l0 -20.82c0,-0.14 0.02,-0.25 0.08,-0.34 0.06,-0.08 0.17,-0.17 0.34,-0.25 0.15,-0.07 0.36,-0.12 0.62,-0.15 0.26,-0.02 0.57,-0.03 0.96,-0.03 0.8,0 1.35,0.06 1.67,0.18 0.3,0.13 0.46,0.33 0.46,0.59l0 7.89zm9.63 7.66c0,-0.69 -0.1,-1.31 -0.32,-1.87 -0.2,-0.55 -0.54,-1.02 -1.01,-1.42 -0.47,-0.38 -1.09,-0.69 -1.87,-0.9 -0.78,-0.21 -1.74,-0.31 -2.86,-0.31 -0.68,0 -1.31,0.02 -1.88,0.05 -0.58,0.04 -1.15,0.08 -1.69,0.13l0 8.65c0.57,0.06 1.14,0.12 1.71,0.17 0.56,0.05 1.25,0.07 2.06,0.07 2.02,0 3.5,-0.41 4.44,-1.21 0.94,-0.81 1.42,-1.93 1.42,-3.36zm39.83 6.88c0,0.12 -0.04,0.23 -0.11,0.33 -0.06,0.1 -0.17,0.17 -0.32,0.23 -0.14,0.06 -0.36,0.11 -0.62,0.14 -0.26,0.03 -0.59,0.05 -0.99,0.05 -0.4,0 -0.73,-0.02 -1,-0.05 -0.26,-0.03 -0.48,-0.08 -0.64,-0.14 -0.17,-0.06 -0.28,-0.13 -0.35,-0.23 -0.07,-0.11 -0.1,-0.21 -0.1,-0.33l0 -12.89c0,-0.66 0.02,-1.31 0.05,-1.99 0.03,-0.67 0.07,-1.32 0.13,-1.98 -0.39,0.67 -0.81,1.32 -1.26,1.96 -0.46,0.64 -0.92,1.28 -1.38,1.91l-9.48 12.99c-0.12,0.14 -0.23,0.25 -0.32,0.35 -0.09,0.1 -0.21,0.18 -0.35,0.24 -0.14,0.06 -0.32,0.1 -0.54,0.13 -0.21,0.02 -0.48,0.03 -0.8,0.03 -0.36,0 -0.67,-0.02 -0.9,-0.05 -0.24,-0.03 -0.42,-0.08 -0.56,-0.14 -0.14,-0.06 -0.25,-0.13 -0.31,-0.23 -0.06,-0.11 -0.08,-0.21 -0.08,-0.33l0 -22.46c0,-0.11 0.02,-0.22 0.08,-0.32 0.06,-0.1 0.17,-0.18 0.34,-0.24 0.15,-0.07 0.36,-0.12 0.63,-0.15 0.27,-0.02 0.59,-0.03 0.98,-0.03 0.8,0 1.35,0.06 1.65,0.18 0.29,0.13 0.45,0.32 0.45,0.56l0 12.98c0,0.64 -0.02,1.29 -0.05,1.92 -0.04,0.65 -0.08,1.28 -0.13,1.91 0.38,-0.63 0.77,-1.24 1.16,-1.86 0.38,-0.6 0.81,-1.19 1.25,-1.77l9.62 -13.18c0.09,-0.13 0.19,-0.24 0.3,-0.33 0.11,-0.1 0.24,-0.17 0.4,-0.23 0.15,-0.06 0.34,-0.09 0.56,-0.11 0.21,-0.03 0.49,-0.05 0.84,-0.05 0.35,0 0.65,0.02 0.89,0.05 0.24,0.02 0.43,0.06 0.57,0.13 0.14,0.07 0.24,0.15 0.3,0.25 0.06,0.1 0.09,0.21 0.09,0.35l0 22.4zm-2.2 -33.01c0,0.95 -0.14,1.84 -0.42,2.66 -0.28,0.84 -0.73,1.57 -1.34,2.19 -0.61,0.62 -1.4,1.11 -2.37,1.47 -0.96,0.35 -2.13,0.53 -3.51,0.53 -1.27,0 -2.37,-0.16 -3.32,-0.47 -0.96,-0.32 -1.76,-0.77 -2.4,-1.36 -0.63,-0.59 -1.12,-1.3 -1.44,-2.15 -0.32,-0.85 -0.48,-1.8 -0.48,-2.87 0,-0.16 0.02,-0.31 0.08,-0.42 0.06,-0.12 0.17,-0.21 0.33,-0.28 0.15,-0.06 0.37,-0.11 0.62,-0.14 0.26,-0.04 0.57,-0.06 0.94,-0.06 0.4,0 0.72,0.02 0.95,0.06 0.24,0.05 0.41,0.11 0.53,0.19 0.13,0.09 0.21,0.2 0.26,0.33 0.04,0.13 0.06,0.29 0.06,0.47 0,0.54 0.08,1.03 0.24,1.48 0.17,0.44 0.43,0.84 0.77,1.17 0.34,0.33 0.74,0.59 1.23,0.77 0.48,0.18 1.04,0.27 1.66,0.27 0.62,0 1.17,-0.09 1.63,-0.27 0.48,-0.18 0.89,-0.44 1.22,-0.77 0.33,-0.33 0.58,-0.73 0.75,-1.2 0.16,-0.46 0.24,-0.97 0.24,-1.5 0,-0.16 0.02,-0.31 0.06,-0.43 0.04,-0.13 0.13,-0.23 0.26,-0.32 0.12,-0.08 0.29,-0.14 0.52,-0.19 0.22,-0.04 0.52,-0.06 0.9,-0.06 0.4,0 0.73,0.02 0.98,0.06 0.26,0.03 0.46,0.08 0.62,0.14 0.15,0.07 0.27,0.16 0.33,0.28 0.07,0.11 0.1,0.26 0.1,0.42zm40.98 33.01c0,0.12 -0.03,0.23 -0.1,0.33 -0.07,0.1 -0.17,0.17 -0.33,0.23 -0.14,0.06 -0.35,0.11 -0.62,0.14 -0.26,0.03 -0.59,0.05 -0.99,0.05 -0.4,0 -0.73,-0.02 -0.99,-0.05 -0.27,-0.03 -0.49,-0.08 -0.65,-0.14 -0.17,-0.06 -0.28,-0.13 -0.35,-0.23 -0.07,-0.11 -0.1,-0.21 -0.1,-0.33l0 -12.89c0,-0.66 0.02,-1.31 0.05,-1.99 0.04,-0.67 0.08,-1.32 0.13,-1.98 -0.38,0.67 -0.81,1.32 -1.26,1.96 -0.46,0.64 -0.92,1.28 -1.37,1.91l-9.49 12.99c-0.12,0.14 -0.22,0.25 -0.32,0.35 -0.09,0.1 -0.21,0.18 -0.34,0.24 -0.15,0.06 -0.33,0.1 -0.55,0.13 -0.21,0.02 -0.48,0.03 -0.8,0.03 -0.36,0 -0.67,-0.02 -0.9,-0.05 -0.23,-0.03 -0.42,-0.08 -0.56,-0.14 -0.14,-0.06 -0.24,-0.13 -0.3,-0.23 -0.06,-0.11 -0.09,-0.21 -0.09,-0.33l0 -22.46c0,-0.11 0.03,-0.22 0.09,-0.32 0.06,-0.1 0.17,-0.18 0.33,-0.24 0.15,-0.07 0.36,-0.12 0.64,-0.15 0.26,-0.02 0.58,-0.03 0.97,-0.03 0.8,0 1.35,0.06 1.65,0.18 0.3,0.13 0.45,0.32 0.45,0.56l0 12.98c0,0.64 -0.02,1.29 -0.05,1.92 -0.04,0.65 -0.08,1.28 -0.13,1.91 0.38,-0.63 0.77,-1.24 1.16,-1.86 0.39,-0.6 0.81,-1.19 1.25,-1.77l9.62 -13.18c0.09,-0.13 0.19,-0.24 0.3,-0.33 0.12,-0.1 0.24,-0.17 0.4,-0.23 0.16,-0.06 0.34,-0.09 0.56,-0.11 0.22,-0.03 0.5,-0.05 0.85,-0.05 0.34,0 0.64,0.02 0.88,0.05 0.24,0.02 0.43,0.06 0.58,0.13 0.13,0.07 0.23,0.15 0.29,0.25 0.06,0.1 0.09,0.21 0.09,0.35l0 22.4z"/>
   <path class="fil2" d="M392.53 194.82c0,0.13 -0.04,0.24 -0.1,0.34 -0.07,0.08 -0.17,0.17 -0.33,0.23 -0.15,0.06 -0.35,0.12 -0.63,0.15 -0.26,0.03 -0.59,0.05 -0.99,0.05 -0.42,0 -0.76,-0.02 -1.03,-0.05 -0.27,-0.03 -0.47,-0.09 -0.63,-0.15 -0.15,-0.06 -0.25,-0.15 -0.32,-0.23 -0.07,-0.1 -0.1,-0.21 -0.1,-0.34l0 -9.83 -11.37 0 0 9.83c0,0.13 -0.03,0.24 -0.1,0.34 -0.07,0.08 -0.17,0.17 -0.32,0.23 -0.15,0.06 -0.36,0.12 -0.63,0.15 -0.26,0.03 -0.6,0.05 -1.02,0.05 -0.41,0 -0.74,-0.02 -1,-0.05 -0.27,-0.03 -0.48,-0.09 -0.64,-0.15 -0.16,-0.06 -0.27,-0.15 -0.33,-0.23 -0.06,-0.1 -0.08,-0.21 -0.08,-0.34l0 -22.41c0,-0.14 0.02,-0.25 0.08,-0.34 0.06,-0.08 0.17,-0.17 0.33,-0.25 0.16,-0.07 0.37,-0.12 0.64,-0.15 0.26,-0.02 0.59,-0.03 1,-0.03 0.42,0 0.76,0.01 1.02,0.03 0.27,0.03 0.48,0.08 0.63,0.15 0.15,0.08 0.25,0.17 0.32,0.25 0.07,0.09 0.1,0.2 0.1,0.34l0 9.11 11.37 0 0 -9.11c0,-0.14 0.03,-0.25 0.1,-0.34 0.07,-0.08 0.17,-0.17 0.32,-0.25 0.16,-0.07 0.36,-0.12 0.63,-0.15 0.27,-0.02 0.61,-0.03 1.03,-0.03 0.4,0 0.73,0.01 0.99,0.03 0.28,0.03 0.48,0.08 0.63,0.15 0.16,0.08 0.26,0.17 0.33,0.25 0.06,0.09 0.1,0.2 0.1,0.34l0 22.41zm22.99 -21.17c0,0.33 -0.02,0.61 -0.05,0.84 -0.04,0.24 -0.09,0.43 -0.16,0.57 -0.08,0.15 -0.17,0.26 -0.26,0.34 -0.1,0.08 -0.23,0.11 -0.37,0.11l-6.7 0 0 19.31c0,0.13 -0.04,0.24 -0.1,0.34 -0.07,0.08 -0.17,0.17 -0.33,0.23 -0.15,0.06 -0.36,0.12 -0.63,0.15 -0.26,0.03 -0.6,0.05 -1.02,0.05 -0.4,0 -0.74,-0.02 -1,-0.05 -0.27,-0.03 -0.48,-0.09 -0.64,-0.15 -0.16,-0.06 -0.27,-0.15 -0.33,-0.23 -0.06,-0.1 -0.08,-0.21 -0.08,-0.34l0 -19.31 -6.7 0c-0.13,0 -0.25,-0.03 -0.36,-0.11 -0.11,-0.08 -0.2,-0.19 -0.26,-0.34 -0.06,-0.14 -0.12,-0.34 -0.16,-0.58 -0.05,-0.24 -0.06,-0.52 -0.06,-0.86 0,-0.29 0.01,-0.56 0.06,-0.79 0.04,-0.23 0.1,-0.43 0.17,-0.58 0.08,-0.16 0.17,-0.27 0.27,-0.35 0.09,-0.08 0.21,-0.11 0.34,-0.11l17.53 0c0.13,0 0.25,0.03 0.36,0.11 0.1,0.08 0.19,0.19 0.26,0.35 0.06,0.15 0.12,0.36 0.16,0.59 0.04,0.24 0.06,0.51 0.06,0.81zm22.41 8.99c0,0.64 -0.16,1.1 -0.48,1.38 -0.32,0.27 -0.7,0.41 -1.11,0.41l-14.71 0c0,1.25 0.12,2.37 0.37,3.36 0.25,1 0.66,1.86 1.25,2.58 0.58,0.71 1.33,1.25 2.26,1.64 0.93,0.38 2.07,0.57 3.41,0.57 1.06,0 2.02,-0.08 2.84,-0.26 0.83,-0.17 1.55,-0.37 2.16,-0.58 0.6,-0.21 1.1,-0.4 1.49,-0.57 0.39,-0.18 0.68,-0.27 0.88,-0.27 0.12,0 0.23,0.03 0.32,0.09 0.08,0.06 0.16,0.14 0.2,0.26 0.05,0.11 0.1,0.27 0.12,0.47 0.03,0.22 0.04,0.46 0.04,0.76 0,0.21 -0.01,0.4 -0.03,0.56 -0.02,0.15 -0.03,0.3 -0.06,0.42 -0.02,0.13 -0.07,0.24 -0.13,0.34 -0.06,0.09 -0.12,0.18 -0.22,0.28 -0.09,0.09 -0.36,0.24 -0.8,0.44 -0.45,0.21 -1.03,0.41 -1.75,0.61 -0.71,0.2 -1.53,0.38 -2.47,0.53 -0.93,0.16 -1.92,0.24 -2.99,0.24 -1.84,0 -3.45,-0.26 -4.83,-0.78 -1.38,-0.51 -2.55,-1.27 -3.49,-2.28 -0.94,-1.02 -1.66,-2.29 -2.13,-3.82 -0.49,-1.52 -0.72,-3.29 -0.72,-5.32 0,-1.92 0.24,-3.65 0.74,-5.19 0.5,-1.53 1.22,-2.84 2.15,-3.91 0.94,-1.07 2.07,-1.88 3.4,-2.46 1.32,-0.57 2.81,-0.86 4.45,-0.86 1.76,0 3.25,0.28 4.48,0.85 1.24,0.56 2.26,1.32 3.05,2.28 0.79,0.95 1.38,2.07 1.75,3.36 0.38,1.28 0.56,2.66 0.56,4.12l0 0.75zm-4.12 -1.22c0.05,-2.16 -0.43,-3.85 -1.44,-5.09 -1.01,-1.23 -2.5,-1.84 -4.48,-1.84 -1.01,0 -1.91,0.19 -2.67,0.57 -0.77,0.38 -1.4,0.89 -1.92,1.53 -0.52,0.63 -0.92,1.37 -1.2,2.2 -0.28,0.84 -0.44,1.71 -0.47,2.63l12.18 0zm30.73 1.83c0,1.96 -0.22,3.72 -0.64,5.28 -0.42,1.56 -1.04,2.88 -1.86,3.97 -0.82,1.09 -1.83,1.93 -3.04,2.51 -1.21,0.59 -2.59,0.89 -4.15,0.89 -0.66,0 -1.27,-0.07 -1.83,-0.2 -0.57,-0.14 -1.11,-0.34 -1.66,-0.63 -0.53,-0.28 -1.07,-0.64 -1.59,-1.07 -0.54,-0.42 -1.1,-0.93 -1.69,-1.51l0 11.22c0,0.14 -0.04,0.25 -0.11,0.35 -0.06,0.1 -0.17,0.19 -0.32,0.25 -0.15,0.06 -0.36,0.11 -0.63,0.15 -0.26,0.03 -0.6,0.05 -1.02,0.05 -0.41,0 -0.74,-0.02 -1,-0.05 -0.27,-0.04 -0.48,-0.09 -0.64,-0.15 -0.16,-0.06 -0.27,-0.15 -0.33,-0.25 -0.06,-0.1 -0.08,-0.21 -0.08,-0.35l0 -31.3c0,-0.15 0.02,-0.27 0.07,-0.36 0.05,-0.09 0.16,-0.17 0.3,-0.23 0.15,-0.07 0.34,-0.12 0.58,-0.15 0.23,-0.02 0.52,-0.03 0.85,-0.03 0.35,0 0.64,0.01 0.86,0.03 0.23,0.03 0.41,0.08 0.57,0.14 0.15,0.07 0.25,0.15 0.31,0.24 0.06,0.09 0.08,0.21 0.08,0.36l0 3c0.68,-0.7 1.34,-1.3 1.97,-1.82 0.62,-0.51 1.26,-0.93 1.9,-1.27 0.64,-0.34 1.29,-0.61 1.96,-0.78 0.67,-0.17 1.38,-0.26 2.12,-0.26 1.63,0 3,0.31 4.15,0.94 1.14,0.64 2.07,1.5 2.79,2.59 0.73,1.1 1.25,2.37 1.58,3.83 0.34,1.45 0.5,2.99 0.5,4.61zm-4.28 0.47c0,-1.14 -0.09,-2.26 -0.27,-3.33 -0.17,-1.07 -0.47,-2.02 -0.89,-2.85 -0.42,-0.83 -0.99,-1.49 -1.71,-1.99 -0.71,-0.51 -1.6,-0.75 -2.66,-0.75 -0.54,0 -1.06,0.07 -1.57,0.23 -0.52,0.17 -1.04,0.41 -1.58,0.75 -0.52,0.34 -1.08,0.79 -1.66,1.35 -0.58,0.56 -1.2,1.25 -1.84,2.07l0 8.91c1.13,1.38 2.2,2.44 3.21,3.17 1.02,0.73 2.08,1.1 3.19,1.1 1.03,0 1.91,-0.25 2.65,-0.75 0.74,-0.5 1.33,-1.16 1.79,-1.99 0.46,-0.84 0.79,-1.76 1.01,-2.8 0.21,-1.03 0.33,-2.07 0.33,-3.12zm29.8 11.1c0,0.13 -0.03,0.24 -0.1,0.34 -0.07,0.08 -0.17,0.17 -0.32,0.23 -0.16,0.06 -0.36,0.12 -0.63,0.15 -0.27,0.03 -0.6,0.05 -1,0.05 -0.42,0 -0.76,-0.02 -1.02,-0.05 -0.28,-0.03 -0.48,-0.09 -0.63,-0.15 -0.16,-0.06 -0.26,-0.15 -0.33,-0.23 -0.06,-0.1 -0.1,-0.21 -0.1,-0.34l0 -9.83 -11.36 0 0 9.83c0,0.13 -0.04,0.24 -0.1,0.34 -0.07,0.08 -0.17,0.17 -0.33,0.23 -0.15,0.06 -0.35,0.12 -0.63,0.15 -0.26,0.03 -0.6,0.05 -1.01,0.05 -0.41,0 -0.74,-0.02 -1.01,-0.05 -0.27,-0.03 -0.48,-0.09 -0.63,-0.15 -0.17,-0.06 -0.28,-0.15 -0.34,-0.23 -0.05,-0.1 -0.08,-0.21 -0.08,-0.34l0 -22.41c0,-0.14 0.03,-0.25 0.08,-0.34 0.06,-0.08 0.17,-0.17 0.34,-0.25 0.15,-0.07 0.36,-0.12 0.63,-0.15 0.27,-0.02 0.6,-0.03 1.01,-0.03 0.41,0 0.75,0.01 1.01,0.03 0.28,0.03 0.48,0.08 0.63,0.15 0.16,0.08 0.26,0.17 0.33,0.25 0.06,0.09 0.1,0.2 0.1,0.34l0 9.11 11.36 0 0 -9.11c0,-0.14 0.04,-0.25 0.1,-0.34 0.07,-0.08 0.17,-0.17 0.33,-0.25 0.15,-0.07 0.35,-0.12 0.63,-0.15 0.26,-0.02 0.6,-0.03 1.02,-0.03 0.4,0 0.73,0.01 1,0.03 0.27,0.03 0.47,0.08 0.63,0.15 0.15,0.08 0.25,0.17 0.32,0.25 0.07,0.09 0.1,0.2 0.1,0.34l0 22.41zm26.41 -12.18c0,0.64 -0.16,1.1 -0.49,1.38 -0.32,0.27 -0.69,0.41 -1.11,0.41l-14.71 0c0,1.25 0.13,2.37 0.37,3.36 0.25,1 0.67,1.86 1.25,2.58 0.58,0.71 1.33,1.25 2.26,1.64 0.93,0.38 2.07,0.57 3.42,0.57 1.06,0 2.01,-0.08 2.83,-0.26 0.83,-0.17 1.56,-0.37 2.16,-0.58 0.6,-0.21 1.1,-0.4 1.49,-0.57 0.4,-0.18 0.68,-0.27 0.89,-0.27 0.12,0 0.22,0.03 0.31,0.09 0.09,0.06 0.16,0.14 0.21,0.26 0.05,0.11 0.09,0.27 0.11,0.47 0.03,0.22 0.04,0.46 0.04,0.76 0,0.21 -0.01,0.4 -0.03,0.56 -0.01,0.15 -0.03,0.3 -0.06,0.42 -0.02,0.13 -0.06,0.24 -0.12,0.34 -0.06,0.09 -0.13,0.18 -0.22,0.28 -0.1,0.09 -0.37,0.24 -0.81,0.44 -0.45,0.21 -1.03,0.41 -1.74,0.61 -0.72,0.2 -1.54,0.38 -2.47,0.53 -0.94,0.16 -1.93,0.24 -2.99,0.24 -1.85,0 -3.45,-0.26 -4.84,-0.78 -1.38,-0.51 -2.55,-1.27 -3.49,-2.28 -0.94,-1.02 -1.65,-2.29 -2.13,-3.82 -0.48,-1.52 -0.72,-3.29 -0.72,-5.32 0,-1.92 0.24,-3.65 0.75,-5.19 0.49,-1.53 1.21,-2.84 2.14,-3.91 0.94,-1.07 2.08,-1.88 3.4,-2.46 1.33,-0.57 2.81,-0.86 4.45,-0.86 1.76,0 3.26,0.28 4.49,0.85 1.24,0.56 2.25,1.32 3.05,2.28 0.79,0.95 1.37,2.07 1.75,3.36 0.37,1.28 0.56,2.66 0.56,4.12l0 0.75zm-4.13 -1.22c0.05,-2.16 -0.43,-3.85 -1.44,-5.09 -1.01,-1.23 -2.49,-1.84 -4.47,-1.84 -1.02,0 -1.91,0.19 -2.68,0.57 -0.76,0.38 -1.4,0.89 -1.92,1.53 -0.52,0.63 -0.92,1.37 -1.2,2.2 -0.28,0.84 -0.44,1.71 -0.47,2.63l12.18 0zm25.59 -7.77c0,0.33 -0.02,0.61 -0.05,0.84 -0.03,0.24 -0.08,0.43 -0.16,0.57 -0.08,0.15 -0.16,0.26 -0.26,0.34 -0.1,0.08 -0.23,0.11 -0.37,0.11l-6.7 0 0 19.31c0,0.13 -0.04,0.24 -0.1,0.34 -0.07,0.08 -0.17,0.17 -0.33,0.23 -0.15,0.06 -0.35,0.12 -0.62,0.15 -0.27,0.03 -0.61,0.05 -1.02,0.05 -0.41,0 -0.74,-0.02 -1.01,-0.05 -0.27,-0.03 -0.48,-0.09 -0.63,-0.15 -0.16,-0.06 -0.28,-0.15 -0.33,-0.23 -0.06,-0.1 -0.09,-0.21 -0.09,-0.34l0 -19.31 -6.7 0c-0.13,0 -0.25,-0.03 -0.36,-0.11 -0.11,-0.08 -0.19,-0.19 -0.26,-0.34 -0.06,-0.14 -0.12,-0.34 -0.16,-0.58 -0.05,-0.24 -0.06,-0.52 -0.06,-0.86 0,-0.29 0.01,-0.56 0.06,-0.79 0.04,-0.23 0.1,-0.43 0.18,-0.58 0.07,-0.16 0.16,-0.27 0.26,-0.35 0.09,-0.08 0.21,-0.11 0.34,-0.11l17.53 0c0.13,0 0.25,0.03 0.36,0.11 0.11,0.08 0.19,0.19 0.26,0.35 0.06,0.15 0.12,0.36 0.16,0.59 0.04,0.24 0.06,0.51 0.06,0.81zm12.9 9.21c0,0.65 -0.07,1.1 -0.22,1.35 -0.15,0.24 -0.36,0.37 -0.65,0.37l-10.41 0c-0.3,0 -0.53,-0.13 -0.68,-0.38 -0.14,-0.26 -0.22,-0.7 -0.22,-1.34 0,-0.63 0.08,-1.07 0.22,-1.32 0.15,-0.25 0.38,-0.37 0.68,-0.37l10.41 0c0.13,0 0.25,0.02 0.36,0.07 0.11,0.05 0.2,0.15 0.27,0.29 0.08,0.14 0.14,0.32 0.18,0.54 0.04,0.21 0.06,0.47 0.06,0.79zm25.82 0.39c0,1.96 -0.21,3.72 -0.63,5.28 -0.42,1.56 -1.04,2.88 -1.86,3.97 -0.82,1.09 -1.84,1.93 -3.04,2.51 -1.21,0.59 -2.6,0.89 -4.15,0.89 -0.66,0 -1.27,-0.07 -1.83,-0.2 -0.57,-0.14 -1.12,-0.34 -1.66,-0.63 -0.54,-0.28 -1.07,-0.64 -1.6,-1.07 -0.53,-0.42 -1.09,-0.93 -1.69,-1.51l0 11.22c0,0.14 -0.03,0.25 -0.1,0.35 -0.07,0.1 -0.17,0.19 -0.32,0.25 -0.16,0.06 -0.36,0.11 -0.63,0.15 -0.26,0.03 -0.6,0.05 -1.02,0.05 -0.41,0 -0.74,-0.02 -1,-0.05 -0.27,-0.04 -0.49,-0.09 -0.64,-0.15 -0.16,-0.06 -0.27,-0.15 -0.33,-0.25 -0.06,-0.1 -0.09,-0.21 -0.09,-0.35l0 -31.3c0,-0.15 0.03,-0.27 0.08,-0.36 0.05,-0.09 0.15,-0.17 0.3,-0.23 0.15,-0.07 0.34,-0.12 0.58,-0.15 0.22,-0.02 0.51,-0.03 0.84,-0.03 0.35,0 0.64,0.01 0.87,0.03 0.22,0.03 0.41,0.08 0.56,0.14 0.15,0.07 0.26,0.15 0.32,0.24 0.05,0.09 0.08,0.21 0.08,0.36l0 3c0.68,-0.7 1.33,-1.3 1.96,-1.82 0.63,-0.51 1.27,-0.93 1.91,-1.27 0.63,-0.34 1.29,-0.61 1.96,-0.78 0.67,-0.17 1.37,-0.26 2.12,-0.26 1.62,0 3,0.31 4.15,0.94 1.13,0.64 2.07,1.5 2.79,2.59 0.72,1.1 1.25,2.37 1.58,3.83 0.33,1.45 0.49,2.99 0.49,4.61zm-4.28 0.47c0,-1.14 -0.08,-2.26 -0.26,-3.33 -0.17,-1.07 -0.48,-2.02 -0.89,-2.85 -0.43,-0.83 -1,-1.49 -1.71,-1.99 -0.71,-0.51 -1.61,-0.75 -2.67,-0.75 -0.53,0 -1.05,0.07 -1.57,0.23 -0.51,0.17 -1.04,0.41 -1.57,0.75 -0.53,0.34 -1.09,0.79 -1.66,1.35 -0.58,0.56 -1.2,1.25 -1.85,2.07l0 8.91c1.13,1.38 2.2,2.44 3.21,3.17 1.02,0.73 2.08,1.1 3.2,1.1 1.02,0 1.91,-0.25 2.65,-0.75 0.74,-0.5 1.33,-1.16 1.79,-1.99 0.46,-0.84 0.79,-1.76 1.01,-2.8 0.21,-1.03 0.32,-2.07 0.32,-3.12zm29.25 -1.08c0,0.64 -0.17,1.1 -0.49,1.38 -0.32,0.27 -0.69,0.41 -1.11,0.41l-14.71 0c0,1.25 0.13,2.37 0.37,3.36 0.25,1 0.66,1.86 1.25,2.58 0.58,0.71 1.33,1.25 2.26,1.64 0.93,0.38 2.07,0.57 3.41,0.57 1.07,0 2.02,-0.08 2.84,-0.26 0.83,-0.17 1.56,-0.37 2.16,-0.58 0.6,-0.21 1.1,-0.4 1.49,-0.57 0.39,-0.18 0.68,-0.27 0.89,-0.27 0.12,0 0.22,0.03 0.31,0.09 0.09,0.06 0.16,0.14 0.21,0.26 0.05,0.11 0.09,0.27 0.11,0.47 0.03,0.22 0.04,0.46 0.04,0.76 0,0.21 -0.01,0.4 -0.03,0.56 -0.01,0.15 -0.03,0.3 -0.06,0.42 -0.02,0.13 -0.06,0.24 -0.12,0.34 -0.06,0.09 -0.13,0.18 -0.23,0.28 -0.09,0.09 -0.36,0.24 -0.8,0.44 -0.45,0.21 -1.03,0.41 -1.74,0.61 -0.72,0.2 -1.54,0.38 -2.48,0.53 -0.93,0.16 -1.92,0.24 -2.98,0.24 -1.85,0 -3.45,-0.26 -4.84,-0.78 -1.38,-0.51 -2.55,-1.27 -3.49,-2.28 -0.94,-1.02 -1.66,-2.29 -2.13,-3.82 -0.49,-1.52 -0.72,-3.29 -0.72,-5.32 0,-1.92 0.24,-3.65 0.74,-5.19 0.5,-1.53 1.22,-2.84 2.15,-3.91 0.94,-1.07 2.08,-1.88 3.4,-2.46 1.33,-0.57 2.81,-0.86 4.45,-0.86 1.76,0 3.25,0.28 4.49,0.85 1.24,0.56 2.25,1.32 3.05,2.28 0.79,0.95 1.37,2.07 1.75,3.36 0.37,1.28 0.56,2.66 0.56,4.12l0 0.75zm-4.13 -1.22c0.05,-2.16 -0.43,-3.85 -1.44,-5.09 -1.01,-1.23 -2.49,-1.84 -4.47,-1.84 -1.02,0 -1.92,0.19 -2.68,0.57 -0.76,0.38 -1.4,0.89 -1.92,1.53 -0.52,0.63 -0.92,1.37 -1.2,2.2 -0.28,0.84 -0.44,1.71 -0.47,2.63l12.18 0zm26.24 9.95c0,0.28 0,0.53 -0.02,0.73 -0.02,0.21 -0.04,0.38 -0.09,0.53 -0.04,0.14 -0.09,0.26 -0.15,0.37 -0.06,0.11 -0.19,0.27 -0.4,0.48 -0.2,0.21 -0.56,0.46 -1.05,0.78 -0.5,0.3 -1.06,0.58 -1.68,0.82 -0.63,0.25 -1.3,0.44 -2.03,0.59 -0.73,0.15 -1.49,0.23 -2.27,0.23 -1.62,0 -3.04,-0.27 -4.28,-0.8 -1.25,-0.53 -2.3,-1.3 -3.13,-2.32 -0.84,-1.02 -1.48,-2.28 -1.92,-3.76 -0.44,-1.48 -0.66,-3.19 -0.66,-5.13 0,-2.2 0.27,-4.1 0.81,-5.69 0.54,-1.58 1.28,-2.88 2.21,-3.89 0.95,-1.01 2.05,-1.76 3.32,-2.25 1.27,-0.48 2.65,-0.73 4.12,-0.73 0.72,0 1.41,0.07 2.08,0.21 0.68,0.12 1.29,0.3 1.86,0.51 0.56,0.22 1.07,0.47 1.5,0.76 0.44,0.28 0.76,0.53 0.96,0.72 0.2,0.21 0.34,0.37 0.42,0.48 0.06,0.12 0.13,0.25 0.18,0.41 0.05,0.16 0.08,0.33 0.1,0.54 0.01,0.19 0.02,0.45 0.02,0.75 0,0.64 -0.07,1.09 -0.22,1.36 -0.15,0.25 -0.33,0.38 -0.55,0.38 -0.25,0 -0.54,-0.14 -0.86,-0.42 -0.32,-0.27 -0.73,-0.58 -1.23,-0.91 -0.5,-0.33 -1.1,-0.64 -1.81,-0.91 -0.7,-0.28 -1.54,-0.41 -2.5,-0.41 -1.98,0 -3.5,0.75 -4.55,2.27 -1.05,1.52 -1.58,3.72 -1.58,6.6 0,1.43 0.14,2.7 0.41,3.78 0.28,1.08 0.68,1.99 1.21,2.72 0.53,0.72 1.18,1.27 1.96,1.62 0.77,0.36 1.65,0.54 2.65,0.54 0.95,0 1.78,-0.16 2.49,-0.45 0.72,-0.3 1.33,-0.63 1.85,-1 0.53,-0.35 0.97,-0.68 1.33,-0.96 0.36,-0.3 0.63,-0.45 0.83,-0.45 0.11,0 0.22,0.04 0.3,0.11 0.09,0.06 0.15,0.17 0.21,0.33 0.06,0.16 0.1,0.35 0.13,0.6 0.03,0.24 0.03,0.53 0.03,0.86zm24.23 -8.73c0,0.64 -0.16,1.1 -0.49,1.38 -0.32,0.27 -0.69,0.41 -1.11,0.41l-14.71 0c0,1.25 0.13,2.37 0.37,3.36 0.25,1 0.67,1.86 1.25,2.58 0.58,0.71 1.34,1.25 2.26,1.64 0.94,0.38 2.07,0.57 3.42,0.57 1.06,0 2.01,-0.08 2.83,-0.26 0.83,-0.17 1.56,-0.37 2.16,-0.58 0.6,-0.21 1.1,-0.4 1.5,-0.57 0.39,-0.18 0.67,-0.27 0.88,-0.27 0.12,0 0.22,0.03 0.31,0.09 0.09,0.06 0.16,0.14 0.21,0.26 0.05,0.11 0.09,0.27 0.12,0.47 0.02,0.22 0.03,0.46 0.03,0.76 0,0.21 -0.01,0.4 -0.03,0.56 -0.01,0.15 -0.03,0.3 -0.06,0.42 -0.02,0.13 -0.06,0.24 -0.12,0.34 -0.06,0.09 -0.13,0.18 -0.22,0.28 -0.1,0.09 -0.37,0.24 -0.81,0.44 -0.45,0.21 -1.03,0.41 -1.74,0.61 -0.71,0.2 -1.54,0.38 -2.47,0.53 -0.94,0.16 -1.93,0.24 -2.99,0.24 -1.85,0 -3.45,-0.26 -4.84,-0.78 -1.38,-0.51 -2.54,-1.27 -3.49,-2.28 -0.94,-1.02 -1.65,-2.29 -2.13,-3.82 -0.48,-1.52 -0.72,-3.29 -0.72,-5.32 0,-1.92 0.24,-3.65 0.75,-5.19 0.49,-1.53 1.21,-2.84 2.15,-3.91 0.93,-1.07 2.07,-1.88 3.39,-2.46 1.33,-0.57 2.81,-0.86 4.45,-0.86 1.76,0 3.26,0.28 4.49,0.85 1.24,0.56 2.25,1.32 3.05,2.28 0.79,0.95 1.37,2.07 1.75,3.36 0.37,1.28 0.56,2.66 0.56,4.12l0 0.75zm-4.13 -1.22c0.05,-2.16 -0.43,-3.85 -1.44,-5.09 -1.01,-1.23 -2.49,-1.84 -4.47,-1.84 -1.02,0 -1.91,0.19 -2.68,0.57 -0.76,0.38 -1.4,0.89 -1.92,1.53 -0.52,0.63 -0.91,1.37 -1.19,2.2 -0.28,0.84 -0.45,1.71 -0.48,2.63l12.18 0zm27.69 13.4c0,0.13 -0.03,0.24 -0.1,0.34 -0.07,0.08 -0.17,0.17 -0.33,0.23 -0.14,0.06 -0.35,0.12 -0.62,0.15 -0.26,0.03 -0.59,0.05 -0.99,0.05 -0.41,0 -0.75,-0.02 -1.02,-0.05 -0.26,-0.03 -0.47,-0.09 -0.63,-0.15 -0.16,-0.06 -0.27,-0.15 -0.34,-0.23 -0.06,-0.1 -0.1,-0.21 -0.1,-0.34l0 -19.56 -6.16 0c-0.27,2.63 -0.59,4.97 -0.96,7.03 -0.38,2.05 -0.79,3.85 -1.26,5.38 -0.47,1.52 -1,2.81 -1.57,3.85 -0.58,1.05 -1.22,1.89 -1.91,2.52 -0.69,0.64 -1.44,1.1 -2.25,1.38 -0.79,0.28 -1.66,0.42 -2.57,0.42 -0.15,0 -0.28,-0.02 -0.39,-0.07 -0.1,-0.05 -0.2,-0.14 -0.26,-0.27 -0.06,-0.13 -0.11,-0.32 -0.15,-0.56 -0.03,-0.24 -0.05,-0.55 -0.05,-0.93 0,-0.4 0.01,-0.72 0.03,-0.97 0.03,-0.24 0.07,-0.45 0.13,-0.59 0.06,-0.16 0.14,-0.25 0.22,-0.3 0.1,-0.05 0.21,-0.08 0.34,-0.08 0.55,0 1.07,-0.12 1.57,-0.38 0.5,-0.26 0.96,-0.69 1.4,-1.27 0.43,-0.59 0.84,-1.36 1.22,-2.31 0.37,-0.96 0.72,-2.13 1.04,-3.53 0.32,-1.39 0.62,-3.02 0.9,-4.89 0.28,-1.86 0.55,-4.01 0.79,-6.43 0.04,-0.5 0.16,-0.87 0.37,-1.11 0.2,-0.24 0.5,-0.36 0.88,-0.36l11.5 0c0.39,0 0.71,0.12 0.93,0.37 0.23,0.23 0.34,0.6 0.34,1.1l0 21.56zm25.73 0c0,0.13 -0.04,0.24 -0.1,0.34 -0.07,0.08 -0.17,0.17 -0.33,0.23 -0.14,0.06 -0.36,0.12 -0.62,0.15 -0.26,0.03 -0.59,0.05 -0.99,0.05 -0.42,0 -0.76,-0.02 -1.02,-0.05 -0.26,-0.03 -0.48,-0.09 -0.64,-0.15 -0.15,-0.06 -0.26,-0.15 -0.33,-0.23 -0.07,-0.1 -0.1,-0.21 -0.1,-0.34l0 -19.56 -6.17 0c-0.26,2.63 -0.58,4.97 -0.96,7.03 -0.37,2.05 -0.79,3.85 -1.25,5.38 -0.47,1.52 -1,2.81 -1.58,3.85 -0.57,1.05 -1.21,1.89 -1.9,2.52 -0.7,0.64 -1.44,1.1 -2.25,1.38 -0.8,0.28 -1.66,0.42 -2.57,0.42 -0.16,0 -0.28,-0.02 -0.39,-0.07 -0.11,-0.05 -0.2,-0.14 -0.27,-0.27 -0.06,-0.13 -0.11,-0.32 -0.14,-0.56 -0.04,-0.24 -0.05,-0.55 -0.05,-0.93 0,-0.4 0.01,-0.72 0.03,-0.97 0.03,-0.24 0.07,-0.45 0.13,-0.59 0.06,-0.16 0.13,-0.25 0.22,-0.3 0.09,-0.05 0.2,-0.08 0.34,-0.08 0.55,0 1.07,-0.12 1.57,-0.38 0.49,-0.26 0.96,-0.69 1.39,-1.27 0.44,-0.59 0.84,-1.36 1.23,-2.31 0.37,-0.96 0.72,-2.13 1.04,-3.53 0.32,-1.39 0.61,-3.02 0.89,-4.89 0.28,-1.86 0.55,-4.01 0.8,-6.43 0.04,-0.5 0.15,-0.87 0.37,-1.11 0.2,-0.24 0.5,-0.36 0.88,-0.36l11.5 0c0.39,0 0.71,0.12 0.93,0.37 0.23,0.23 0.34,0.6 0.34,1.1l0 21.56z"/>
   <path class="fil2" d="M723.64 182.64c0,0.64 -0.17,1.1 -0.49,1.38 -0.32,0.27 -0.69,0.41 -1.11,0.41l-14.71 0c0,1.25 0.13,2.37 0.37,3.36 0.25,1 0.66,1.86 1.25,2.58 0.58,0.71 1.33,1.25 2.26,1.64 0.93,0.38 2.07,0.57 3.41,0.57 1.07,0 2.02,-0.08 2.84,-0.26 0.83,-0.17 1.56,-0.37 2.16,-0.58 0.6,-0.21 1.1,-0.4 1.49,-0.57 0.39,-0.18 0.68,-0.27 0.89,-0.27 0.12,0 0.22,0.03 0.31,0.09 0.09,0.06 0.16,0.14 0.21,0.26 0.05,0.11 0.09,0.27 0.11,0.47 0.03,0.22 0.04,0.46 0.04,0.76 0,0.21 -0.01,0.4 -0.03,0.56 -0.01,0.15 -0.03,0.3 -0.06,0.42 -0.02,0.13 -0.06,0.24 -0.12,0.34 -0.06,0.09 -0.13,0.18 -0.23,0.28 -0.09,0.09 -0.36,0.24 -0.8,0.44 -0.45,0.21 -1.03,0.41 -1.74,0.61 -0.72,0.2 -1.54,0.38 -2.48,0.53 -0.93,0.16 -1.92,0.24 -2.98,0.24 -1.85,0 -3.45,-0.26 -4.84,-0.78 -1.38,-0.51 -2.55,-1.27 -3.49,-2.28 -0.94,-1.02 -1.66,-2.29 -2.13,-3.82 -0.49,-1.52 -0.72,-3.29 -0.72,-5.32 0,-1.92 0.24,-3.65 0.74,-5.19 0.5,-1.53 1.22,-2.84 2.15,-3.91 0.94,-1.07 2.08,-1.88 3.4,-2.46 1.33,-0.57 2.81,-0.86 4.45,-0.86 1.76,0 3.25,0.28 4.49,0.85 1.24,0.56 2.25,1.32 3.05,2.28 0.79,0.95 1.37,2.07 1.75,3.36 0.37,1.28 0.56,2.66 0.56,4.12l0 0.75zm-4.13 -1.22c0.05,-2.16 -0.43,-3.85 -1.44,-5.09 -1.01,-1.23 -2.49,-1.84 -4.47,-1.84 -1.02,0 -1.92,0.19 -2.68,0.57 -0.76,0.38 -1.4,0.89 -1.92,1.53 -0.52,0.63 -0.92,1.37 -1.2,2.2 -0.28,0.84 -0.44,1.71 -0.47,2.63l12.18 0zm30.73 1.83c0,1.96 -0.21,3.72 -0.64,5.28 -0.41,1.56 -1.03,2.88 -1.86,3.97 -0.81,1.09 -1.83,1.93 -3.04,2.51 -1.21,0.59 -2.59,0.89 -4.14,0.89 -0.67,0 -1.28,-0.07 -1.84,-0.2 -0.57,-0.14 -1.11,-0.34 -1.66,-0.63 -0.53,-0.28 -1.07,-0.64 -1.59,-1.07 -0.54,-0.42 -1.1,-0.93 -1.69,-1.51l0 11.22c0,0.14 -0.04,0.25 -0.1,0.35 -0.07,0.1 -0.17,0.19 -0.33,0.25 -0.15,0.06 -0.35,0.11 -0.63,0.15 -0.26,0.03 -0.6,0.05 -1.01,0.05 -0.41,0 -0.74,-0.02 -1.01,-0.05 -0.27,-0.04 -0.48,-0.09 -0.63,-0.15 -0.17,-0.06 -0.28,-0.15 -0.34,-0.25 -0.05,-0.1 -0.08,-0.21 -0.08,-0.35l0 -31.3c0,-0.15 0.03,-0.27 0.08,-0.36 0.05,-0.09 0.15,-0.17 0.29,-0.23 0.16,-0.07 0.34,-0.12 0.58,-0.15 0.23,-0.02 0.52,-0.03 0.85,-0.03 0.35,0 0.64,0.01 0.87,0.03 0.22,0.03 0.4,0.08 0.56,0.14 0.15,0.07 0.25,0.15 0.31,0.24 0.06,0.09 0.09,0.21 0.09,0.36l0 3c0.68,-0.7 1.33,-1.3 1.96,-1.82 0.63,-0.51 1.26,-0.93 1.9,-1.27 0.64,-0.34 1.29,-0.61 1.96,-0.78 0.67,-0.17 1.38,-0.26 2.13,-0.26 1.62,0 3,0.31 4.14,0.94 1.14,0.64 2.07,1.5 2.8,2.59 0.72,1.1 1.24,2.37 1.58,3.83 0.33,1.45 0.49,2.99 0.49,4.61zm-4.28 0.47c0,-1.14 -0.09,-2.26 -0.27,-3.33 -0.17,-1.07 -0.47,-2.02 -0.89,-2.85 -0.42,-0.83 -0.99,-1.49 -1.71,-1.99 -0.71,-0.51 -1.6,-0.75 -2.66,-0.75 -0.54,0 -1.06,0.07 -1.57,0.23 -0.51,0.17 -1.04,0.41 -1.58,0.75 -0.52,0.34 -1.08,0.79 -1.66,1.35 -0.58,0.56 -1.2,1.25 -1.84,2.07l0 8.91c1.13,1.38 2.2,2.44 3.21,3.17 1.02,0.73 2.08,1.1 3.19,1.1 1.03,0 1.91,-0.25 2.65,-0.75 0.74,-0.5 1.33,-1.16 1.79,-1.99 0.46,-0.84 0.79,-1.76 1.02,-2.8 0.21,-1.03 0.32,-2.07 0.32,-3.12z"/>
  </g>
 </g>
</svg>
