<?xml version="1.0" encoding="UTF-8"?>
<!DOCTYPE svg PUBLIC "-//W3C//DTD SVG 1.1//EN" "http://www.w3.org/Graphics/SVG/1.1/DTD/svg11.dtd">
<!-- Creator: CorelDRAW 2020 (64-Bit) -->
<svg xmlns="http://www.w3.org/2000/svg" xml:space="preserve" width="143.099mm" height="47.2647mm" version="1.1" style="shape-rendering:geometricPrecision; text-rendering:geometricPrecision; image-rendering:optimizeQuality; fill-rule:evenodd; clip-rule:evenodd"
viewBox="0 0 16705.88 5517.86"
 xmlns:xlink="http://www.w3.org/1999/xlink"
 xmlns:xodm="http://www.corel.com/coreldraw/odm/2003">
 <defs>
  <style type="text/css">
   <![CDATA[
    .fil2 {fill:#C52B23}
    .fil3 {fill:#2B2A29;fill-rule:nonzero}
    .fil0 {fill:#1F1B20;fill-rule:nonzero}
    .fil1 {fill:url(#id0)}
   ]]>
  </style>
  <linearGradient id="id0" gradientUnits="userSpaceOnUse" x1="2013.88" y1="2784.02" x2="2863.32" y2="450.15">
   <stop offset="0" style="stop-opacity:1; stop-color:#FCEC39"/>
   <stop offset="0.0392157" style="stop-opacity:1; stop-color:#FDEB04"/>
   <stop offset="0.290196" style="stop-opacity:1; stop-color:#FBBB05"/>
   <stop offset="0.580392" style="stop-opacity:1; stop-color:#E32125"/>
   <stop offset="1" style="stop-opacity:1; stop-color:#C52B23"/>
  </linearGradient>
 </defs>
 <g id="Слой_x0020_1">
  <metadata id="CorelCorpID_0Corel-Layer"/>
  <path class="fil0" d="M1631.06 3970.81l279.67 -1390.76 23.17 0 508.28 877.07 479.43 -877.07 24.1 0 281.57 1390.76 -305.67 0 -114.15 -615.16 -361.49 664.61 -21.56 0 -388.11 -673.8 -118.26 624.35 -286.98 0zm-563.99 2.29l0 -535.36 -529.49 0 0 538.35 -317.72 0 0 -1356.4 317.72 0 0 538.94 248.52 0.02 -0.54 -0.58 92.34 0 -0.56 0.56 189.72 0 0 -541.92 317.72 0 0 590.37 0.65 -0.85 0 142.85 -0.65 -0.85 0 624.88 -317.72 0zm2412.14 -2.29l0 -1346.98 317.71 0 0 586.28 444.88 -586.28 382.74 0 -508 640.81 547.95 706.17 -388.11 0 -479.46 -620.55 0 620.55 -317.71 0z"/>
  <path class="fil0" d="M6503.54 2651.61l0 210.1 -257.08 0 0 -210.1 -78.99 0 0 521.58 78.99 0 0 -251.08 257.08 0 0 251.08 78.98 0 0 -521.58 -78.98 0zm169.86 323.37c0,120.06 81.98,205.68 231.01,205.68 149.04,0 230.98,-84.98 230.98,-205.68l0 -122.92c0,-120.74 -82.7,-207.91 -230.98,-207.91 -148.28,0 -231.01,87.8 -231.01,207.91l0 122.92zm81.22 -129.63c0,-89.44 59.63,-141.56 149.79,-141.56 99.1,0 149.75,57.99 149.75,141.56l0 134.86c0,90.24 -50.64,140.82 -149.75,140.82 -93.87,0 -149.79,-49.93 -149.79,-140.82l0 -134.86zm491.72 327.84l189.27 0c126.68,0 160.97,-61.1 160.97,-151.26 0,-77.47 -35.76,-116.99 -87.21,-135.62 38.75,-14.13 61.86,-51.41 61.86,-110.28 0,-89.4 -54.2,-124.41 -130.39,-124.41l-194.5 0 0 521.58zm78.99 -245.14l92.39 0c46.94,0 100.59,18.64 100.59,91.63 0,73.76 -38.56,96.12 -100.59,96.12l-92.39 0 0 -187.75zm97.62 -219.08c46.18,0 70.05,27.59 70.05,73.76 0,69.33 -39.32,87.93 -70.05,87.93l-97.62 0 0 -161.69 97.62 0zm259.19 266.01c0,120.22 81.98,205.68 231.01,205.68 149.02,0 230.97,-84.98 230.97,-205.68l0 -122.92c0,-120.74 -82.69,-207.91 -230.97,-207.91 -148.28,0 -231.01,87.65 -231.01,207.91l0 122.92zm81.22 -129.63c0,-89.44 59.63,-141.56 149.79,-141.56 99.1,0 149.75,57.83 149.75,141.56l0 134.86c0,90.41 -50.64,140.82 -149.75,140.82 -93.87,0 -149.79,-49.93 -149.79,-140.82l0 -134.86zm793.89 251.09c-37.24,11.93 -86.4,26.1 -125.16,26.1 -96.12,0 -131.87,-67.09 -131.87,-152.02l0 -115.51c0,-93.13 38.71,-152.75 131.87,-152.75 38.76,0 85.69,11.93 122.93,26.1l15.68 -55.92c-37.28,-14.88 -89.44,-28.3 -138.61,-28.3 -139.33,0 -212.38,73.48 -212.38,210.14l0 116.23c0,137.41 73.05,210.14 212.38,210.14 49.17,0 101.33,-15.66 138.61,-28.35l-13.45 -55.87zm114.35 -444.83l0 521.58 69.29 0 283.17 -409.06 0 409.06 78.99 0 0 -521.58 -69.32 0 -283.14 409.07 0 -409.07 -78.99 0zm636.69 67.82l231.72 0 0 -67.82 -310.71 0 0 521.58 193.74 0c131.91,0 160.97,-70.81 160.97,-158.69 0,-100.62 -39.88,-157.98 -160.21,-157.98l-115.51 0 0 -137.09zm96.86 199.68c62.59,0 100.57,16.4 100.57,95.39 0,78.94 -38.35,95.36 -100.57,95.36l-96.86 0 0 -190.75 96.86 0zm281.98 -267.5l0 521.58 69.29 0 283.17 -409.06 0 409.06 78.99 0 0 -521.58 -69.32 0 -283.14 409.07 0 -409.07 -78.99 0zm567.67 0l0 521.58 78.99 0 0 -179.56 90.16 0c130.4,0 190.02,-46.93 190.02,-175.85 0,-128.92 -59.95,-166.16 -190.02,-166.16l-169.15 0zm78.99 56.64l90.16 0c68.58,0 109.52,26.06 109.52,109.52 0,99.86 -52.44,119.22 -109.52,119.22l-90.16 0 0 -228.74zm683.27 388.18c-37.24,11.93 -86.41,26.1 -125.17,26.1 -96.1,0 -131.86,-67.09 -131.86,-152.02l0 -115.51c0,-93.13 38.71,-152.75 131.86,-152.75 38.76,0 85.69,11.93 122.93,26.1l15.69 -55.92c-37.28,-14.88 -89.45,-28.3 -138.62,-28.3 -139.33,0 -212.37,73.36 -212.37,210.14l0 116.23c0,137.54 73.03,210.14 212.37,210.14 49.17,0 101.35,-15.66 138.62,-28.35l-13.45 -55.87zm203.27 -444.83l-78.99 0 0 521.58 78.99 0 0 -263.78 10.41 0 222.07 263.78 92.4 0 -238.44 -282.41 236.2 -239.16 -96.15 0 -216.8 228.74 -9.69 0 0 -228.74zm736.78 521.58l83.41 0 -174.33 -521.58 -98.34 0 -175.86 521.58 83.46 0 44.7 -141.56 192.22 0 44.75 141.56zm-139.38 -450.05l78.99 246.62 -160.93 0 81.94 -246.62zm477.47 -71.53c-135.78,0 -192.25,63.35 -192.25,160.93 0,88.69 43.98,150.51 138.61,157.98l-134.14 202.67 89.44 0 122.17 -196.72 98.38 0 0 196.72 78.99 0 0 -521.58 -201.2 0zm0 268.98c-67.97,0 -109.52,-24.59 -109.52,-102.82 0,-78.99 40.23,-103.58 109.52,-103.58l122.21 0 0 206.39 -122.21 0zm-6024.33 696.67l152.04 419.52 81.93 0 152.75 -419.52 28.35 419.52 76.75 0 -43.99 -521.58 -93.11 0 -160.97 450.05 -162.44 -450.05 -92.4 0 -43.94 521.58 76.76 0 28.29 -419.52zm682.11 171.38l209.38 0 0 -58.87 -209.38 0 0 -154.22 243.66 0 0 -60.34 -322.64 0 0 521.58 322.64 0 0 -60.36 -243.66 0 0 -187.78zm304.33 -210.85l150.51 0 0 458.99 78.99 0 0 -458.99 150.51 0 0 -62.59 -380 0 0 62.59zm736.95 458.99l83.41 0 -174.33 -521.58 -98.34 0 -175.85 521.58 83.45 0 44.7 -141.58 192.22 0 44.75 141.58zm-139.38 -450.06l78.99 246.62 -160.93 0 81.94 -246.62zm383.32 -71.52c0,294.31 -25.3,459.71 -95.34,459.71 -10.46,0 -18.64,0 -23.87,-0.72l11.94 66.3c10.41,2.23 23.1,3.75 34.28,3.75 123.69,0 140.82,-259.31 143.8,-461.99l178.85 0 0 454.53 78.94 0 0 -521.58 -328.6 0zm528.64 0c0,294.31 -25.3,459.71 -95.34,459.71 -10.46,0 -18.64,0 -23.87,-0.72l11.94 66.3c10.41,2.23 23.1,3.75 34.28,3.75 123.69,0 140.82,-259.31 143.8,-461.99l178.85 0 0 454.53 78.94 0 0 -521.58 -328.6 0zm419.52 323.37c0,120.69 81.98,205.67 231.01,205.67 149.04,0 230.98,-84.98 230.98,-205.67l0 -122.93c0,-120.74 -82.7,-207.9 -230.98,-207.9 -148.28,0 -231.01,87.16 -231.01,207.9l0 122.93zm81.23 -129.63c0,-89.45 59.62,-141.58 149.78,-141.58 99.1,0 149.76,57.36 149.76,141.58l0 134.86c0,90.87 -50.66,140.8 -149.76,140.8 -93.87,0 -149.78,-49.93 -149.78,-140.8l0 -134.86zm446.33 129.63c0,120.69 81.98,205.67 231.01,205.67 149.04,0 230.97,-84.98 230.97,-205.67l0 -122.93c0,-120.74 -82.69,-207.9 -230.97,-207.9 -148.28,0 -231.01,87.16 -231.01,207.9l0 122.93zm81.22 -129.63c0,-89.45 59.63,-141.58 149.79,-141.58 99.1,0 149.75,57.36 149.75,141.58l0 134.86c0,90.87 -50.64,140.8 -149.75,140.8 -93.87,0 -149.79,-49.93 -149.79,-140.8l0 -134.86zm550.67 -125.93l231.74 0 0 -67.8 -310.71 0 0 521.58 193.72 0c131.91,0 160.97,-70.81 160.97,-158.69 0,-100.62 -39.51,-157.98 -160.21,-157.98l-115.51 0 0 -137.1zm96.87 199.69c62.57,0 100.57,16.4 100.57,95.39 0,78.94 -38,95.34 -100.57,95.34l-96.87 0 0 -190.74 96.87 0zm271.95 -267.5l0 521.58 78.99 0 0 -179.56 90.16 0c130.39,0 190.02,-46.94 190.02,-175.86 0,-128.91 -59.63,-166.15 -190.02,-166.15l-169.15 0zm78.99 56.63l90.16 0c68.58,0 109.52,26.07 109.52,109.52 0,99.86 -52.13,119.22 -109.52,119.22l-90.16 0 0 -228.74zm637.12 464.94l83.43 0 -174.35 -521.58 -98.33 0 -175.86 521.58 83.46 0 44.7 -141.58 192.22 0 44.74 141.58zm-139.37 -450.06l78.99 246.62 -160.93 0 81.94 -246.62zm378.53 -3.71l231.72 0 0 -67.8 -310.71 0 0 521.58 193.74 0c131.91,0 160.97,-70.81 160.97,-158.69 0,-100.62 -39.52,-157.98 -160.21,-157.98l-115.51 0 0 -137.1zm96.86 199.69c62.59,0 100.59,16.4 100.59,95.39 0,78.94 -38,95.34 -100.59,95.34l-96.86 0 0 -190.74 96.86 0zm597.61 254.08l83.41 0 -174.33 -521.58 -98.34 0 -175.85 521.58 83.45 0 44.71 -141.58 192.21 0 44.75 141.58zm-139.38 -450.06l78.99 246.62 -160.92 0 81.93 -246.62zm214.61 -8.93l150.52 0 0 458.99 78.98 0 0 -458.99 150.52 0 0 -62.59 -380.01 0 0 62.59zm885.22 458.99l78.94 0 0 -521.58 -78.94 0 0 521.58zm-260.07 0l-169.15 0 0 -521.58 78.99 0 0 204.91c38.76,-5.99 74.52,-8.22 107.29,-8.22 122.97,0 172.9,55.15 172.9,163.2 0,112.52 -54.4,161.69 -190.02,161.69zm0 -269.74c-29.82,0 -58.87,2.24 -90.16,6.71l0 209.38 90.16 0c68.56,0 109.52,-22.36 109.52,-108.05 0,-85.69 -41.71,-108.05 -109.52,-108.05zm455.28 269.74l189.27 0c126.68,0 160.97,-61.1 160.97,-151.28 0,-77.46 -35.76,-116.98 -87.21,-135.62 38.76,-14.13 61.86,-51.4 61.86,-110.28 0,-89.4 -53.64,-124.4 -130.39,-124.4l-194.5 0 0 521.58zm78.99 -245.15l92.39 0c46.94,0 100.59,18.64 100.59,91.64 0,73.76 -38,96.1 -100.59,96.1l-92.39 0 0 -187.75zm97.62 -219.07c46.18,0 70.05,27.57 70.05,73.76 0,69.32 -38.75,87.92 -70.05,87.92l-97.62 0 0 -161.68 97.62 0zm585.24 464.22l83.41 0 -174.33 -521.58 -98.34 0 -175.85 521.58 83.46 0 44.7 -141.58 192.22 0 44.74 141.58zm-139.37 -450.06l78.99 246.62 -160.93 0 81.94 -246.62zm465.69 273.45c0,113.23 71.56,184.07 204.91,184.07 134.15,0 205.67,-70.81 205.67,-193.01l0 -145.29c0,-122.21 -71.52,-198.2 -205.67,-198.2 -133.34,0 -204.91,76.02 -204.91,187.02l0 42.47 -87.16 0 0 -222.04 -78.99 0 0 521.58 78.99 0 0 -245.91 87.16 0 0 69.3zm78.27 -166.16c0,-73 47.67,-128.16 126.64,-128.16 82.74,0 127.45,55.21 127.45,128.16l0 163.92c0,73 -44.71,128.2 -127.45,128.2 -81.93,0 -126.64,-55.16 -126.64,-128.2l0 -163.92zm679.08 -178.8l0 461.22 -166.92 0 0 -461.22 -78.98 0 0 521.58 551.38 0 -9.97 132.62 72.28 0 16.68 -192.98 -59.59 0 0 -461.22 -78.99 0 0 461.22 -166.91 0 0 -461.22 -78.99 0zm811.02 521.58l83.41 0 -174.33 -521.58 -98.34 0 -175.85 521.58 83.45 0 44.7 -141.58 192.22 0 44.75 141.58zm-139.38 -450.06l78.99 246.62 -160.92 0 81.93 -246.62zm467.5 -71.52c-136.18,0 -192.27,63.33 -192.27,160.92 0,88.69 43.99,150.52 138.62,157.98l-134.15 202.68 89.45 0 122.17 -196.74 98.38 0 0 196.74 78.99 0 0 -521.58 -201.2 0zm0 268.97c-68.38,0 -109.52,-24.59 -109.52,-102.82 0,-78.98 40.23,-103.56 109.52,-103.56l122.21 0 0 206.38 -122.21 0zm-10264.45 594.61l-78.99 0 0 521.58 78.99 0 0 -263.78 10.41 0 222.07 263.78 92.4 0 -238.44 -282.41 236.2 -239.16 -96.14 0 -216.8 228.74 -9.7 0 0 -228.74zm346.04 323.37c0,120.02 81.98,205.67 231.01,205.67 149.04,0 230.97,-84.97 230.97,-205.67l0 -122.92c0,-120.74 -82.69,-207.91 -230.97,-207.91 -148.28,0 -231.01,87.85 -231.01,207.91l0 122.92zm81.22 -129.63c0,-89.44 59.63,-141.56 149.79,-141.56 99.1,0 149.75,58.03 149.75,141.56l0 134.86c0,90.21 -50.64,140.82 -149.75,140.82 -93.87,0 -149.79,-49.93 -149.79,-140.82l0 -134.86zm549.51 -91.68l152.02 419.52 81.94 0 152.75 -419.52 28.33 419.52 76.75 0 -43.98 -521.58 -93.11 0 -160.97 450.06 -162.45 -450.06 -92.39 0 -43.94 521.58 76.75 0 28.3 -419.52zm692.08 419.52l0 -456.76 267.5 0 0 456.76 78.99 0 0 -521.58 -425.47 0 0 521.58 78.99 0zm808.38 0l83.43 0 -174.35 -521.58 -98.34 0 -175.89 521.58 83.5 0 44.7 -141.56 192.22 0 44.74 141.56zm-139.37 -450.05l78.99 246.62 -160.93 0 81.94 -246.62zm655.63 -71.53l0 210.1 -257.07 0 0 -210.1 -78.99 0 0 521.58 78.99 0 0 -251.08 257.07 0 0 251.08 78.99 0 0 -521.58 -78.99 0zm205.19 0l0 521.58 69.29 0 283.19 -409.06 0 409.06 78.99 0 0 -521.58 -69.33 0 -283.14 409.07 0 -409.07 -78.99 0zm737.98 0c-135.78,0 -192.25,63.35 -192.25,160.93 0,88.68 43.98,150.51 138.61,157.98l-134.14 202.67 89.44 0 122.17 -196.72 98.38 0 0 196.72 78.99 0 0 -521.58 -201.2 0zm0 268.98c-67.97,0 -109.52,-24.59 -109.52,-102.82 0,-78.99 40.23,-103.58 109.52,-103.58l122.21 0 0 206.39 -122.21 0z"/>
  <path class="fil1" d="M1952.38 2424.23c-592.67,-677.13 56.68,-966.59 -188.53,-1522.48 305.46,259.73 331.8,436.05 444.41,564.41 31.52,-61.64 32.88,-135.36 20.4,-213.89 -66.77,-420.69 -133.13,-293.59 -80.24,-720.6 35.71,362.48 82.34,259.3 323.16,548.18 102.97,123.54 159.17,249.81 203.33,358.84 222.71,-265.17 163.67,-585.34 105.84,-880.28 401.39,598.17 555.51,937.57 212.33,1559.88 36.7,-167.8 6.71,-243.52 0.49,-366.51 -64.45,347.38 -181.16,639.65 -458.15,950.7 72.44,-253.39 138.97,-581.9 -60.38,-966.83 -50.09,306.16 -76.16,516.26 -150.3,918.46 -156.16,-109.74 -307.6,-308.68 -353.76,-613.3 -73.34,78.51 -67.16,219.64 -18.61,383.41zm693.62 -1328.94c2.5,-112.54 35.63,-220.89 6.54,-345.28 -40.05,-171.29 -156.72,-228.19 -239.91,-372.77 -60.12,-104.42 -103.76,-232.79 -112.02,-377.23 -57.27,198.06 -37.65,503.32 13.36,618.65 69.33,156.85 247.16,307.97 332.03,476.64z"/>
  <polygon class="fil2" points="5492.55,5517.86 5410.83,5517.86 5410.83,2034.1 5492.55,2034.1 "/>
  <path class="fil3" d="M-0 4819c0,59.71 42.41,113.25 124.79,113.25 82.36,0 124.79,-53.54 124.79,-113.25l0 -69.6c0,-59.71 -42.83,-113.67 -124.79,-113.67 -81.95,0 -124.79,53.96 -124.79,113.67l0 69.6zm28.82 -68.37c0,-55.61 41.19,-96.78 95.96,-96.78 60.95,0 95.95,44.47 95.95,96.78l0 66.71c0,57.25 -35,96.79 -95.95,96.79 -57.25,0 -91.84,-35.01 -95.96,-86.9l0 -76.6zm460.03 144.14c-25.95,8.64 -47.77,16.05 -70.84,16.05 -61.36,0 -84.43,-37.47 -84.43,-93.07l0 -67.55c0,-60.95 23.89,-93.07 84.43,-93.07 23.07,0 44.07,6.99 70.42,16.06l6.19 -21.01c-25.95,-9.06 -49.84,-16.47 -76.61,-16.47 -79.48,0 -111.61,43.24 -111.61,114.08l0 68.37c0,70.84 32.13,114.08 111.61,114.08 26.77,0 50.66,-7.41 76.61,-16.47l-5.77 -21zm267.69 -254.93l0 120.67 -161.44 0 0 -120.67 -26.35 0 0 288.29 26.35 0 0 -147.44 161.44 0 0 147.44 26.36 0 0 -288.29 -26.36 0zm98.84 179.16c0,59.71 42.41,113.25 124.79,113.25 82.36,0 124.79,-53.54 124.79,-113.25l0 -69.6c0,-59.71 -42.83,-113.67 -124.79,-113.67 -81.95,0 -124.79,53.96 -124.79,113.67l0 69.6zm28.82 -68.37c0,-55.61 41.19,-96.78 95.96,-96.78 60.95,0 95.95,44.47 95.95,96.78l0 66.71c0,57.25 -35,96.79 -95.95,96.79 -57.25,0 -91.84,-35.01 -95.96,-86.9l0 -76.6zm293.24 177.5l90.18 0c73.72,0 92.67,-36.66 92.67,-82.78 0,-39.12 -20.19,-63.84 -51.48,-75.78 23.06,-8.64 35.83,-30.47 35.83,-62.18 0,-45.72 -29.65,-67.55 -71.25,-67.55l-95.95 0 0 288.29zm26.35 -146.2l60.95 0c30.89,0 67.13,13.59 67.13,63.01 0,49.84 -25.53,64.66 -67.13,64.66l-60.95 0 0 -127.67zm66.31 -123.55c30.89,0 46.13,19.76 46.13,50.23 0,46.55 -25.95,54.78 -46.13,54.78l-66.31 0 0 -105.01 66.31 0zm323.7 269.75l28.42 0 -99.66 -288.29 -32.95 0 -100.48 288.29 28 0 29.65 -88.13 117.37 0 29.65 88.13zm-88.13 -265.22l53.13 158.55 -106.67 0 53.54 -158.55zm362 -23.07l0 120.67 -161.44 0 0 -120.67 -26.35 0 0 288.29 26.35 0 0 -147.44 161.44 0 0 147.44 26.36 0 0 -288.29 -26.36 0zm289.51 288.29l28.42 0 -99.66 -288.29 -32.95 0 -100.48 288.29 28 0 29.65 -88.13 117.37 0 29.65 88.13zm-88.13 -265.22l53.13 158.55 -106.67 0 53.54 -158.55zm270.58 265.22l90.18 0c73.72,0 92.67,-36.66 92.67,-82.78 0,-39.12 -20.19,-63.84 -51.48,-75.78 23.06,-8.64 35.83,-30.47 35.83,-62.18 0,-45.72 -29.65,-67.55 -71.25,-67.55l-95.95 0 0 288.29zm26.35 -146.2l60.95 0c30.89,0 67.13,13.59 67.13,63.01 0,49.84 -25.53,64.66 -67.13,64.66l-60.95 0 0 -127.67zm66.31 -123.55c30.89,0 46.13,19.76 46.13,50.23 0,46.55 -25.95,54.78 -46.13,54.78l-66.31 0 0 -105.01 66.31 0zm288.71 86.48l10.71 18.53 91.01 -91.84 0 256.58 26.36 0 0 -288.29 -23.89 0 -104.19 105.02zm453.01 5.35c0,-89.78 -54.37,-114.49 -112.84,-114.49 -66.72,0 -111.2,39.54 -111.2,94.73 0,65.89 44.07,85.67 103.38,85.67 32.12,0 76.6,-12.36 93.07,-23.07l0 30.06c0,55.61 -41.6,88.55 -89.78,88.55 -30.48,0 -70.01,-6.18 -86.08,-12.77l-6.18 19.78c14.42,4.94 50.25,13.17 93.49,13.17 54.36,0 116.14,-29.23 116.14,-118.19l0 -63.43zm-27.6 27.19c-19.36,11.11 -64.24,21 -89.37,21 -42.41,0 -79.48,-18.12 -79.48,-68.37 0,-49.01 37.07,-75.37 84.42,-75.37 48.19,0 79.9,26.36 84.43,89.78l0 32.96zm304.76 -27.19c0,-89.78 -54.37,-114.49 -112.84,-114.49 -66.72,0 -111.2,39.54 -111.2,94.73 0,65.89 44.07,85.67 103.38,85.67 32.12,0 76.6,-12.36 93.07,-23.07l0 30.06c0,55.61 -41.6,88.55 -89.78,88.55 -30.48,0 -70.01,-6.18 -86.08,-12.77l-6.18 19.78c14.42,4.94 50.25,13.17 93.49,13.17 54.36,0 116.14,-29.23 116.14,-118.19l0 -63.43zm-27.6 27.19c-19.36,11.11 -64.24,21 -89.37,21 -42.41,0 -79.48,-18.12 -79.48,-68.37 0,-49.01 37.07,-75.37 84.42,-75.37 48.19,0 79.9,26.36 84.43,89.78l0 32.96zm181.21 150.73c0,-124.79 62.6,-230.63 119.02,-273.46l0 -14.83 -214.98 0 0 22.24 179.16 0c-40.78,32.95 -112.84,126.43 -112.84,266.05l29.65 0zm317.93 0l0 -267.28 128.5 0 0 -21 -154.85 0 0 288.29 26.35 0zm153.2 -109.13c0,59.71 42.41,113.25 124.79,113.25 82.36,0 124.79,-53.54 124.79,-113.25l0 -69.6c0,-59.71 -42.83,-113.67 -124.79,-113.67 -81.95,0 -124.79,53.96 -124.79,113.67l0 69.6zm28.82 -68.37c0,-55.61 41.19,-96.78 95.96,-96.78 60.95,0 95.95,44.47 95.95,96.78l0 66.71c0,57.25 -35,96.79 -95.95,96.79 -57.25,0 -91.84,-35.01 -95.96,-86.9l0 -76.6zm322.88 -110.79c0,77.02 0,212.1 -43.24,268.1l-21.83 0 0 102.55 22.66 0 3.7 -82.36 210.86 0 0 82.36 22.24 0 4.12 -102.55 -32.96 0 0 -268.1 -165.55 0zm139.21 21l0 247.1 -156.92 0c42.42,-58.89 40.36,-190.68 42,-247.1l114.91 0zm214.14 213.34c-11.53,26.35 -21,38.29 -39.53,38.29 -22.66,0 -40.37,-5.35 -54.37,-11.52l-6.18 20.17c10.3,4.12 35.83,11.13 61.77,11.13 35.01,0 49.01,-25.12 69.19,-69.6l86.48 -222.81 -26.36 0 -81.13 213.75 -1.65 0 -90.6 -213.75 -30.06 0 95.54 216.63c3.7,9.06 12.76,16.47 16.88,17.71z"/>
 </g>
</svg>
