<svg xmlns:xlink="http://www.w3.org/1999/xlink" id="Layer_1" data-name="Layer 1" xmlns="http://www.w3.org/2000/svg" viewBox="0 0 211.63 47.88" width="213"  height="48" ><polygon points="22.67 30.47 22.67 19.94 18.03 25.21 22.67 30.47" style="fill:#ffe500;fill-rule:evenodd"/><polygon points="22.67 0 9.23 15.25 13.89 20.53 22.67 10.57 22.67 10.57 22.67 0 22.67 0" style="fill:#ffe500;fill-rule:evenodd"/><polygon points="0 25.72 19.52 47.88 22.67 47.88 22.67 40.88 4.65 20.44 0 25.72" style="fill:#ffe500;fill-rule:evenodd"/><polygon points="22.67 0 22.67 10.57 26.81 15.25 22.67 19.94 22.67 30.47 31.45 20.51 36.02 25.72 22.67 40.88 22.67 47.88 25.82 47.88 45.34 25.72 22.67 0" style="fill:#fab900;fill-rule:evenodd"/><path d="M83.82,31a2.5,2.5,0,0,0-2.07-.76H78.39l-.84,6h3.34a3.33,3.33,0,0,0,2.29-.75,3.53,3.53,0,0,0,1-2.23A2.76,2.76,0,0,0,83.75,31Zm-8,17.57h3.57a4.17,4.17,0,0,0,2.88-.93,4.39,4.39,0,0,0,1.32-2.8,3.36,3.36,0,0,0-.53-2.75,3.33,3.33,0,0,0-2.64-.92H76.89l-1,7.4ZM89.1,36.23a6.1,6.1,0,0,1-2.64,2.15,4.51,4.51,0,0,1,2.68,2.54,8.14,8.14,0,0,1,.44,4.5,8.86,8.86,0,0,1-3.16,6.1q-2.58,2-7.29,2H69.05l4-28.24h9.12c3.28,0,5.56.59,6.86,1.78s1.77,3.08,1.4,5.69a7.79,7.79,0,0,1-1.29,3.51Zm10.71-5.47h10.32l.77-5.51H94.51l-4,28.24h16.78l.77-5.5H97.39l.91-6.47H108l.77-5.51H99.07Zm29.4,5.16a6.15,6.15,0,0,1-3.16,2.33,4.46,4.46,0,0,1,2.75,2.57,7.43,7.43,0,0,1,.58,4.64,8.94,8.94,0,0,1-3.58,6.38c-2,1.46-4.76,1.63-8.5,1.63-1.91,0-5.08-.14-7.08-.06L111,48h7c1.71,0,3.2.18,4.15-.49a2.68,2.68,0,0,0,1.28-2.37,3,3,0,0,0-.9-2.93c-.79-.67-2.2-1-4.23-1h-2.9l.66-4.69h3a7.14,7.14,0,0,0,4-.86,3.63,3.63,0,0,0,1.49-2.62,2.74,2.74,0,0,0-.74-2.52,4.5,4.5,0,0,0-3.11-.88s-3.61.18-7.23.25l.5-5h3.52c1.61,0,2.9-.05,3.89-.05,3.44,0,5.49.66,7.08,1.87a5.35,5.35,0,0,1,2.09,5.17A7.09,7.09,0,0,1,129.21,35.92Zm12,17.48a9.22,9.22,0,0,0,10-7.94l2.58-20.35h-6.12L146.34,36.7s-.41,0-3.8.19c-2.75.14-3.37-.82-3-4.65.42-4.22.74-7,.74-7l-6.06-.14s-.74,6.26-.94,9.06c-.36,4.89,1.29,7.84,6.4,8.06a56.69,56.69,0,0,0,5.83,0s-.24.88-.5,2.35-1.09,3-3.89,3c-3.57,0-9.59-.3-9.59-.3l-.82,5.92s2.13,0,10.5.28ZM167.53,31a2.58,2.58,0,0,0-2.07-.76h-3.37l-.83,6h3.36a3.31,3.31,0,0,0,2.28-.75A3.5,3.5,0,0,0,168,33.22a2.8,2.8,0,0,0-.43-2.23Zm-8,17.57h3.57A4.17,4.17,0,0,0,166,47.6a4.32,4.32,0,0,0,1.32-2.8,3.36,3.36,0,0,0-.53-2.75,3.28,3.28,0,0,0-2.63-.92h-3.57l-1,7.4Zm13.28-12.31a6,6,0,0,1-2.64,2.15,4.49,4.49,0,0,1,2.72,2.55,8.14,8.14,0,0,1,.44,4.5,8.86,8.86,0,0,1-3.16,6.1c-1.72,1.33-4.14,2-7.28,2H152.75l4-28.24h9.12c3.28,0,5.56.59,6.86,1.78s1.77,3.08,1.41,5.69a7.92,7.92,0,0,1-1.3,3.51Zm17.08,17.27,2-16.21L181.34,53.49h-6.79l4-28.24h5.76l-2.52,17.93,11.1-17.93h6.79l-4,28.24Zm15.75-10.12,2.53-18.12H202.4l-4,28.24h6.79l10.87-16.57-2.24,16.59h5.76l4-28.24h-6.79l-11.13,18.1Zm6.49-20.9L206,20.61l.82-4.66L213,17.76l8.34-1.84-.87,4.66Z" transform="translate(-11.95 -13.87)" style="fill:#b1b1b1;fill-rule:evenodd"/></svg>