<svg width="500" height="454" viewBox="0 0 500 454" fill="none" xmlns="http://www.w3.org/2000/svg">
<g clip-path="url(#clip0_1369_4)">
<rect width="500" height="454" fill="white"/>
<mask id="mask0_1369_4" style="mask-type:luminance" maskUnits="userSpaceOnUse" x="160" y="14" width="94" height="326">
<path d="M160 14.6666H253.333V340H160V14.6666Z" fill="white"/>
</mask>
<g mask="url(#mask0_1369_4)">
<mask id="mask1_1369_4" style="mask-type:luminance" maskUnits="userSpaceOnUse" x="30" y="0" width="355" height="355">
<path d="M30.4791 327.422L57.4583 0.697876L384.182 27.677L357.203 354.401L30.4791 327.422Z" fill="white"/>
</mask>
<g mask="url(#mask1_1369_4)">
<mask id="mask2_1369_4" style="mask-type:luminance" maskUnits="userSpaceOnUse" x="30" y="0" width="355" height="355">
<path d="M30.4791 327.422L57.4583 0.697876L384.182 27.677L357.203 354.401L30.4791 327.422Z" fill="white"/>
</mask>
<g mask="url(#mask2_1369_4)">
<path fill-rule="evenodd" clip-rule="evenodd" d="M194.172 339.766C188.823 332.229 184.641 324.323 181.271 316.135C173.328 296.844 171.187 276.312 173.937 256.307C175.854 242.391 180.323 228.906 187.172 216.396C190.484 210.339 194.344 204.531 198.745 199.005C203.016 193.635 207.724 188.479 213.099 183.807C222.979 174.896 231.208 164.859 237.432 153.875C247.01 136.984 252.266 118.224 252.885 99.2552C253.87 69.0416 243.406 38.5052 221.005 14.8385C239.849 39.7239 246.776 69.7343 242.958 98.4375C240.714 115.333 234.552 131.609 224.833 146.089C218.703 155.219 211.141 163.583 202.078 170.797C195.698 176.068 189.922 181.792 184.958 188.031C179.839 194.464 175.495 201.37 172.016 208.609C164.964 223.281 161.073 239.182 160.568 255.203C160.266 264.729 161.109 274.255 163.224 283.599C167.891 304.229 178.182 323.672 194.172 339.766Z" fill="#FF1616"/>
</g>
</g>
</g>
<mask id="mask3_1369_4" style="mask-type:luminance" maskUnits="userSpaceOnUse" x="182" y="87" width="170" height="255">
<path d="M182.667 87.3802H352V341.865H182.667V87.3802Z" fill="white"/>
</mask>
<g mask="url(#mask3_1369_4)">
<path d="M349.359 269.203C338.781 223.005 303.505 207.208 303.505 207.208C303.505 207.208 308.396 216.828 311.125 230.464C313.849 244.578 311.526 261.104 298.859 269.042C290.922 274.016 279.057 272.573 272.083 265.833C264.391 258.537 262.703 246.906 266.073 236.964C267.354 232.708 269.599 228.458 272.083 224.609C273.047 223.089 274.01 221.563 274.891 220.037L280.984 210.094C305.51 170.552 298.776 119.302 264.948 87.3802C264.948 87.3802 282.104 128.766 236.974 173.922C215.891 195.016 196.49 219.234 187.594 247.068C182.141 264.313 181.182 283.641 187.995 300.641C195.448 319.49 210.599 334.49 229.198 341.865C165.391 284.443 196.974 236.318 246.51 190.443C254.849 182.583 268.318 190.682 265.109 201.672C263.745 206.245 261.745 210.656 259.016 214.667C245.151 234.073 242.021 259.979 259.818 278.266C267.995 286.609 279.781 290.698 291.484 289.896C305.911 288.771 316.896 280.349 323.469 268.88C325.792 264.792 331.964 265.516 333.167 270.083C333.167 270.167 333.167 270.167 333.167 270.245C338.219 291.662 333.646 313.313 319.141 330.318C315.693 334.49 311.844 338.417 307.516 341.865C312.969 340.422 318.177 337.776 322.906 334.568C344.469 319.974 355.13 294.146 349.359 269.203Z" fill="black"/>
</g>
<mask id="mask4_1369_4" style="mask-type:luminance" maskUnits="userSpaceOnUse" x="302" y="185" width="72" height="119">
<path d="M302.667 185.333H373.333V304H302.667V185.333Z" fill="white"/>
</mask>
<g mask="url(#mask4_1369_4)">
<mask id="mask5_1369_4" style="mask-type:luminance" maskUnits="userSpaceOnUse" x="275" y="182" width="129" height="125">
<path d="M403.865 214.26L373.693 306.766L275.49 274.74L305.661 182.234L403.865 214.26Z" fill="white"/>
</mask>
<g mask="url(#mask5_1369_4)">
<mask id="mask6_1369_4" style="mask-type:luminance" maskUnits="userSpaceOnUse" x="275" y="182" width="129" height="125">
<path d="M403.865 214.26L373.693 306.766L275.49 274.74L305.661 182.234L403.865 214.26Z" fill="white"/>
</mask>
<g mask="url(#mask6_1369_4)">
<path d="M304.016 185.849C352.141 197.495 389.828 257.141 363.75 303.417L362.87 303.13C369.292 255.099 351.938 204.849 303.724 186.729L304.016 185.849Z" fill="#FF1616"/>
</g>
</g>
</g>
<mask id="mask7_1369_4" style="mask-type:luminance" maskUnits="userSpaceOnUse" x="204" y="209" width="36" height="118">
<path d="M204 209.333H240V326.667H204V209.333Z" fill="white"/>
</mask>
<g mask="url(#mask7_1369_4)">
<mask id="mask8_1369_4" style="mask-type:luminance" maskUnits="userSpaceOnUse" x="165" y="207" width="126" height="125">
<path d="M219.302 331.662L165.62 265.339L236.594 207.885L290.281 274.208L219.302 331.662Z" fill="white"/>
</mask>
<g mask="url(#mask8_1369_4)">
<mask id="mask9_1369_4" style="mask-type:luminance" maskUnits="userSpaceOnUse" x="165" y="207" width="125" height="125">
<path d="M165.203 264.828L218.891 331.151L289.865 273.698L236.182 207.375L165.203 264.828Z" fill="white"/>
</mask>
<g mask="url(#mask9_1369_4)">
<path d="M238.687 209.839C202.625 234.651 190.333 295.807 226.479 325.792L227.115 325.276C206.646 287.635 205.115 240.662 239.203 210.479L238.687 209.839Z" fill="#FF1616"/>
</g>
</g>
</g>
<path d="M14.4427 430.143H39.7083V434.492C39.7083 436.08 40.4635 436.497 41.7083 436.497H47.3698C48.6094 436.497 49.3698 436.08 49.3698 434.492V422.622C49.3698 421.377 48.9583 420.617 47.3698 420.617H44.0521V387.481C44.0521 385.898 43.2969 385.481 42.0521 385.481H15.5469C14.3021 385.481 13.5416 385.898 13.5416 387.481L11.3333 416.059C11.125 418.617 10.5052 420.617 6.70831 420.617C5.11977 420.617 4.70831 421.377 4.70831 422.622V434.492C4.70831 436.08 5.46873 436.497 6.70831 436.497H12.4375C13.6823 436.497 14.4427 436.08 14.4427 434.492V430.143ZM21.9635 416.612L23.6927 394.799H33.5625V421.101H19.2031C20.8594 420.549 21.8281 419.169 21.9635 416.612Z" fill="black"/>
<path d="M92.2277 416.336V400.049C92.2277 389.138 81.8736 384.445 73.66 384.445C65.4465 384.445 55.2277 389.138 55.2277 400.049V416.336C55.2277 427.247 65.4465 431.94 73.66 431.94C81.8736 431.94 92.2277 427.247 92.2277 416.336ZM81.3892 401.013V415.372C81.3892 419.789 78.2121 422.346 73.66 422.346C69.1704 422.346 65.9986 419.789 65.9986 415.372V401.013C65.9986 396.596 69.1704 394.039 73.66 394.039C78.2121 394.039 81.3892 396.596 81.3892 401.013Z" fill="black"/>
<path d="M141.779 385.414H135.154C132.878 385.414 132.529 386.929 132.05 387.757L122.524 404.742L113.066 387.757C112.514 386.929 112.238 385.414 109.889 385.414H103.055C101.467 385.414 101.055 386.174 101.055 387.414V428.903C101.055 430.487 101.816 430.903 103.055 430.903H109.889C111.133 430.903 111.894 430.487 111.894 428.903V405.502L118.863 417.58C119.212 418.132 119.764 419.028 120.795 419.028H124.248C125.285 419.028 125.904 418.132 126.248 417.58L133.154 405.502V428.903C133.154 430.487 133.915 430.903 135.154 430.903H141.779C143.024 430.903 143.785 430.487 143.785 428.903V387.414C143.785 386.174 143.368 385.414 141.779 385.414Z" fill="black"/>
<path d="M210.522 385.481H201.204C199.616 385.481 199.131 385.622 197.751 387.138L183.459 402.877V387.481C183.459 385.898 182.704 385.481 181.527 385.481H174.694C173.381 385.481 172.694 385.898 172.694 387.481V428.903C172.694 430.487 173.381 430.903 174.694 430.903H181.527C182.704 430.903 183.459 430.487 183.459 428.903V416.612L187.741 412.127C191.47 418.341 197.61 428.695 197.61 428.695C198.511 430.143 199.407 430.903 201.063 430.903H209.485C210.798 430.903 211.074 429.591 210.522 428.695L195.678 404.257L211.209 387.414C211.834 386.794 211.834 385.481 210.522 385.481Z" fill="black"/>
<path d="M256.898 428.971L241.642 387.622C241.023 386.174 240.335 385.481 238.814 385.481H232.189C230.669 385.481 229.908 386.174 229.356 387.622L214.033 428.971C213.689 429.799 213.689 430.903 215.205 430.903H222.455C223.971 430.903 224.523 430.487 225.075 428.83L227.012 423.377H243.924L245.856 428.83C246.408 430.487 246.96 430.903 248.476 430.903H255.726C257.247 430.903 257.247 429.799 256.898 428.971ZM235.502 398.46L240.679 413.716H230.325L235.502 398.46Z" fill="black"/>
<path d="M303.759 385.414H297.134C294.858 385.414 294.509 386.929 294.03 387.757L284.504 404.742L275.046 387.757C274.494 386.929 274.218 385.414 271.869 385.414H265.035C263.447 385.414 263.035 386.174 263.035 387.414V428.903C263.035 430.487 263.796 430.903 265.035 430.903H271.869C273.113 430.903 273.874 430.487 273.874 428.903V405.502L280.843 417.58C281.192 418.132 281.744 419.028 282.775 419.028H286.228C287.264 419.028 287.884 418.132 288.228 417.58L295.134 405.502V428.903C295.134 430.487 295.895 430.903 297.134 430.903H303.759C305.004 430.903 305.764 430.487 305.764 428.903V387.414C305.764 386.174 305.348 385.414 303.759 385.414Z" fill="black"/>
<path d="M324.668 385.481H318.038C316.798 385.481 316.038 385.898 316.038 387.481V428.903C316.038 430.143 316.455 430.903 318.038 430.903H324.319C326.048 430.903 326.533 429.934 327.429 428.554L342.064 404.877V428.903C342.064 430.487 342.819 430.903 344.064 430.903H350.897C352.142 430.903 352.903 430.487 352.903 428.903V387.481C352.903 386.242 352.486 385.481 350.897 385.481H344.408C342.684 385.481 342.2 386.45 341.304 387.83L326.668 411.434V387.481C326.668 385.898 325.908 385.481 324.668 385.481Z" fill="black"/>
<path d="M398.107 385.481H391.273C390.029 385.481 389.268 385.898 389.268 387.481V403.085H373.878V387.481C373.878 385.898 373.185 385.481 371.872 385.481H365.039C363.8 385.481 363.039 385.898 363.039 387.481V428.903C363.039 430.487 363.8 430.903 365.039 430.903H371.872C373.185 430.903 373.878 430.487 373.878 428.903V413.299H389.268V428.903C389.268 430.487 390.029 430.903 391.273 430.903H398.107C399.346 430.903 400.107 430.487 400.107 428.903V387.481C400.107 385.898 399.346 385.481 398.107 385.481Z" fill="black"/>
<path d="M446.002 416.336V400.049C446.002 389.138 435.648 384.445 427.435 384.445C419.221 384.445 409.002 389.138 409.002 400.049V416.336C409.002 427.247 419.221 431.94 427.435 431.94C435.648 431.94 446.002 427.247 446.002 416.336ZM435.164 401.013V415.372C435.164 419.789 431.987 422.346 427.435 422.346C422.945 422.346 419.773 419.789 419.773 415.372V401.013C419.773 396.596 422.945 394.039 427.435 394.039C431.987 394.039 435.164 396.596 435.164 401.013Z" fill="black"/>
<path d="M487.205 407.362C487.825 407.086 492.241 404.877 492.241 397.908C492.241 391.419 487.413 385.414 476.158 385.414H456.83C455.241 385.414 454.83 386.174 454.83 387.414V428.903C454.83 430.143 455.241 430.903 456.83 430.903H477.127C486.721 430.903 493.554 426.419 493.554 417.648C493.554 410.195 487.757 407.57 487.205 407.362ZM477.262 421.101H465.669V395.148H476.158C479.747 395.148 481.887 395.903 481.887 399.013C481.887 401.705 480.163 403.153 476.158 403.153H475.262C473.674 403.153 473.262 403.914 473.262 405.153V410.403C473.262 411.643 473.674 412.403 475.262 412.403H476.851C480.163 412.403 482.58 413.372 482.58 416.612C482.58 419.721 480.648 421.101 477.262 421.101Z" fill="black"/>
</g>
<defs>
<clipPath id="clip0_1369_4">
<rect width="500" height="454" fill="white"/>
</clipPath>
</defs>
</svg>
